<svg width="197" height="197" viewBox="0 0 197 197" fill="none" xmlns="http://www.w3.org/2000/svg">
<rect x="0.635742" y="0.476562" width="196.364" height="196.364" rx="15.2352" fill="#F37021"/>
<path fill-rule="evenodd" clip-rule="evenodd" d="M64.6773 57.1746C64.4208 57.3084 64.0294 57.6355 63.8076 57.9015C63.473 58.3029 63.4053 58.5013 63.4093 59.0667C63.4139 59.7035 64.0609 61.001 73.3176 78.9386L83.2211 98.1292L83.2885 118.508L83.356 138.887L83.7149 139.414C84.5875 140.695 86.4067 140.691 87.3938 139.407C87.6716 139.046 87.6719 139.024 87.7068 118.147L87.7418 97.2495L78.7715 79.918C73.8379 70.3857 69.8012 62.4407 69.8012 62.2624C69.8012 62.0843 69.9172 61.7992 70.059 61.6292L70.3167 61.3199L75.9597 61.2868L81.6026 61.2538L91.2107 79.8439L100.819 98.434L100.821 118.612C100.823 130.201 100.875 138.918 100.945 139.091C101.011 139.257 101.279 139.59 101.539 139.833C102.038 140.297 102.867 140.496 103.576 140.323C104.02 140.215 104.859 139.498 105.019 139.091C105.092 138.902 105.141 130.646 105.139 118.702L105.136 98.6314L119.344 79.3098C127.159 68.683 133.592 59.8457 133.64 59.6716C133.893 58.7544 133.457 57.7486 132.593 57.2573C131.504 56.6374 130.427 56.9361 129.516 58.1106C129.264 58.4348 123.365 66.4516 116.406 75.9257C109.447 85.3998 103.644 93.2633 103.511 93.4C103.277 93.6408 102.973 93.0719 93.8186 75.2901L84.3674 56.9316H74.7557C65.6515 56.9316 65.1193 56.9445 64.6773 57.1746Z" fill="white"/>
</svg>
