<svg width="197" height="197" viewBox="0 0 197 197" fill="none" xmlns="http://www.w3.org/2000/svg">
<rect x="0.635742" y="0.0683594" width="196.364" height="196.364" rx="15.2352" fill="white"/>
<mask id="path-2-outside-1_1854_1228" maskUnits="userSpaceOnUse" x="67.1357" y="61.6602" width="64" height="73" fill="black">
<rect fill="white" x="67.1357" y="61.6602" width="64" height="73"/>
<path fill-rule="evenodd" clip-rule="evenodd" d="M89.3308 62.8107C89.1315 62.9365 89.0846 63.8399 89.0181 68.8304L88.9428 74.488C88.9411 74.6188 88.865 74.7372 88.7467 74.7931L79.8925 78.9793C74.9163 81.3318 70.7133 83.3694 70.5527 83.507C70.2694 83.7494 70.2603 84.5102 70.2603 107.888V131.713C70.2603 131.887 70.1302 132.033 69.9575 132.053L69.4397 132.114C68.8601 132.181 68.5359 132.311 68.3358 132.556C68.0125 132.951 68.0905 133.585 68.5012 133.898C68.7038 134.053 75.0819 134.094 99.1786 134.094C132.413 134.094 130.181 134.25 130.181 133.186C130.181 132.501 129.895 132.239 129.018 132.123L128.551 132.061C128.38 132.038 128.253 131.893 128.253 131.721V103.544C128.253 75.1003 128.253 75.0652 127.934 74.7236C127.759 74.5354 127.472 74.3814 127.296 74.3814C127.121 74.3814 123.12 76.2103 118.405 78.4456C113.691 80.6809 109.793 82.5098 109.743 82.5098C109.693 82.5098 109.651 80.9095 109.649 78.9537C109.648 76.4238 109.591 75.286 109.452 75.0115C109.189 74.4927 90.5081 62.6569 89.9571 62.6602C89.7416 62.6616 89.4597 62.7292 89.3308 62.8107ZM99.3349 70.6715L107.383 75.7693C107.482 75.832 107.542 75.941 107.542 76.0582L107.581 103.966L107.62 131.719C107.62 131.908 107.467 132.062 107.277 132.062H99.2573H91.2365C91.0473 132.062 90.8939 131.908 90.8939 131.719V98.7666C90.8939 80.4543 90.9466 65.4718 91.0112 65.4721C91.0757 65.4726 94.8213 67.8121 99.3349 70.6715ZM88.8618 104.472V131.719C88.8618 131.908 88.7085 132.062 88.5193 132.062H80.4985H72.4783C72.2889 132.062 72.1354 131.908 72.1358 131.719L72.1747 108.431L72.2139 85.017C72.2141 84.8851 72.2901 84.765 72.4092 84.7083L80.499 80.858C85.0556 78.6895 88.8013 76.9078 88.8228 76.8987C88.8442 76.8898 88.8618 89.2978 88.8618 104.472ZM126.221 104.55V131.719C126.221 131.908 126.068 132.062 125.879 132.062H117.936H109.994C109.805 132.062 109.652 131.908 109.652 131.719L109.653 108.419L109.654 84.9932C109.654 84.8608 109.73 84.7403 109.85 84.6836L117.82 80.9093C122.312 78.7825 126.039 77.0416 126.104 77.0405C126.168 77.0396 126.221 89.4189 126.221 104.55ZM75.7662 87.13C75.4577 87.3461 75.4187 87.5099 75.4187 88.5908C75.4187 89.9351 75.636 90.3256 76.3838 90.3256C77.0694 90.3256 77.2945 89.8901 77.2945 88.5636C77.2945 87.5108 77.2543 87.3453 76.947 87.13C76.756 86.9962 76.4903 86.8866 76.3566 86.8866C76.223 86.8866 75.9572 86.9962 75.7662 87.13ZM79.8495 87.2874C79.4801 87.657 79.4537 87.774 79.5111 88.7895C79.5797 90.0045 79.8068 90.3256 80.5981 90.3256C81.2505 90.3256 81.515 89.8194 81.515 88.5712C81.515 87.7203 81.4536 87.4505 81.2024 87.1993C80.7799 86.7767 80.3309 86.806 79.8495 87.2874ZM84.0161 87.1993C83.7649 87.4505 83.7034 87.7203 83.7034 88.5712C83.7034 89.8143 83.969 90.3268 84.6112 90.3232C85.416 90.3185 85.7355 89.8094 85.7355 88.5311C85.7355 87.8083 85.668 87.5865 85.3518 87.2704C84.8867 86.8052 84.4342 86.7811 84.0161 87.1993ZM94.524 87.13C94.2155 87.3461 94.1765 87.5099 94.1765 88.5908C94.1765 89.9351 94.3938 90.3256 95.1416 90.3256C95.8272 90.3256 96.0523 89.8901 96.0523 88.5636C96.0523 87.5108 96.0122 87.3453 95.7048 87.13C95.5138 86.9962 95.2481 86.8866 95.1144 86.8866C94.9808 86.8866 94.715 86.9962 94.524 87.13ZM98.5648 87.2985C98.314 87.6173 98.2407 87.9355 98.2407 88.7054C98.2407 89.8544 98.5563 90.3256 99.326 90.3256C100.01 90.3256 100.273 89.8401 100.273 88.5773C100.273 87.6951 100.217 87.4724 99.9307 87.2054C99.4639 86.7705 98.9526 86.8054 98.5648 87.2985ZM102.774 87.1993C102.518 87.4552 102.461 87.7203 102.461 88.66C102.461 89.9243 102.692 90.3278 103.411 90.3232C104.171 90.3184 104.493 89.7852 104.493 88.5311C104.493 87.8083 104.426 87.5865 104.11 87.2704C103.645 86.8052 103.192 86.7811 102.774 87.1993ZM113.091 87.1993C112.835 87.4552 112.778 87.7203 112.778 88.66C112.778 89.9243 113.009 90.3278 113.728 90.3232C114.488 90.3184 114.81 89.7852 114.81 88.5311C114.81 87.8083 114.743 87.5865 114.426 87.2704C113.961 86.8052 113.509 86.7811 113.091 87.1993ZM117.289 87.1855C116.965 87.4478 116.92 87.6173 116.92 88.5759C116.92 89.8193 117.214 90.3256 117.936 90.3256C118.638 90.3256 118.874 89.8993 118.874 88.6328C118.874 87.7203 118.816 87.4537 118.562 87.1993C118.169 86.8066 117.763 86.8021 117.289 87.1855ZM121.387 87.2985C121.136 87.6173 121.063 87.9355 121.063 88.7054C121.063 89.8544 121.378 90.3256 122.148 90.3256C122.828 90.3256 123.095 89.839 123.095 88.5986C123.095 87.7218 123.04 87.5152 122.733 87.2265C122.25 86.7727 121.781 86.7979 121.387 87.2985ZM75.7662 93.07C75.4577 93.286 75.4187 93.4498 75.4187 94.5308C75.4187 95.8751 75.636 96.2655 76.3838 96.2655C77.0694 96.2655 77.2945 95.83 77.2945 94.5036C77.2945 93.4508 77.2543 93.2852 76.947 93.07C76.756 92.9362 76.4903 92.8266 76.3566 92.8266C76.223 92.8266 75.9572 92.9362 75.7662 93.07ZM79.792 93.2565C79.5017 93.6246 79.4617 93.8402 79.5131 94.7585C79.578 95.9149 79.8142 96.2655 80.5288 96.2655C81.2221 96.2655 81.515 95.7549 81.515 94.5461C81.515 93.6602 81.4555 93.3923 81.2024 93.1392C80.7599 92.6967 80.1964 92.7436 79.792 93.2565ZM84.0161 93.1392C83.7649 93.3904 83.7034 93.6602 83.7034 94.5112C83.7034 95.7542 83.969 96.2668 84.6112 96.2632C85.4107 96.2587 85.7355 95.7491 85.7355 94.4993C85.7355 93.0797 84.8087 92.3466 84.0161 93.1392ZM94.524 93.07C94.2155 93.286 94.1765 93.4498 94.1765 94.5308C94.1765 95.8751 94.3938 96.2655 95.1416 96.2655C95.8272 96.2655 96.0523 95.83 96.0523 94.5036C96.0523 93.4508 96.0122 93.2852 95.7048 93.07C95.5138 92.9362 95.2481 92.8266 95.1144 92.8266C94.9808 92.8266 94.715 92.9362 94.524 93.07ZM98.5648 93.2385C98.314 93.5572 98.2407 93.8755 98.2407 94.6453C98.2407 95.7638 98.5554 96.2655 99.2568 96.2655C99.9797 96.2655 100.273 95.7697 100.273 94.5461C100.273 93.6602 100.213 93.3923 99.9602 93.1392C99.5239 92.703 98.954 92.7435 98.5648 93.2385ZM102.774 93.1392C102.518 93.3951 102.461 93.6602 102.461 94.6C102.461 95.876 102.69 96.2655 103.439 96.2655C104.092 96.2655 104.493 95.6109 104.493 94.5461C104.493 93.0797 103.58 92.3327 102.774 93.1392ZM113.091 93.1392C112.835 93.3951 112.778 93.6602 112.778 94.6C112.778 95.876 113.007 96.2655 113.756 96.2655C114.409 96.2655 114.81 95.6109 114.81 94.5461C114.81 93.0797 113.897 92.3327 113.091 93.1392ZM117.289 93.1255C116.965 93.3878 116.92 93.5572 116.92 94.5159C116.92 95.7592 117.214 96.2655 117.936 96.2655C118.65 96.2655 118.874 95.8435 118.874 94.5036C118.874 93.4508 118.834 93.2852 118.527 93.07C118.068 92.7481 117.737 92.763 117.289 93.1255ZM121.375 93.1392C121.122 93.3923 121.063 93.6602 121.063 94.5461C121.063 95.7697 121.356 96.2655 122.079 96.2655C122.802 96.2655 123.095 95.7697 123.095 94.5461C123.095 93.3224 122.802 92.8266 122.079 92.8266C121.864 92.8266 121.547 92.9673 121.375 93.1392ZM75.6774 99.2088C75.485 99.4214 75.4187 99.7956 75.4187 100.67C75.4187 101.968 75.6431 102.362 76.3838 102.362C77.0694 102.362 77.2945 101.926 77.2945 100.6C77.2945 99.5471 77.2543 99.3815 76.947 99.1663C76.4847 98.8422 75.9941 98.8588 75.6774 99.2088ZM80.0144 99.0425C79.4012 99.4519 79.2716 101.269 79.807 101.95C80.1962 102.445 80.7661 102.485 81.2024 102.049C81.4555 101.796 81.515 101.528 81.515 100.642C81.515 99.7565 81.4555 99.4886 81.2024 99.2355C80.8873 98.9204 80.3322 98.8302 80.0144 99.0425ZM84.0161 99.2355C83.763 99.4886 83.7034 99.7565 83.7034 100.642C83.7034 101.528 83.763 101.796 84.0161 102.049C84.8227 102.856 85.7355 102.109 85.7355 100.642C85.7355 99.176 84.8227 98.4289 84.0161 99.2355ZM94.4352 99.2088C94.2428 99.4214 94.1765 99.7956 94.1765 100.67C94.1765 101.968 94.4009 102.362 95.1416 102.362C95.8272 102.362 96.0523 101.926 96.0523 100.6C96.0523 99.5471 96.0122 99.3815 95.7048 99.1663C95.2425 98.8422 94.7519 98.8588 94.4352 99.2088ZM98.6372 99.1339C98.3239 99.3629 98.1219 100.773 98.3004 101.484C98.5173 102.348 99.3709 102.639 99.9602 102.049C100.213 101.796 100.273 101.528 100.273 100.642C100.273 99.7565 100.213 99.4886 99.9602 99.2355C99.5982 98.8735 99.0508 98.8316 98.6372 99.1339ZM102.72 99.2088C102.318 99.6527 102.356 101.631 102.774 102.049C103.58 102.856 104.493 102.109 104.493 100.642C104.493 99.9729 104.412 99.6426 104.169 99.3348C103.784 98.8447 103.103 98.7855 102.72 99.2088ZM113.126 99.1663C112.819 99.3806 112.778 99.548 112.778 100.573C112.778 101.528 112.834 101.793 113.091 102.049C113.897 102.856 114.81 102.109 114.81 100.642C114.81 99.205 114.037 98.5277 113.126 99.1663ZM117.218 99.2519C116.987 99.5075 116.92 99.818 116.92 100.642C116.92 101.467 116.987 101.777 117.218 102.033C117.571 102.423 118.048 102.454 118.527 102.118C118.836 101.902 118.874 101.739 118.874 100.642C118.874 99.5457 118.836 99.3828 118.527 99.1663C118.048 98.8305 117.571 98.8618 117.218 99.2519ZM121.375 99.2355C121.122 99.4886 121.063 99.7565 121.063 100.642C121.063 101.866 121.356 102.362 122.079 102.362C122.802 102.362 123.095 101.866 123.095 100.642C123.095 99.4187 122.802 98.9229 122.079 98.9229C121.864 98.9229 121.547 99.0636 121.375 99.2355ZM75.6706 105.313C75.4583 105.547 75.4142 105.853 75.4509 106.831C75.4942 107.984 75.5222 108.071 75.9268 108.296C76.3132 108.512 76.4001 108.512 76.7865 108.296C77.191 108.071 77.219 107.984 77.2623 106.831C77.3142 105.448 77.0998 105.019 76.3566 105.019C76.1253 105.019 75.8166 105.151 75.6706 105.313ZM79.8706 105.237C79.641 105.404 79.5595 105.699 79.5131 106.526C79.4617 107.445 79.5017 107.66 79.792 108.028C80.1964 108.541 80.7599 108.588 81.2024 108.145C81.4555 107.892 81.515 107.624 81.515 106.739C81.515 105.853 81.4555 105.585 81.2024 105.332C80.8379 104.967 80.2923 104.928 79.8706 105.237ZM84.0161 105.332C83.763 105.585 83.7034 105.853 83.7034 106.739C83.7034 107.624 83.763 107.892 84.0161 108.145C84.4523 108.582 85.0223 108.541 85.4115 108.046C85.9469 107.366 85.8173 105.548 85.2041 105.139C84.8863 104.926 84.3312 105.017 84.0161 105.332ZM94.4284 105.313C94.2161 105.547 94.172 105.853 94.2087 106.831C94.252 107.984 94.28 108.071 94.6846 108.296C95.071 108.512 95.1579 108.512 95.5443 108.296C95.9488 108.071 95.9768 107.984 96.0201 106.831C96.072 105.448 95.8576 105.019 95.1144 105.019C94.8831 105.019 94.5744 105.151 94.4284 105.313ZM98.5534 105.332C98.0999 105.785 98.1069 107.464 98.5648 108.046C98.954 108.541 99.5239 108.582 99.9602 108.145C100.213 107.892 100.273 107.624 100.273 106.739C100.273 105.515 99.9797 105.019 99.2568 105.019C99.0419 105.019 98.7253 105.16 98.5534 105.332ZM102.809 105.263C102.503 105.477 102.461 105.644 102.461 106.669C102.461 107.624 102.517 107.889 102.774 108.145C103.192 108.564 103.645 108.54 104.11 108.074C104.43 107.754 104.493 107.539 104.493 106.767C104.493 105.301 103.729 104.618 102.809 105.263ZM113.037 105.305C112.635 105.749 112.673 107.727 113.091 108.145C113.509 108.564 113.961 108.54 114.426 108.074C114.947 107.554 114.98 106.059 114.486 105.431C114.101 104.941 113.42 104.882 113.037 105.305ZM117.228 105.338C116.861 105.743 116.742 107.278 117.034 107.83C117.332 108.393 117.966 108.577 118.471 108.246C118.848 107.999 118.874 107.901 118.874 106.759C118.874 105.773 118.819 105.487 118.588 105.278C118.199 104.925 117.576 104.953 117.228 105.338ZM121.375 105.332C120.922 105.785 120.929 107.464 121.387 108.046C121.784 108.551 122.345 108.579 122.776 108.116C123.032 107.841 123.095 107.565 123.095 106.709C123.095 105.517 122.796 105.019 122.079 105.019C121.864 105.019 121.547 105.16 121.375 105.332ZM75.6706 111.409C75.4583 111.644 75.4142 111.949 75.4509 112.928C75.4942 114.081 75.5222 114.167 75.9268 114.393C76.3132 114.608 76.4001 114.608 76.7865 114.393C77.191 114.167 77.219 114.081 77.2623 112.928C77.3142 111.545 77.0998 111.115 76.3566 111.115C76.1253 111.115 75.8166 111.248 75.6706 111.409ZM79.7796 111.369C79.6639 111.509 79.542 112.102 79.509 112.688C79.4539 113.663 79.4825 113.787 79.8495 114.154C80.3333 114.637 80.7163 114.661 81.1729 114.236C81.4595 113.969 81.515 113.746 81.515 112.864C81.515 111.563 81.2576 111.115 80.5093 111.115C80.2211 111.115 79.8965 111.228 79.7796 111.369ZM83.9621 111.401C83.5604 111.845 83.5979 113.824 84.0161 114.242C84.4386 114.664 84.8875 114.635 85.369 114.154C85.7383 113.784 85.7648 113.667 85.7074 112.652C85.6591 111.797 85.5787 111.502 85.3479 111.333C84.9325 111.029 84.2693 111.062 83.9621 111.401ZM94.4284 111.409C94.2161 111.644 94.172 111.949 94.2087 112.928C94.252 114.081 94.28 114.167 94.6846 114.393C95.071 114.608 95.1579 114.608 95.5443 114.393C95.9488 114.167 95.9768 114.081 96.0201 112.928C96.072 111.545 95.8576 111.115 95.1144 111.115C94.8831 111.115 94.5744 111.248 94.4284 111.409ZM98.4841 111.463C98.3261 111.688 98.2407 112.157 98.2407 112.799C98.2407 113.64 98.2979 113.844 98.6245 114.171C99.1045 114.651 99.4964 114.657 99.933 114.193C100.411 113.684 100.429 111.896 99.9602 111.428C99.5353 111.003 98.7938 111.021 98.4841 111.463ZM102.72 111.401C102.318 111.845 102.356 113.824 102.774 114.242C103.192 114.66 103.645 114.636 104.11 114.171C104.426 113.855 104.493 113.633 104.493 112.91C104.493 112.053 104.307 111.466 103.962 111.235C103.645 111.024 102.981 111.112 102.72 111.401ZM113.037 111.401C112.635 111.845 112.673 113.824 113.091 114.242C113.509 114.66 113.961 114.636 114.426 114.171C114.743 113.855 114.81 113.633 114.81 112.91C114.81 112.053 114.624 111.466 114.279 111.235C113.962 111.024 113.298 111.112 113.037 111.401ZM117.25 111.355C116.689 111.917 116.733 113.805 117.319 114.279C117.764 114.64 118.176 114.627 118.562 114.242C119.001 113.803 119.02 111.765 118.588 111.374C118.23 111.05 117.565 111.04 117.25 111.355ZM121.375 111.428C121.126 111.677 121.063 111.949 121.063 112.764C121.063 113.642 121.117 113.841 121.446 114.171C121.658 114.382 121.942 114.554 122.079 114.554C122.216 114.554 122.5 114.382 122.711 114.171C123.04 113.841 123.095 113.642 123.095 112.764C123.095 111.616 122.787 111.115 122.079 111.115C121.864 111.115 121.547 111.256 121.375 111.428ZM75.6584 117.463C75.4598 117.662 75.4162 117.983 75.4517 118.982C75.4946 120.181 75.5199 120.262 75.9268 120.489C76.3132 120.705 76.4001 120.705 76.7865 120.489C77.191 120.263 77.219 120.177 77.2623 119.024C77.2991 118.045 77.255 117.74 77.0427 117.505C76.7171 117.145 75.998 117.124 75.6584 117.463ZM79.7263 117.559C79.5683 117.785 79.4829 118.253 79.4829 118.895C79.4829 119.736 79.5401 119.941 79.8667 120.267C80.3347 120.735 80.5695 120.747 81.1031 120.327C81.475 120.034 81.515 119.901 81.515 118.955C81.515 117.653 81.2576 117.212 80.499 117.212C80.1291 117.212 79.8962 117.316 79.7263 117.559ZM83.9621 117.498C83.6121 117.884 83.5951 119.895 83.9388 120.238C84.5364 120.836 85.4707 120.59 85.6736 119.782C85.854 119.063 85.6541 117.653 85.3391 117.423C84.9316 117.125 84.2668 117.161 83.9621 117.498ZM94.4221 117.457C94.2405 117.639 94.1765 118.023 94.1765 118.934C94.1765 120.028 94.215 120.191 94.524 120.407C94.9916 120.735 95.3641 120.714 95.7397 120.338C96.1789 119.899 96.1979 117.861 95.7664 117.47C95.4053 117.144 94.7424 117.137 94.4221 117.457ZM98.4841 117.559C98.3261 117.785 98.2407 118.253 98.2407 118.895C98.2407 119.736 98.2979 119.941 98.6245 120.267C99.0925 120.735 99.3273 120.747 99.8609 120.327C100.233 120.034 100.273 119.901 100.273 118.955C100.273 117.653 100.015 117.212 99.2568 117.212C98.8869 117.212 98.654 117.316 98.4841 117.559ZM102.72 117.498C102.401 117.85 102.355 119.827 102.657 120.221C102.981 120.646 103.605 120.709 104.034 120.362C104.378 120.083 104.415 119.936 104.415 118.854C104.415 117.848 104.366 117.62 104.112 117.434C103.691 117.126 103.029 117.156 102.72 117.498ZM113.037 117.498C112.718 117.85 112.672 119.827 112.973 120.221C113.298 120.646 113.921 120.709 114.351 120.362C114.695 120.083 114.732 119.936 114.732 118.854C114.732 117.848 114.683 117.62 114.429 117.434C114.008 117.126 113.346 117.156 113.037 117.498ZM117.224 117.434C116.969 117.62 116.92 117.848 116.92 118.854C116.92 119.935 116.958 120.082 117.301 120.361C117.731 120.709 118.355 120.646 118.679 120.221C118.793 120.072 118.874 119.501 118.874 118.847C118.874 117.963 118.815 117.675 118.588 117.47C118.238 117.153 117.63 117.137 117.224 117.434ZM121.306 117.559C121.148 117.785 121.063 118.253 121.063 118.895C121.063 119.736 121.12 119.941 121.446 120.267C121.658 120.478 121.942 120.651 122.079 120.651C122.216 120.651 122.5 120.478 122.711 120.267C123.038 119.941 123.095 119.736 123.095 118.895C123.095 117.657 122.826 117.212 122.079 117.212C121.709 117.212 121.476 117.316 121.306 117.559ZM75.6643 123.554C75.483 123.735 75.4187 124.119 75.4187 125.02C75.4187 126.387 75.5715 126.643 76.3871 126.643C77.0899 126.643 77.2945 126.257 77.2945 124.931C77.2945 123.655 77.0937 123.308 76.3566 123.308C76.1111 123.308 75.7995 123.419 75.6643 123.554ZM79.7263 123.656C79.5683 123.881 79.4829 124.35 79.4829 124.991C79.4829 125.832 79.5401 126.037 79.8667 126.363C80.3347 126.831 80.5695 126.843 81.1031 126.423C81.475 126.131 81.515 125.997 81.515 125.051C81.515 123.75 81.2576 123.308 80.499 123.308C80.1291 123.308 79.8962 123.413 79.7263 123.656ZM83.969 123.586C83.7716 123.804 83.7034 124.165 83.7034 124.989C83.7034 126.002 83.7394 126.127 84.1153 126.423C84.649 126.843 84.8838 126.831 85.3518 126.363C85.6718 126.043 85.7352 125.829 85.7332 125.074C85.7301 123.844 85.4868 123.399 84.7861 123.339C84.4017 123.307 84.1541 123.382 83.969 123.586ZM94.3383 123.61C94.0729 124.107 94.1329 126.203 94.4193 126.441C94.7816 126.742 95.5923 126.691 95.8401 126.352C96.1513 125.927 96.1267 123.874 95.8068 123.554C95.4515 123.198 94.54 123.234 94.3383 123.61ZM98.4841 123.656C98.3261 123.881 98.2407 124.35 98.2407 124.991C98.2407 125.832 98.2979 126.037 98.6245 126.363C98.8355 126.574 99.12 126.747 99.2568 126.747C99.3936 126.747 99.6781 126.574 99.8891 126.363C100.216 126.037 100.273 125.832 100.273 124.991C100.273 123.753 100.004 123.308 99.2568 123.308C98.8869 123.308 98.654 123.413 98.4841 123.656ZM102.72 123.594C102.37 123.981 102.353 125.991 102.697 126.335C103.354 126.992 104.248 126.675 104.427 125.722C104.562 125.004 104.431 123.844 104.181 123.543C103.909 123.216 103.034 123.246 102.72 123.594ZM113.037 123.594C112.687 123.981 112.67 125.991 113.013 126.335C113.671 126.992 114.565 126.675 114.744 125.722C114.879 125.004 114.747 123.844 114.498 123.543C114.226 123.216 113.351 123.246 113.037 123.594ZM117.144 123.556C116.874 123.881 116.77 125.458 116.982 126.007C117.192 126.549 117.822 126.818 118.298 126.567C118.814 126.296 118.869 126.138 118.872 124.935C118.874 124.056 118.815 123.772 118.588 123.567C118.226 123.238 117.412 123.232 117.144 123.556ZM121.306 123.656C121.148 123.881 121.063 124.35 121.063 124.991C121.063 125.832 121.12 126.037 121.446 126.363C121.658 126.574 121.942 126.747 122.079 126.747C122.216 126.747 122.5 126.574 122.711 126.363C123.038 126.037 123.095 125.832 123.095 124.991C123.095 123.753 122.826 123.308 122.079 123.308C121.709 123.308 121.476 123.413 121.306 123.656Z"/>
</mask>
<path fill-rule="evenodd" clip-rule="evenodd" d="M89.3308 62.8107C89.1315 62.9365 89.0846 63.8399 89.0181 68.8304L88.9428 74.488C88.9411 74.6188 88.865 74.7372 88.7467 74.7931L79.8925 78.9793C74.9163 81.3318 70.7133 83.3694 70.5527 83.507C70.2694 83.7494 70.2603 84.5102 70.2603 107.888V131.713C70.2603 131.887 70.1302 132.033 69.9575 132.053L69.4397 132.114C68.8601 132.181 68.5359 132.311 68.3358 132.556C68.0125 132.951 68.0905 133.585 68.5012 133.898C68.7038 134.053 75.0819 134.094 99.1786 134.094C132.413 134.094 130.181 134.25 130.181 133.186C130.181 132.501 129.895 132.239 129.018 132.123L128.551 132.061C128.38 132.038 128.253 131.893 128.253 131.721V103.544C128.253 75.1003 128.253 75.0652 127.934 74.7236C127.759 74.5354 127.472 74.3814 127.296 74.3814C127.121 74.3814 123.12 76.2103 118.405 78.4456C113.691 80.6809 109.793 82.5098 109.743 82.5098C109.693 82.5098 109.651 80.9095 109.649 78.9537C109.648 76.4238 109.591 75.286 109.452 75.0115C109.189 74.4927 90.5081 62.6569 89.9571 62.6602C89.7416 62.6616 89.4597 62.7292 89.3308 62.8107ZM99.3349 70.6715L107.383 75.7693C107.482 75.832 107.542 75.941 107.542 76.0582L107.581 103.966L107.62 131.719C107.62 131.908 107.467 132.062 107.277 132.062H99.2573H91.2365C91.0473 132.062 90.8939 131.908 90.8939 131.719V98.7666C90.8939 80.4543 90.9466 65.4718 91.0112 65.4721C91.0757 65.4726 94.8213 67.8121 99.3349 70.6715ZM88.8618 104.472V131.719C88.8618 131.908 88.7085 132.062 88.5193 132.062H80.4985H72.4783C72.2889 132.062 72.1354 131.908 72.1358 131.719L72.1747 108.431L72.2139 85.017C72.2141 84.8851 72.2901 84.765 72.4092 84.7083L80.499 80.858C85.0556 78.6895 88.8013 76.9078 88.8228 76.8987C88.8442 76.8898 88.8618 89.2978 88.8618 104.472ZM126.221 104.55V131.719C126.221 131.908 126.068 132.062 125.879 132.062H117.936H109.994C109.805 132.062 109.652 131.908 109.652 131.719L109.653 108.419L109.654 84.9932C109.654 84.8608 109.73 84.7403 109.85 84.6836L117.82 80.9093C122.312 78.7825 126.039 77.0416 126.104 77.0405C126.168 77.0396 126.221 89.4189 126.221 104.55ZM75.7662 87.13C75.4577 87.3461 75.4187 87.5099 75.4187 88.5908C75.4187 89.9351 75.636 90.3256 76.3838 90.3256C77.0694 90.3256 77.2945 89.8901 77.2945 88.5636C77.2945 87.5108 77.2543 87.3453 76.947 87.13C76.756 86.9962 76.4903 86.8866 76.3566 86.8866C76.223 86.8866 75.9572 86.9962 75.7662 87.13ZM79.8495 87.2874C79.4801 87.657 79.4537 87.774 79.5111 88.7895C79.5797 90.0045 79.8068 90.3256 80.5981 90.3256C81.2505 90.3256 81.515 89.8194 81.515 88.5712C81.515 87.7203 81.4536 87.4505 81.2024 87.1993C80.7799 86.7767 80.3309 86.806 79.8495 87.2874ZM84.0161 87.1993C83.7649 87.4505 83.7034 87.7203 83.7034 88.5712C83.7034 89.8143 83.969 90.3268 84.6112 90.3232C85.416 90.3185 85.7355 89.8094 85.7355 88.5311C85.7355 87.8083 85.668 87.5865 85.3518 87.2704C84.8867 86.8052 84.4342 86.7811 84.0161 87.1993ZM94.524 87.13C94.2155 87.3461 94.1765 87.5099 94.1765 88.5908C94.1765 89.9351 94.3938 90.3256 95.1416 90.3256C95.8272 90.3256 96.0523 89.8901 96.0523 88.5636C96.0523 87.5108 96.0122 87.3453 95.7048 87.13C95.5138 86.9962 95.2481 86.8866 95.1144 86.8866C94.9808 86.8866 94.715 86.9962 94.524 87.13ZM98.5648 87.2985C98.314 87.6173 98.2407 87.9355 98.2407 88.7054C98.2407 89.8544 98.5563 90.3256 99.326 90.3256C100.01 90.3256 100.273 89.8401 100.273 88.5773C100.273 87.6951 100.217 87.4724 99.9307 87.2054C99.4639 86.7705 98.9526 86.8054 98.5648 87.2985ZM102.774 87.1993C102.518 87.4552 102.461 87.7203 102.461 88.66C102.461 89.9243 102.692 90.3278 103.411 90.3232C104.171 90.3184 104.493 89.7852 104.493 88.5311C104.493 87.8083 104.426 87.5865 104.11 87.2704C103.645 86.8052 103.192 86.7811 102.774 87.1993ZM113.091 87.1993C112.835 87.4552 112.778 87.7203 112.778 88.66C112.778 89.9243 113.009 90.3278 113.728 90.3232C114.488 90.3184 114.81 89.7852 114.81 88.5311C114.81 87.8083 114.743 87.5865 114.426 87.2704C113.961 86.8052 113.509 86.7811 113.091 87.1993ZM117.289 87.1855C116.965 87.4478 116.92 87.6173 116.92 88.5759C116.92 89.8193 117.214 90.3256 117.936 90.3256C118.638 90.3256 118.874 89.8993 118.874 88.6328C118.874 87.7203 118.816 87.4537 118.562 87.1993C118.169 86.8066 117.763 86.8021 117.289 87.1855ZM121.387 87.2985C121.136 87.6173 121.063 87.9355 121.063 88.7054C121.063 89.8544 121.378 90.3256 122.148 90.3256C122.828 90.3256 123.095 89.839 123.095 88.5986C123.095 87.7218 123.04 87.5152 122.733 87.2265C122.25 86.7727 121.781 86.7979 121.387 87.2985ZM75.7662 93.07C75.4577 93.286 75.4187 93.4498 75.4187 94.5308C75.4187 95.8751 75.636 96.2655 76.3838 96.2655C77.0694 96.2655 77.2945 95.83 77.2945 94.5036C77.2945 93.4508 77.2543 93.2852 76.947 93.07C76.756 92.9362 76.4903 92.8266 76.3566 92.8266C76.223 92.8266 75.9572 92.9362 75.7662 93.07ZM79.792 93.2565C79.5017 93.6246 79.4617 93.8402 79.5131 94.7585C79.578 95.9149 79.8142 96.2655 80.5288 96.2655C81.2221 96.2655 81.515 95.7549 81.515 94.5461C81.515 93.6602 81.4555 93.3923 81.2024 93.1392C80.7599 92.6967 80.1964 92.7436 79.792 93.2565ZM84.0161 93.1392C83.7649 93.3904 83.7034 93.6602 83.7034 94.5112C83.7034 95.7542 83.969 96.2668 84.6112 96.2632C85.4107 96.2587 85.7355 95.7491 85.7355 94.4993C85.7355 93.0797 84.8087 92.3466 84.0161 93.1392ZM94.524 93.07C94.2155 93.286 94.1765 93.4498 94.1765 94.5308C94.1765 95.8751 94.3938 96.2655 95.1416 96.2655C95.8272 96.2655 96.0523 95.83 96.0523 94.5036C96.0523 93.4508 96.0122 93.2852 95.7048 93.07C95.5138 92.9362 95.2481 92.8266 95.1144 92.8266C94.9808 92.8266 94.715 92.9362 94.524 93.07ZM98.5648 93.2385C98.314 93.5572 98.2407 93.8755 98.2407 94.6453C98.2407 95.7638 98.5554 96.2655 99.2568 96.2655C99.9797 96.2655 100.273 95.7697 100.273 94.5461C100.273 93.6602 100.213 93.3923 99.9602 93.1392C99.5239 92.703 98.954 92.7435 98.5648 93.2385ZM102.774 93.1392C102.518 93.3951 102.461 93.6602 102.461 94.6C102.461 95.876 102.69 96.2655 103.439 96.2655C104.092 96.2655 104.493 95.6109 104.493 94.5461C104.493 93.0797 103.58 92.3327 102.774 93.1392ZM113.091 93.1392C112.835 93.3951 112.778 93.6602 112.778 94.6C112.778 95.876 113.007 96.2655 113.756 96.2655C114.409 96.2655 114.81 95.6109 114.81 94.5461C114.81 93.0797 113.897 92.3327 113.091 93.1392ZM117.289 93.1255C116.965 93.3878 116.92 93.5572 116.92 94.5159C116.92 95.7592 117.214 96.2655 117.936 96.2655C118.65 96.2655 118.874 95.8435 118.874 94.5036C118.874 93.4508 118.834 93.2852 118.527 93.07C118.068 92.7481 117.737 92.763 117.289 93.1255ZM121.375 93.1392C121.122 93.3923 121.063 93.6602 121.063 94.5461C121.063 95.7697 121.356 96.2655 122.079 96.2655C122.802 96.2655 123.095 95.7697 123.095 94.5461C123.095 93.3224 122.802 92.8266 122.079 92.8266C121.864 92.8266 121.547 92.9673 121.375 93.1392ZM75.6774 99.2088C75.485 99.4214 75.4187 99.7956 75.4187 100.67C75.4187 101.968 75.6431 102.362 76.3838 102.362C77.0694 102.362 77.2945 101.926 77.2945 100.6C77.2945 99.5471 77.2543 99.3815 76.947 99.1663C76.4847 98.8422 75.9941 98.8588 75.6774 99.2088ZM80.0144 99.0425C79.4012 99.4519 79.2716 101.269 79.807 101.95C80.1962 102.445 80.7661 102.485 81.2024 102.049C81.4555 101.796 81.515 101.528 81.515 100.642C81.515 99.7565 81.4555 99.4886 81.2024 99.2355C80.8873 98.9204 80.3322 98.8302 80.0144 99.0425ZM84.0161 99.2355C83.763 99.4886 83.7034 99.7565 83.7034 100.642C83.7034 101.528 83.763 101.796 84.0161 102.049C84.8227 102.856 85.7355 102.109 85.7355 100.642C85.7355 99.176 84.8227 98.4289 84.0161 99.2355ZM94.4352 99.2088C94.2428 99.4214 94.1765 99.7956 94.1765 100.67C94.1765 101.968 94.4009 102.362 95.1416 102.362C95.8272 102.362 96.0523 101.926 96.0523 100.6C96.0523 99.5471 96.0122 99.3815 95.7048 99.1663C95.2425 98.8422 94.7519 98.8588 94.4352 99.2088ZM98.6372 99.1339C98.3239 99.3629 98.1219 100.773 98.3004 101.484C98.5173 102.348 99.3709 102.639 99.9602 102.049C100.213 101.796 100.273 101.528 100.273 100.642C100.273 99.7565 100.213 99.4886 99.9602 99.2355C99.5982 98.8735 99.0508 98.8316 98.6372 99.1339ZM102.72 99.2088C102.318 99.6527 102.356 101.631 102.774 102.049C103.58 102.856 104.493 102.109 104.493 100.642C104.493 99.9729 104.412 99.6426 104.169 99.3348C103.784 98.8447 103.103 98.7855 102.72 99.2088ZM113.126 99.1663C112.819 99.3806 112.778 99.548 112.778 100.573C112.778 101.528 112.834 101.793 113.091 102.049C113.897 102.856 114.81 102.109 114.81 100.642C114.81 99.205 114.037 98.5277 113.126 99.1663ZM117.218 99.2519C116.987 99.5075 116.92 99.818 116.92 100.642C116.92 101.467 116.987 101.777 117.218 102.033C117.571 102.423 118.048 102.454 118.527 102.118C118.836 101.902 118.874 101.739 118.874 100.642C118.874 99.5457 118.836 99.3828 118.527 99.1663C118.048 98.8305 117.571 98.8618 117.218 99.2519ZM121.375 99.2355C121.122 99.4886 121.063 99.7565 121.063 100.642C121.063 101.866 121.356 102.362 122.079 102.362C122.802 102.362 123.095 101.866 123.095 100.642C123.095 99.4187 122.802 98.9229 122.079 98.9229C121.864 98.9229 121.547 99.0636 121.375 99.2355ZM75.6706 105.313C75.4583 105.547 75.4142 105.853 75.4509 106.831C75.4942 107.984 75.5222 108.071 75.9268 108.296C76.3132 108.512 76.4001 108.512 76.7865 108.296C77.191 108.071 77.219 107.984 77.2623 106.831C77.3142 105.448 77.0998 105.019 76.3566 105.019C76.1253 105.019 75.8166 105.151 75.6706 105.313ZM79.8706 105.237C79.641 105.404 79.5595 105.699 79.5131 106.526C79.4617 107.445 79.5017 107.66 79.792 108.028C80.1964 108.541 80.7599 108.588 81.2024 108.145C81.4555 107.892 81.515 107.624 81.515 106.739C81.515 105.853 81.4555 105.585 81.2024 105.332C80.8379 104.967 80.2923 104.928 79.8706 105.237ZM84.0161 105.332C83.763 105.585 83.7034 105.853 83.7034 106.739C83.7034 107.624 83.763 107.892 84.0161 108.145C84.4523 108.582 85.0223 108.541 85.4115 108.046C85.9469 107.366 85.8173 105.548 85.2041 105.139C84.8863 104.926 84.3312 105.017 84.0161 105.332ZM94.4284 105.313C94.2161 105.547 94.172 105.853 94.2087 106.831C94.252 107.984 94.28 108.071 94.6846 108.296C95.071 108.512 95.1579 108.512 95.5443 108.296C95.9488 108.071 95.9768 107.984 96.0201 106.831C96.072 105.448 95.8576 105.019 95.1144 105.019C94.8831 105.019 94.5744 105.151 94.4284 105.313ZM98.5534 105.332C98.0999 105.785 98.1069 107.464 98.5648 108.046C98.954 108.541 99.5239 108.582 99.9602 108.145C100.213 107.892 100.273 107.624 100.273 106.739C100.273 105.515 99.9797 105.019 99.2568 105.019C99.0419 105.019 98.7253 105.16 98.5534 105.332ZM102.809 105.263C102.503 105.477 102.461 105.644 102.461 106.669C102.461 107.624 102.517 107.889 102.774 108.145C103.192 108.564 103.645 108.54 104.11 108.074C104.43 107.754 104.493 107.539 104.493 106.767C104.493 105.301 103.729 104.618 102.809 105.263ZM113.037 105.305C112.635 105.749 112.673 107.727 113.091 108.145C113.509 108.564 113.961 108.54 114.426 108.074C114.947 107.554 114.98 106.059 114.486 105.431C114.101 104.941 113.42 104.882 113.037 105.305ZM117.228 105.338C116.861 105.743 116.742 107.278 117.034 107.83C117.332 108.393 117.966 108.577 118.471 108.246C118.848 107.999 118.874 107.901 118.874 106.759C118.874 105.773 118.819 105.487 118.588 105.278C118.199 104.925 117.576 104.953 117.228 105.338ZM121.375 105.332C120.922 105.785 120.929 107.464 121.387 108.046C121.784 108.551 122.345 108.579 122.776 108.116C123.032 107.841 123.095 107.565 123.095 106.709C123.095 105.517 122.796 105.019 122.079 105.019C121.864 105.019 121.547 105.16 121.375 105.332ZM75.6706 111.409C75.4583 111.644 75.4142 111.949 75.4509 112.928C75.4942 114.081 75.5222 114.167 75.9268 114.393C76.3132 114.608 76.4001 114.608 76.7865 114.393C77.191 114.167 77.219 114.081 77.2623 112.928C77.3142 111.545 77.0998 111.115 76.3566 111.115C76.1253 111.115 75.8166 111.248 75.6706 111.409ZM79.7796 111.369C79.6639 111.509 79.542 112.102 79.509 112.688C79.4539 113.663 79.4825 113.787 79.8495 114.154C80.3333 114.637 80.7163 114.661 81.1729 114.236C81.4595 113.969 81.515 113.746 81.515 112.864C81.515 111.563 81.2576 111.115 80.5093 111.115C80.2211 111.115 79.8965 111.228 79.7796 111.369ZM83.9621 111.401C83.5604 111.845 83.5979 113.824 84.0161 114.242C84.4386 114.664 84.8875 114.635 85.369 114.154C85.7383 113.784 85.7648 113.667 85.7074 112.652C85.6591 111.797 85.5787 111.502 85.3479 111.333C84.9325 111.029 84.2693 111.062 83.9621 111.401ZM94.4284 111.409C94.2161 111.644 94.172 111.949 94.2087 112.928C94.252 114.081 94.28 114.167 94.6846 114.393C95.071 114.608 95.1579 114.608 95.5443 114.393C95.9488 114.167 95.9768 114.081 96.0201 112.928C96.072 111.545 95.8576 111.115 95.1144 111.115C94.8831 111.115 94.5744 111.248 94.4284 111.409ZM98.4841 111.463C98.3261 111.688 98.2407 112.157 98.2407 112.799C98.2407 113.64 98.2979 113.844 98.6245 114.171C99.1045 114.651 99.4964 114.657 99.933 114.193C100.411 113.684 100.429 111.896 99.9602 111.428C99.5353 111.003 98.7938 111.021 98.4841 111.463ZM102.72 111.401C102.318 111.845 102.356 113.824 102.774 114.242C103.192 114.66 103.645 114.636 104.11 114.171C104.426 113.855 104.493 113.633 104.493 112.91C104.493 112.053 104.307 111.466 103.962 111.235C103.645 111.024 102.981 111.112 102.72 111.401ZM113.037 111.401C112.635 111.845 112.673 113.824 113.091 114.242C113.509 114.66 113.961 114.636 114.426 114.171C114.743 113.855 114.81 113.633 114.81 112.91C114.81 112.053 114.624 111.466 114.279 111.235C113.962 111.024 113.298 111.112 113.037 111.401ZM117.25 111.355C116.689 111.917 116.733 113.805 117.319 114.279C117.764 114.64 118.176 114.627 118.562 114.242C119.001 113.803 119.02 111.765 118.588 111.374C118.23 111.05 117.565 111.04 117.25 111.355ZM121.375 111.428C121.126 111.677 121.063 111.949 121.063 112.764C121.063 113.642 121.117 113.841 121.446 114.171C121.658 114.382 121.942 114.554 122.079 114.554C122.216 114.554 122.5 114.382 122.711 114.171C123.04 113.841 123.095 113.642 123.095 112.764C123.095 111.616 122.787 111.115 122.079 111.115C121.864 111.115 121.547 111.256 121.375 111.428ZM75.6584 117.463C75.4598 117.662 75.4162 117.983 75.4517 118.982C75.4946 120.181 75.5199 120.262 75.9268 120.489C76.3132 120.705 76.4001 120.705 76.7865 120.489C77.191 120.263 77.219 120.177 77.2623 119.024C77.2991 118.045 77.255 117.74 77.0427 117.505C76.7171 117.145 75.998 117.124 75.6584 117.463ZM79.7263 117.559C79.5683 117.785 79.4829 118.253 79.4829 118.895C79.4829 119.736 79.5401 119.941 79.8667 120.267C80.3347 120.735 80.5695 120.747 81.1031 120.327C81.475 120.034 81.515 119.901 81.515 118.955C81.515 117.653 81.2576 117.212 80.499 117.212C80.1291 117.212 79.8962 117.316 79.7263 117.559ZM83.9621 117.498C83.6121 117.884 83.5951 119.895 83.9388 120.238C84.5364 120.836 85.4707 120.59 85.6736 119.782C85.854 119.063 85.6541 117.653 85.3391 117.423C84.9316 117.125 84.2668 117.161 83.9621 117.498ZM94.4221 117.457C94.2405 117.639 94.1765 118.023 94.1765 118.934C94.1765 120.028 94.215 120.191 94.524 120.407C94.9916 120.735 95.3641 120.714 95.7397 120.338C96.1789 119.899 96.1979 117.861 95.7664 117.47C95.4053 117.144 94.7424 117.137 94.4221 117.457ZM98.4841 117.559C98.3261 117.785 98.2407 118.253 98.2407 118.895C98.2407 119.736 98.2979 119.941 98.6245 120.267C99.0925 120.735 99.3273 120.747 99.8609 120.327C100.233 120.034 100.273 119.901 100.273 118.955C100.273 117.653 100.015 117.212 99.2568 117.212C98.8869 117.212 98.654 117.316 98.4841 117.559ZM102.72 117.498C102.401 117.85 102.355 119.827 102.657 120.221C102.981 120.646 103.605 120.709 104.034 120.362C104.378 120.083 104.415 119.936 104.415 118.854C104.415 117.848 104.366 117.62 104.112 117.434C103.691 117.126 103.029 117.156 102.72 117.498ZM113.037 117.498C112.718 117.85 112.672 119.827 112.973 120.221C113.298 120.646 113.921 120.709 114.351 120.362C114.695 120.083 114.732 119.936 114.732 118.854C114.732 117.848 114.683 117.62 114.429 117.434C114.008 117.126 113.346 117.156 113.037 117.498ZM117.224 117.434C116.969 117.62 116.92 117.848 116.92 118.854C116.92 119.935 116.958 120.082 117.301 120.361C117.731 120.709 118.355 120.646 118.679 120.221C118.793 120.072 118.874 119.501 118.874 118.847C118.874 117.963 118.815 117.675 118.588 117.47C118.238 117.153 117.63 117.137 117.224 117.434ZM121.306 117.559C121.148 117.785 121.063 118.253 121.063 118.895C121.063 119.736 121.12 119.941 121.446 120.267C121.658 120.478 121.942 120.651 122.079 120.651C122.216 120.651 122.5 120.478 122.711 120.267C123.038 119.941 123.095 119.736 123.095 118.895C123.095 117.657 122.826 117.212 122.079 117.212C121.709 117.212 121.476 117.316 121.306 117.559ZM75.6643 123.554C75.483 123.735 75.4187 124.119 75.4187 125.02C75.4187 126.387 75.5715 126.643 76.3871 126.643C77.0899 126.643 77.2945 126.257 77.2945 124.931C77.2945 123.655 77.0937 123.308 76.3566 123.308C76.1111 123.308 75.7995 123.419 75.6643 123.554ZM79.7263 123.656C79.5683 123.881 79.4829 124.35 79.4829 124.991C79.4829 125.832 79.5401 126.037 79.8667 126.363C80.3347 126.831 80.5695 126.843 81.1031 126.423C81.475 126.131 81.515 125.997 81.515 125.051C81.515 123.75 81.2576 123.308 80.499 123.308C80.1291 123.308 79.8962 123.413 79.7263 123.656ZM83.969 123.586C83.7716 123.804 83.7034 124.165 83.7034 124.989C83.7034 126.002 83.7394 126.127 84.1153 126.423C84.649 126.843 84.8838 126.831 85.3518 126.363C85.6718 126.043 85.7352 125.829 85.7332 125.074C85.7301 123.844 85.4868 123.399 84.7861 123.339C84.4017 123.307 84.1541 123.382 83.969 123.586ZM94.3383 123.61C94.0729 124.107 94.1329 126.203 94.4193 126.441C94.7816 126.742 95.5923 126.691 95.8401 126.352C96.1513 125.927 96.1267 123.874 95.8068 123.554C95.4515 123.198 94.54 123.234 94.3383 123.61ZM98.4841 123.656C98.3261 123.881 98.2407 124.35 98.2407 124.991C98.2407 125.832 98.2979 126.037 98.6245 126.363C98.8355 126.574 99.12 126.747 99.2568 126.747C99.3936 126.747 99.6781 126.574 99.8891 126.363C100.216 126.037 100.273 125.832 100.273 124.991C100.273 123.753 100.004 123.308 99.2568 123.308C98.8869 123.308 98.654 123.413 98.4841 123.656ZM102.72 123.594C102.37 123.981 102.353 125.991 102.697 126.335C103.354 126.992 104.248 126.675 104.427 125.722C104.562 125.004 104.431 123.844 104.181 123.543C103.909 123.216 103.034 123.246 102.72 123.594ZM113.037 123.594C112.687 123.981 112.67 125.991 113.013 126.335C113.671 126.992 114.565 126.675 114.744 125.722C114.879 125.004 114.747 123.844 114.498 123.543C114.226 123.216 113.351 123.246 113.037 123.594ZM117.144 123.556C116.874 123.881 116.77 125.458 116.982 126.007C117.192 126.549 117.822 126.818 118.298 126.567C118.814 126.296 118.869 126.138 118.872 124.935C118.874 124.056 118.815 123.772 118.588 123.567C118.226 123.238 117.412 123.232 117.144 123.556ZM121.306 123.656C121.148 123.881 121.063 124.35 121.063 124.991C121.063 125.832 121.12 126.037 121.446 126.363C121.658 126.574 121.942 126.747 122.079 126.747C122.216 126.747 122.5 126.574 122.711 126.363C123.038 126.037 123.095 125.832 123.095 124.991C123.095 123.753 122.826 123.308 122.079 123.308C121.709 123.308 121.476 123.413 121.306 123.656Z" fill="#181818"/>
<path fill-rule="evenodd" clip-rule="evenodd" d="M89.3308 62.8107C89.1315 62.9365 89.0846 63.8399 89.0181 68.8304L88.9428 74.488C88.9411 74.6188 88.865 74.7372 88.7467 74.7931L79.8925 78.9793C74.9163 81.3318 70.7133 83.3694 70.5527 83.507C70.2694 83.7494 70.2603 84.5102 70.2603 107.888V131.713C70.2603 131.887 70.1302 132.033 69.9575 132.053L69.4397 132.114C68.8601 132.181 68.5359 132.311 68.3358 132.556C68.0125 132.951 68.0905 133.585 68.5012 133.898C68.7038 134.053 75.0819 134.094 99.1786 134.094C132.413 134.094 130.181 134.25 130.181 133.186C130.181 132.501 129.895 132.239 129.018 132.123L128.551 132.061C128.38 132.038 128.253 131.893 128.253 131.721V103.544C128.253 75.1003 128.253 75.0652 127.934 74.7236C127.759 74.5354 127.472 74.3814 127.296 74.3814C127.121 74.3814 123.12 76.2103 118.405 78.4456C113.691 80.6809 109.793 82.5098 109.743 82.5098C109.693 82.5098 109.651 80.9095 109.649 78.9537C109.648 76.4238 109.591 75.286 109.452 75.0115C109.189 74.4927 90.5081 62.6569 89.9571 62.6602C89.7416 62.6616 89.4597 62.7292 89.3308 62.8107ZM99.3349 70.6715L107.383 75.7693C107.482 75.832 107.542 75.941 107.542 76.0582L107.581 103.966L107.62 131.719C107.62 131.908 107.467 132.062 107.277 132.062H99.2573H91.2365C91.0473 132.062 90.8939 131.908 90.8939 131.719V98.7666C90.8939 80.4543 90.9466 65.4718 91.0112 65.4721C91.0757 65.4726 94.8213 67.8121 99.3349 70.6715ZM88.8618 104.472V131.719C88.8618 131.908 88.7085 132.062 88.5193 132.062H80.4985H72.4783C72.2889 132.062 72.1354 131.908 72.1358 131.719L72.1747 108.431L72.2139 85.017C72.2141 84.8851 72.2901 84.765 72.4092 84.7083L80.499 80.858C85.0556 78.6895 88.8013 76.9078 88.8228 76.8987C88.8442 76.8898 88.8618 89.2978 88.8618 104.472ZM126.221 104.55V131.719C126.221 131.908 126.068 132.062 125.879 132.062H117.936H109.994C109.805 132.062 109.652 131.908 109.652 131.719L109.653 108.419L109.654 84.9932C109.654 84.8608 109.73 84.7403 109.85 84.6836L117.82 80.9093C122.312 78.7825 126.039 77.0416 126.104 77.0405C126.168 77.0396 126.221 89.4189 126.221 104.55ZM75.7662 87.13C75.4577 87.3461 75.4187 87.5099 75.4187 88.5908C75.4187 89.9351 75.636 90.3256 76.3838 90.3256C77.0694 90.3256 77.2945 89.8901 77.2945 88.5636C77.2945 87.5108 77.2543 87.3453 76.947 87.13C76.756 86.9962 76.4903 86.8866 76.3566 86.8866C76.223 86.8866 75.9572 86.9962 75.7662 87.13ZM79.8495 87.2874C79.4801 87.657 79.4537 87.774 79.5111 88.7895C79.5797 90.0045 79.8068 90.3256 80.5981 90.3256C81.2505 90.3256 81.515 89.8194 81.515 88.5712C81.515 87.7203 81.4536 87.4505 81.2024 87.1993C80.7799 86.7767 80.3309 86.806 79.8495 87.2874ZM84.0161 87.1993C83.7649 87.4505 83.7034 87.7203 83.7034 88.5712C83.7034 89.8143 83.969 90.3268 84.6112 90.3232C85.416 90.3185 85.7355 89.8094 85.7355 88.5311C85.7355 87.8083 85.668 87.5865 85.3518 87.2704C84.8867 86.8052 84.4342 86.7811 84.0161 87.1993ZM94.524 87.13C94.2155 87.3461 94.1765 87.5099 94.1765 88.5908C94.1765 89.9351 94.3938 90.3256 95.1416 90.3256C95.8272 90.3256 96.0523 89.8901 96.0523 88.5636C96.0523 87.5108 96.0122 87.3453 95.7048 87.13C95.5138 86.9962 95.2481 86.8866 95.1144 86.8866C94.9808 86.8866 94.715 86.9962 94.524 87.13ZM98.5648 87.2985C98.314 87.6173 98.2407 87.9355 98.2407 88.7054C98.2407 89.8544 98.5563 90.3256 99.326 90.3256C100.01 90.3256 100.273 89.8401 100.273 88.5773C100.273 87.6951 100.217 87.4724 99.9307 87.2054C99.4639 86.7705 98.9526 86.8054 98.5648 87.2985ZM102.774 87.1993C102.518 87.4552 102.461 87.7203 102.461 88.66C102.461 89.9243 102.692 90.3278 103.411 90.3232C104.171 90.3184 104.493 89.7852 104.493 88.5311C104.493 87.8083 104.426 87.5865 104.11 87.2704C103.645 86.8052 103.192 86.7811 102.774 87.1993ZM113.091 87.1993C112.835 87.4552 112.778 87.7203 112.778 88.66C112.778 89.9243 113.009 90.3278 113.728 90.3232C114.488 90.3184 114.81 89.7852 114.81 88.5311C114.81 87.8083 114.743 87.5865 114.426 87.2704C113.961 86.8052 113.509 86.7811 113.091 87.1993ZM117.289 87.1855C116.965 87.4478 116.92 87.6173 116.92 88.5759C116.92 89.8193 117.214 90.3256 117.936 90.3256C118.638 90.3256 118.874 89.8993 118.874 88.6328C118.874 87.7203 118.816 87.4537 118.562 87.1993C118.169 86.8066 117.763 86.8021 117.289 87.1855ZM121.387 87.2985C121.136 87.6173 121.063 87.9355 121.063 88.7054C121.063 89.8544 121.378 90.3256 122.148 90.3256C122.828 90.3256 123.095 89.839 123.095 88.5986C123.095 87.7218 123.04 87.5152 122.733 87.2265C122.25 86.7727 121.781 86.7979 121.387 87.2985ZM75.7662 93.07C75.4577 93.286 75.4187 93.4498 75.4187 94.5308C75.4187 95.8751 75.636 96.2655 76.3838 96.2655C77.0694 96.2655 77.2945 95.83 77.2945 94.5036C77.2945 93.4508 77.2543 93.2852 76.947 93.07C76.756 92.9362 76.4903 92.8266 76.3566 92.8266C76.223 92.8266 75.9572 92.9362 75.7662 93.07ZM79.792 93.2565C79.5017 93.6246 79.4617 93.8402 79.5131 94.7585C79.578 95.9149 79.8142 96.2655 80.5288 96.2655C81.2221 96.2655 81.515 95.7549 81.515 94.5461C81.515 93.6602 81.4555 93.3923 81.2024 93.1392C80.7599 92.6967 80.1964 92.7436 79.792 93.2565ZM84.0161 93.1392C83.7649 93.3904 83.7034 93.6602 83.7034 94.5112C83.7034 95.7542 83.969 96.2668 84.6112 96.2632C85.4107 96.2587 85.7355 95.7491 85.7355 94.4993C85.7355 93.0797 84.8087 92.3466 84.0161 93.1392ZM94.524 93.07C94.2155 93.286 94.1765 93.4498 94.1765 94.5308C94.1765 95.8751 94.3938 96.2655 95.1416 96.2655C95.8272 96.2655 96.0523 95.83 96.0523 94.5036C96.0523 93.4508 96.0122 93.2852 95.7048 93.07C95.5138 92.9362 95.2481 92.8266 95.1144 92.8266C94.9808 92.8266 94.715 92.9362 94.524 93.07ZM98.5648 93.2385C98.314 93.5572 98.2407 93.8755 98.2407 94.6453C98.2407 95.7638 98.5554 96.2655 99.2568 96.2655C99.9797 96.2655 100.273 95.7697 100.273 94.5461C100.273 93.6602 100.213 93.3923 99.9602 93.1392C99.5239 92.703 98.954 92.7435 98.5648 93.2385ZM102.774 93.1392C102.518 93.3951 102.461 93.6602 102.461 94.6C102.461 95.876 102.69 96.2655 103.439 96.2655C104.092 96.2655 104.493 95.6109 104.493 94.5461C104.493 93.0797 103.58 92.3327 102.774 93.1392ZM113.091 93.1392C112.835 93.3951 112.778 93.6602 112.778 94.6C112.778 95.876 113.007 96.2655 113.756 96.2655C114.409 96.2655 114.81 95.6109 114.81 94.5461C114.81 93.0797 113.897 92.3327 113.091 93.1392ZM117.289 93.1255C116.965 93.3878 116.92 93.5572 116.92 94.5159C116.92 95.7592 117.214 96.2655 117.936 96.2655C118.65 96.2655 118.874 95.8435 118.874 94.5036C118.874 93.4508 118.834 93.2852 118.527 93.07C118.068 92.7481 117.737 92.763 117.289 93.1255ZM121.375 93.1392C121.122 93.3923 121.063 93.6602 121.063 94.5461C121.063 95.7697 121.356 96.2655 122.079 96.2655C122.802 96.2655 123.095 95.7697 123.095 94.5461C123.095 93.3224 122.802 92.8266 122.079 92.8266C121.864 92.8266 121.547 92.9673 121.375 93.1392ZM75.6774 99.2088C75.485 99.4214 75.4187 99.7956 75.4187 100.67C75.4187 101.968 75.6431 102.362 76.3838 102.362C77.0694 102.362 77.2945 101.926 77.2945 100.6C77.2945 99.5471 77.2543 99.3815 76.947 99.1663C76.4847 98.8422 75.9941 98.8588 75.6774 99.2088ZM80.0144 99.0425C79.4012 99.4519 79.2716 101.269 79.807 101.95C80.1962 102.445 80.7661 102.485 81.2024 102.049C81.4555 101.796 81.515 101.528 81.515 100.642C81.515 99.7565 81.4555 99.4886 81.2024 99.2355C80.8873 98.9204 80.3322 98.8302 80.0144 99.0425ZM84.0161 99.2355C83.763 99.4886 83.7034 99.7565 83.7034 100.642C83.7034 101.528 83.763 101.796 84.0161 102.049C84.8227 102.856 85.7355 102.109 85.7355 100.642C85.7355 99.176 84.8227 98.4289 84.0161 99.2355ZM94.4352 99.2088C94.2428 99.4214 94.1765 99.7956 94.1765 100.67C94.1765 101.968 94.4009 102.362 95.1416 102.362C95.8272 102.362 96.0523 101.926 96.0523 100.6C96.0523 99.5471 96.0122 99.3815 95.7048 99.1663C95.2425 98.8422 94.7519 98.8588 94.4352 99.2088ZM98.6372 99.1339C98.3239 99.3629 98.1219 100.773 98.3004 101.484C98.5173 102.348 99.3709 102.639 99.9602 102.049C100.213 101.796 100.273 101.528 100.273 100.642C100.273 99.7565 100.213 99.4886 99.9602 99.2355C99.5982 98.8735 99.0508 98.8316 98.6372 99.1339ZM102.72 99.2088C102.318 99.6527 102.356 101.631 102.774 102.049C103.58 102.856 104.493 102.109 104.493 100.642C104.493 99.9729 104.412 99.6426 104.169 99.3348C103.784 98.8447 103.103 98.7855 102.72 99.2088ZM113.126 99.1663C112.819 99.3806 112.778 99.548 112.778 100.573C112.778 101.528 112.834 101.793 113.091 102.049C113.897 102.856 114.81 102.109 114.81 100.642C114.81 99.205 114.037 98.5277 113.126 99.1663ZM117.218 99.2519C116.987 99.5075 116.92 99.818 116.92 100.642C116.92 101.467 116.987 101.777 117.218 102.033C117.571 102.423 118.048 102.454 118.527 102.118C118.836 101.902 118.874 101.739 118.874 100.642C118.874 99.5457 118.836 99.3828 118.527 99.1663C118.048 98.8305 117.571 98.8618 117.218 99.2519ZM121.375 99.2355C121.122 99.4886 121.063 99.7565 121.063 100.642C121.063 101.866 121.356 102.362 122.079 102.362C122.802 102.362 123.095 101.866 123.095 100.642C123.095 99.4187 122.802 98.9229 122.079 98.9229C121.864 98.9229 121.547 99.0636 121.375 99.2355ZM75.6706 105.313C75.4583 105.547 75.4142 105.853 75.4509 106.831C75.4942 107.984 75.5222 108.071 75.9268 108.296C76.3132 108.512 76.4001 108.512 76.7865 108.296C77.191 108.071 77.219 107.984 77.2623 106.831C77.3142 105.448 77.0998 105.019 76.3566 105.019C76.1253 105.019 75.8166 105.151 75.6706 105.313ZM79.8706 105.237C79.641 105.404 79.5595 105.699 79.5131 106.526C79.4617 107.445 79.5017 107.66 79.792 108.028C80.1964 108.541 80.7599 108.588 81.2024 108.145C81.4555 107.892 81.515 107.624 81.515 106.739C81.515 105.853 81.4555 105.585 81.2024 105.332C80.8379 104.967 80.2923 104.928 79.8706 105.237ZM84.0161 105.332C83.763 105.585 83.7034 105.853 83.7034 106.739C83.7034 107.624 83.763 107.892 84.0161 108.145C84.4523 108.582 85.0223 108.541 85.4115 108.046C85.9469 107.366 85.8173 105.548 85.2041 105.139C84.8863 104.926 84.3312 105.017 84.0161 105.332ZM94.4284 105.313C94.2161 105.547 94.172 105.853 94.2087 106.831C94.252 107.984 94.28 108.071 94.6846 108.296C95.071 108.512 95.1579 108.512 95.5443 108.296C95.9488 108.071 95.9768 107.984 96.0201 106.831C96.072 105.448 95.8576 105.019 95.1144 105.019C94.8831 105.019 94.5744 105.151 94.4284 105.313ZM98.5534 105.332C98.0999 105.785 98.1069 107.464 98.5648 108.046C98.954 108.541 99.5239 108.582 99.9602 108.145C100.213 107.892 100.273 107.624 100.273 106.739C100.273 105.515 99.9797 105.019 99.2568 105.019C99.0419 105.019 98.7253 105.16 98.5534 105.332ZM102.809 105.263C102.503 105.477 102.461 105.644 102.461 106.669C102.461 107.624 102.517 107.889 102.774 108.145C103.192 108.564 103.645 108.54 104.11 108.074C104.43 107.754 104.493 107.539 104.493 106.767C104.493 105.301 103.729 104.618 102.809 105.263ZM113.037 105.305C112.635 105.749 112.673 107.727 113.091 108.145C113.509 108.564 113.961 108.54 114.426 108.074C114.947 107.554 114.98 106.059 114.486 105.431C114.101 104.941 113.42 104.882 113.037 105.305ZM117.228 105.338C116.861 105.743 116.742 107.278 117.034 107.83C117.332 108.393 117.966 108.577 118.471 108.246C118.848 107.999 118.874 107.901 118.874 106.759C118.874 105.773 118.819 105.487 118.588 105.278C118.199 104.925 117.576 104.953 117.228 105.338ZM121.375 105.332C120.922 105.785 120.929 107.464 121.387 108.046C121.784 108.551 122.345 108.579 122.776 108.116C123.032 107.841 123.095 107.565 123.095 106.709C123.095 105.517 122.796 105.019 122.079 105.019C121.864 105.019 121.547 105.16 121.375 105.332ZM75.6706 111.409C75.4583 111.644 75.4142 111.949 75.4509 112.928C75.4942 114.081 75.5222 114.167 75.9268 114.393C76.3132 114.608 76.4001 114.608 76.7865 114.393C77.191 114.167 77.219 114.081 77.2623 112.928C77.3142 111.545 77.0998 111.115 76.3566 111.115C76.1253 111.115 75.8166 111.248 75.6706 111.409ZM79.7796 111.369C79.6639 111.509 79.542 112.102 79.509 112.688C79.4539 113.663 79.4825 113.787 79.8495 114.154C80.3333 114.637 80.7163 114.661 81.1729 114.236C81.4595 113.969 81.515 113.746 81.515 112.864C81.515 111.563 81.2576 111.115 80.5093 111.115C80.2211 111.115 79.8965 111.228 79.7796 111.369ZM83.9621 111.401C83.5604 111.845 83.5979 113.824 84.0161 114.242C84.4386 114.664 84.8875 114.635 85.369 114.154C85.7383 113.784 85.7648 113.667 85.7074 112.652C85.6591 111.797 85.5787 111.502 85.3479 111.333C84.9325 111.029 84.2693 111.062 83.9621 111.401ZM94.4284 111.409C94.2161 111.644 94.172 111.949 94.2087 112.928C94.252 114.081 94.28 114.167 94.6846 114.393C95.071 114.608 95.1579 114.608 95.5443 114.393C95.9488 114.167 95.9768 114.081 96.0201 112.928C96.072 111.545 95.8576 111.115 95.1144 111.115C94.8831 111.115 94.5744 111.248 94.4284 111.409ZM98.4841 111.463C98.3261 111.688 98.2407 112.157 98.2407 112.799C98.2407 113.64 98.2979 113.844 98.6245 114.171C99.1045 114.651 99.4964 114.657 99.933 114.193C100.411 113.684 100.429 111.896 99.9602 111.428C99.5353 111.003 98.7938 111.021 98.4841 111.463ZM102.72 111.401C102.318 111.845 102.356 113.824 102.774 114.242C103.192 114.66 103.645 114.636 104.11 114.171C104.426 113.855 104.493 113.633 104.493 112.91C104.493 112.053 104.307 111.466 103.962 111.235C103.645 111.024 102.981 111.112 102.72 111.401ZM113.037 111.401C112.635 111.845 112.673 113.824 113.091 114.242C113.509 114.66 113.961 114.636 114.426 114.171C114.743 113.855 114.81 113.633 114.81 112.91C114.81 112.053 114.624 111.466 114.279 111.235C113.962 111.024 113.298 111.112 113.037 111.401ZM117.25 111.355C116.689 111.917 116.733 113.805 117.319 114.279C117.764 114.64 118.176 114.627 118.562 114.242C119.001 113.803 119.02 111.765 118.588 111.374C118.23 111.05 117.565 111.04 117.25 111.355ZM121.375 111.428C121.126 111.677 121.063 111.949 121.063 112.764C121.063 113.642 121.117 113.841 121.446 114.171C121.658 114.382 121.942 114.554 122.079 114.554C122.216 114.554 122.5 114.382 122.711 114.171C123.04 113.841 123.095 113.642 123.095 112.764C123.095 111.616 122.787 111.115 122.079 111.115C121.864 111.115 121.547 111.256 121.375 111.428ZM75.6584 117.463C75.4598 117.662 75.4162 117.983 75.4517 118.982C75.4946 120.181 75.5199 120.262 75.9268 120.489C76.3132 120.705 76.4001 120.705 76.7865 120.489C77.191 120.263 77.219 120.177 77.2623 119.024C77.2991 118.045 77.255 117.74 77.0427 117.505C76.7171 117.145 75.998 117.124 75.6584 117.463ZM79.7263 117.559C79.5683 117.785 79.4829 118.253 79.4829 118.895C79.4829 119.736 79.5401 119.941 79.8667 120.267C80.3347 120.735 80.5695 120.747 81.1031 120.327C81.475 120.034 81.515 119.901 81.515 118.955C81.515 117.653 81.2576 117.212 80.499 117.212C80.1291 117.212 79.8962 117.316 79.7263 117.559ZM83.9621 117.498C83.6121 117.884 83.5951 119.895 83.9388 120.238C84.5364 120.836 85.4707 120.59 85.6736 119.782C85.854 119.063 85.6541 117.653 85.3391 117.423C84.9316 117.125 84.2668 117.161 83.9621 117.498ZM94.4221 117.457C94.2405 117.639 94.1765 118.023 94.1765 118.934C94.1765 120.028 94.215 120.191 94.524 120.407C94.9916 120.735 95.3641 120.714 95.7397 120.338C96.1789 119.899 96.1979 117.861 95.7664 117.47C95.4053 117.144 94.7424 117.137 94.4221 117.457ZM98.4841 117.559C98.3261 117.785 98.2407 118.253 98.2407 118.895C98.2407 119.736 98.2979 119.941 98.6245 120.267C99.0925 120.735 99.3273 120.747 99.8609 120.327C100.233 120.034 100.273 119.901 100.273 118.955C100.273 117.653 100.015 117.212 99.2568 117.212C98.8869 117.212 98.654 117.316 98.4841 117.559ZM102.72 117.498C102.401 117.85 102.355 119.827 102.657 120.221C102.981 120.646 103.605 120.709 104.034 120.362C104.378 120.083 104.415 119.936 104.415 118.854C104.415 117.848 104.366 117.62 104.112 117.434C103.691 117.126 103.029 117.156 102.72 117.498ZM113.037 117.498C112.718 117.85 112.672 119.827 112.973 120.221C113.298 120.646 113.921 120.709 114.351 120.362C114.695 120.083 114.732 119.936 114.732 118.854C114.732 117.848 114.683 117.62 114.429 117.434C114.008 117.126 113.346 117.156 113.037 117.498ZM117.224 117.434C116.969 117.62 116.92 117.848 116.92 118.854C116.92 119.935 116.958 120.082 117.301 120.361C117.731 120.709 118.355 120.646 118.679 120.221C118.793 120.072 118.874 119.501 118.874 118.847C118.874 117.963 118.815 117.675 118.588 117.47C118.238 117.153 117.63 117.137 117.224 117.434ZM121.306 117.559C121.148 117.785 121.063 118.253 121.063 118.895C121.063 119.736 121.12 119.941 121.446 120.267C121.658 120.478 121.942 120.651 122.079 120.651C122.216 120.651 122.5 120.478 122.711 120.267C123.038 119.941 123.095 119.736 123.095 118.895C123.095 117.657 122.826 117.212 122.079 117.212C121.709 117.212 121.476 117.316 121.306 117.559ZM75.6643 123.554C75.483 123.735 75.4187 124.119 75.4187 125.02C75.4187 126.387 75.5715 126.643 76.3871 126.643C77.0899 126.643 77.2945 126.257 77.2945 124.931C77.2945 123.655 77.0937 123.308 76.3566 123.308C76.1111 123.308 75.7995 123.419 75.6643 123.554ZM79.7263 123.656C79.5683 123.881 79.4829 124.35 79.4829 124.991C79.4829 125.832 79.5401 126.037 79.8667 126.363C80.3347 126.831 80.5695 126.843 81.1031 126.423C81.475 126.131 81.515 125.997 81.515 125.051C81.515 123.75 81.2576 123.308 80.499 123.308C80.1291 123.308 79.8962 123.413 79.7263 123.656ZM83.969 123.586C83.7716 123.804 83.7034 124.165 83.7034 124.989C83.7034 126.002 83.7394 126.127 84.1153 126.423C84.649 126.843 84.8838 126.831 85.3518 126.363C85.6718 126.043 85.7352 125.829 85.7332 125.074C85.7301 123.844 85.4868 123.399 84.7861 123.339C84.4017 123.307 84.1541 123.382 83.969 123.586ZM94.3383 123.61C94.0729 124.107 94.1329 126.203 94.4193 126.441C94.7816 126.742 95.5923 126.691 95.8401 126.352C96.1513 125.927 96.1267 123.874 95.8068 123.554C95.4515 123.198 94.54 123.234 94.3383 123.61ZM98.4841 123.656C98.3261 123.881 98.2407 124.35 98.2407 124.991C98.2407 125.832 98.2979 126.037 98.6245 126.363C98.8355 126.574 99.12 126.747 99.2568 126.747C99.3936 126.747 99.6781 126.574 99.8891 126.363C100.216 126.037 100.273 125.832 100.273 124.991C100.273 123.753 100.004 123.308 99.2568 123.308C98.8869 123.308 98.654 123.413 98.4841 123.656ZM102.72 123.594C102.37 123.981 102.353 125.991 102.697 126.335C103.354 126.992 104.248 126.675 104.427 125.722C104.562 125.004 104.431 123.844 104.181 123.543C103.909 123.216 103.034 123.246 102.72 123.594ZM113.037 123.594C112.687 123.981 112.67 125.991 113.013 126.335C113.671 126.992 114.565 126.675 114.744 125.722C114.879 125.004 114.747 123.844 114.498 123.543C114.226 123.216 113.351 123.246 113.037 123.594ZM117.144 123.556C116.874 123.881 116.77 125.458 116.982 126.007C117.192 126.549 117.822 126.818 118.298 126.567C118.814 126.296 118.869 126.138 118.872 124.935C118.874 124.056 118.815 123.772 118.588 123.567C118.226 123.238 117.412 123.232 117.144 123.556ZM121.306 123.656C121.148 123.881 121.063 124.35 121.063 124.991C121.063 125.832 121.12 126.037 121.446 126.363C121.658 126.574 121.942 126.747 122.079 126.747C122.216 126.747 122.5 126.574 122.711 126.363C123.038 126.037 123.095 125.832 123.095 124.991C123.095 123.753 122.826 123.308 122.079 123.308C121.709 123.308 121.476 123.413 121.306 123.656Z" stroke="black" stroke-width="0.490911" mask="url(#path-2-outside-1_1854_1228)"/>
</svg>
