<svg width="160" height="160" viewBox="0 0 160 160" fill="none" xmlns="http://www.w3.org/2000/svg">
<rect width="160" height="160" rx="12.4138" fill="white"/>
<mask id="path-2-outside-1_1482_269" maskUnits="userSpaceOnUse" x="54" y="50" width="52" height="60" fill="black">
<rect fill="white" x="54" y="50" width="52" height="60"/>
<path fill-rule="evenodd" clip-rule="evenodd" d="M72.27 51.1227C72.1076 51.2252 72.0694 51.9612 72.0152 56.0276L71.9539 60.6375C71.9525 60.744 71.8905 60.8405 71.7941 60.8861L64.5795 64.297C60.5249 66.2139 57.1003 67.8741 56.9693 67.9862C56.7385 68.1838 56.7312 68.8037 56.7312 87.852V107.265C56.7312 107.407 56.6251 107.526 56.4844 107.542L56.0625 107.592C55.5902 107.647 55.326 107.752 55.163 107.952C54.8996 108.274 54.9632 108.79 55.2978 109.046C55.4628 109.172 60.6598 109.205 80.2941 109.205C107.374 109.205 105.555 109.332 105.555 108.466C105.555 107.907 105.322 107.694 104.608 107.599L104.227 107.549C104.088 107.53 103.984 107.412 103.984 107.272V84.3123C103.984 61.1364 103.984 61.1077 103.725 60.8295C103.582 60.6761 103.348 60.5506 103.205 60.5506C103.062 60.5506 99.8016 62.0408 95.9603 63.8622C92.119 65.6836 88.9428 67.1737 88.902 67.1737C88.8611 67.1737 88.8269 65.8698 88.8258 64.2761C88.8246 62.2148 88.7781 61.2877 88.6648 61.0641C88.451 60.6413 73.2293 50.9973 72.7803 51C72.6047 51.0011 72.3751 51.0563 72.27 51.1227ZM80.4215 57.5277L86.9788 61.6815C87.0594 61.7326 87.1084 61.8214 87.1085 61.9169L87.1405 84.6565L87.1722 107.27C87.1724 107.424 87.0474 107.549 86.8931 107.549H80.3582H73.8228C73.6686 107.549 73.5437 107.424 73.5437 107.27V80.42C73.5437 65.4989 73.5866 53.291 73.6392 53.2912C73.6918 53.2916 76.7438 55.1979 80.4215 57.5277ZM71.8879 85.0689V107.27C71.8879 107.424 71.7629 107.549 71.6088 107.549H65.0733H58.5384C58.384 107.549 58.259 107.424 58.2593 107.27L58.291 88.295L58.3229 69.2166C58.3231 69.1091 58.385 69.0113 58.4821 68.9651L65.0737 65.8279C68.7865 64.0609 71.8386 62.6092 71.856 62.6018C71.8735 62.5945 71.8879 72.7047 71.8879 85.0689ZM102.329 85.1326V107.27C102.329 107.424 102.204 107.549 102.05 107.549H95.5782H89.1068C88.9527 107.549 88.8277 107.424 88.8278 107.27L88.8285 88.2849L88.8293 69.1972C88.8293 69.0893 88.8914 68.9911 88.9889 68.945L95.4834 65.8696C99.1432 64.1367 102.181 62.7182 102.233 62.7173C102.286 62.7165 102.329 72.8034 102.329 85.1326ZM61.2174 70.9384C60.966 71.1144 60.9343 71.2479 60.9343 72.1286C60.9343 73.224 61.1113 73.5421 61.7206 73.5421C62.2793 73.5421 62.4627 73.1873 62.4627 72.1064C62.4627 71.2486 62.43 71.1137 62.1795 70.9384C62.0239 70.8293 61.8074 70.74 61.6985 70.74C61.5896 70.74 61.3731 70.8293 61.2174 70.9384ZM64.5445 71.0666C64.2435 71.3677 64.222 71.4631 64.2688 72.2905C64.3247 73.2805 64.5097 73.5421 65.1545 73.5421C65.6861 73.5421 65.9016 73.1297 65.9016 72.1127C65.9016 71.4193 65.8516 71.1995 65.6469 70.9948C65.3026 70.6505 64.9368 70.6743 64.5445 71.0666ZM67.9395 70.9948C67.7348 71.1995 67.6847 71.4193 67.6847 72.1127C67.6847 73.1255 67.9011 73.5431 68.4244 73.5402C69.0802 73.5364 69.3405 73.1216 69.3405 72.0799C69.3405 71.491 69.2855 71.3103 69.0278 71.0527C68.6489 70.6737 68.2802 70.6541 67.9395 70.9948ZM76.5015 70.9384C76.2501 71.1144 76.2184 71.2479 76.2184 72.1286C76.2184 73.224 76.3954 73.5421 77.0047 73.5421C77.5634 73.5421 77.7468 73.1873 77.7468 72.1064C77.7468 71.2486 77.714 71.1137 77.4636 70.9384C77.308 70.8293 77.0915 70.74 76.9826 70.74C76.8737 70.74 76.6571 70.8293 76.5015 70.9384ZM79.794 71.0757C79.5897 71.3354 79.5299 71.5947 79.5299 72.222C79.5299 73.1582 79.7871 73.5421 80.4142 73.5421C80.9715 73.5421 81.1857 73.1465 81.1857 72.1176C81.1857 71.3988 81.1405 71.2173 80.9069 70.9997C80.5266 70.6454 80.11 70.6738 79.794 71.0757ZM83.2236 70.9948C83.0151 71.2033 82.9688 71.4193 82.9688 72.185C82.9688 73.2152 83.1567 73.5439 83.7431 73.5402C84.3622 73.5363 84.6246 73.1018 84.6246 72.0799C84.6246 71.491 84.5696 71.3103 84.3119 71.0527C83.933 70.6737 83.5643 70.6541 83.2236 70.9948ZM91.6298 70.9948C91.4213 71.2033 91.3751 71.4193 91.3751 72.185C91.3751 73.2152 91.563 73.5439 92.1494 73.5402C92.7685 73.5363 93.0309 73.1018 93.0309 72.0799C93.0309 71.491 92.9758 71.3103 92.7182 71.0527C92.3393 70.6737 91.9705 70.6541 91.6298 70.9948ZM95.051 70.9836C94.787 71.1973 94.7503 71.3354 94.7503 72.1165C94.7503 73.1296 94.9899 73.5421 95.5782 73.5421C96.15 73.5421 96.3424 73.1948 96.3424 72.1629C96.3424 71.4193 96.295 71.2021 96.0877 70.9948C95.7677 70.6748 95.4367 70.6711 95.051 70.9836ZM98.3896 71.0757C98.1853 71.3354 98.1256 71.5947 98.1256 72.222C98.1256 73.1582 98.3827 73.5421 99.0099 73.5421C99.5639 73.5421 99.7813 73.1456 99.7813 72.135C99.7813 71.4206 99.737 71.2522 99.4866 71.0169C99.0929 70.6472 98.7104 70.6677 98.3896 71.0757ZM61.2174 75.7783C60.966 75.9543 60.9343 76.0878 60.9343 76.9686C60.9343 78.0639 61.1113 78.3821 61.7206 78.3821C62.2793 78.3821 62.4627 78.0272 62.4627 76.9464C62.4627 76.0886 62.43 75.9537 62.1795 75.7783C62.0239 75.6693 61.8074 75.58 61.6985 75.58C61.5896 75.58 61.3731 75.6693 61.2174 75.7783ZM64.4976 75.9303C64.2611 76.2302 64.2285 76.4059 64.2704 77.1541C64.3233 78.0964 64.5157 78.3821 65.098 78.3821C65.6629 78.3821 65.9016 77.966 65.9016 76.981C65.9016 76.2592 65.8531 76.0409 65.6469 75.8347C65.2863 75.4742 64.8271 75.5124 64.4976 75.9303ZM67.9395 75.8347C67.7348 76.0394 67.6847 76.2593 67.6847 76.9526C67.6847 77.9655 67.9011 78.3831 68.4244 78.3802C69.0759 78.3765 69.3405 77.9613 69.3405 76.943C69.3405 75.7862 68.5854 75.1889 67.9395 75.8347ZM76.5015 75.7783C76.2501 75.9543 76.2184 76.0878 76.2184 76.9686C76.2184 78.0639 76.3954 78.3821 77.0047 78.3821C77.5634 78.3821 77.7468 78.0272 77.7468 76.9464C77.7468 76.0886 77.714 75.9537 77.4636 75.7783C77.308 75.6693 77.0915 75.58 76.9826 75.58C76.8737 75.58 76.6571 75.6693 76.5015 75.7783ZM79.794 75.9156C79.5897 76.1753 79.5299 76.4346 79.5299 77.0619C79.5299 77.9732 79.7863 78.3821 80.3578 78.3821C80.9469 78.3821 81.1857 77.9781 81.1857 76.981C81.1857 76.2592 81.1372 76.0409 80.931 75.8347C80.5755 75.4792 80.1111 75.5122 79.794 75.9156ZM83.2236 75.8347C83.0151 76.0432 82.9688 76.2592 82.9688 77.025C82.9688 78.0647 83.1552 78.3821 83.7656 78.3821C84.2975 78.3821 84.6246 77.8487 84.6246 76.981C84.6246 75.7862 83.8808 75.1775 83.2236 75.8347ZM91.6298 75.8347C91.4213 76.0432 91.3751 76.2592 91.3751 77.025C91.3751 78.0647 91.5614 78.3821 92.1719 78.3821C92.7038 78.3821 93.0309 77.8487 93.0309 76.981C93.0309 75.7862 92.287 75.1775 91.6298 75.8347ZM95.051 75.8235C94.787 76.0372 94.7503 76.1753 94.7503 76.9565C94.7503 77.9695 94.9899 78.3821 95.5782 78.3821C96.1594 78.3821 96.3424 78.0382 96.3424 76.9464C96.3424 76.0886 96.3097 75.9537 96.0593 75.7783C95.6851 75.5161 95.4157 75.5282 95.051 75.8235ZM98.3803 75.8347C98.1741 76.0409 98.1256 76.2592 98.1256 76.981C98.1256 77.9781 98.3644 78.3821 98.9535 78.3821C99.5425 78.3821 99.7813 77.9781 99.7813 76.981C99.7813 75.984 99.5425 75.58 98.9535 75.58C98.7783 75.58 98.5204 75.6946 98.3803 75.8347ZM61.1451 80.7803C60.9883 80.9535 60.9343 81.2584 60.9343 81.9705C60.9343 83.0288 61.1171 83.3494 61.7206 83.3494C62.2793 83.3494 62.4627 82.9946 62.4627 81.9137C62.4627 81.0559 62.43 80.921 62.1795 80.7456C61.8028 80.4816 61.4031 80.4951 61.1451 80.7803ZM64.6789 80.6448C64.1792 80.9783 64.0736 82.4592 64.5099 83.0138C64.827 83.4172 65.2914 83.4502 65.6469 83.0947C65.8531 82.8885 65.9016 82.6702 65.9016 81.9484C65.9016 81.2266 65.8531 81.0083 65.6469 80.8021C65.3901 80.5453 64.9378 80.4718 64.6789 80.6448ZM67.9395 80.8021C67.7333 81.0083 67.6847 81.2266 67.6847 81.9484C67.6847 82.6702 67.7333 82.8885 67.9395 83.0947C68.5967 83.7519 69.3405 83.1432 69.3405 81.9484C69.3405 80.7535 68.5967 80.1448 67.9395 80.8021ZM76.4292 80.7803C76.2724 80.9535 76.2184 81.2584 76.2184 81.9705C76.2184 83.0288 76.4011 83.3494 77.0047 83.3494C77.5634 83.3494 77.7468 82.9946 77.7468 81.9137C77.7468 81.0559 77.714 80.921 77.4636 80.7456C77.0869 80.4816 76.6872 80.4951 76.4292 80.7803ZM79.8529 80.7193C79.5977 80.9059 79.4331 82.0547 79.5786 82.6341C79.7552 83.3381 80.4508 83.5749 80.931 83.0947C81.1372 82.8885 81.1857 82.6702 81.1857 81.9484C81.1857 81.2266 81.1372 81.0083 80.931 80.8021C80.636 80.5071 80.1899 80.4729 79.8529 80.7193ZM83.1796 80.7803C82.8523 81.142 82.8829 82.754 83.2236 83.0947C83.8808 83.7519 84.6246 83.1432 84.6246 81.9484C84.6246 81.4029 84.558 81.1337 84.3606 80.8829C84.0466 80.4836 83.4917 80.4354 83.1796 80.7803ZM91.6582 80.7456C91.4087 80.9203 91.3751 81.0567 91.3751 81.8919C91.3751 82.6702 91.4207 82.8855 91.6298 83.0947C92.287 83.7519 93.0309 83.1432 93.0309 81.9484C93.0309 80.7772 92.401 80.2253 91.6582 80.7456ZM94.993 80.8154C94.8045 81.0237 94.7503 81.2766 94.7503 81.9484C94.7503 82.6201 94.8045 82.8731 94.993 83.0813C95.2807 83.3992 95.6689 83.4247 96.0593 83.1511C96.3112 82.9747 96.3424 82.842 96.3424 81.9484C96.3424 81.0548 96.3112 80.922 96.0593 80.7456C95.6689 80.4721 95.2807 80.4975 94.993 80.8154ZM98.3803 80.8021C98.1741 81.0083 98.1256 81.2266 98.1256 81.9484C98.1256 82.9454 98.3644 83.3494 98.9535 83.3494C99.5425 83.3494 99.7813 82.9454 99.7813 81.9484C99.7813 80.9513 99.5425 80.5473 98.9535 80.5473C98.7783 80.5473 98.5204 80.662 98.3803 80.8021ZM61.1395 85.7539C60.9665 85.9449 60.9306 86.1938 60.9605 86.9912C60.9958 87.9307 61.0186 88.001 61.3482 88.1849C61.6631 88.3607 61.7339 88.3607 62.0487 88.1849C62.3784 88.001 62.4012 87.9307 62.4364 86.9912C62.4787 85.8643 62.304 85.5147 61.6985 85.5147C61.51 85.5147 61.2584 85.6223 61.1395 85.7539ZM64.5617 85.6918C64.3746 85.8286 64.3082 86.0682 64.2704 86.7426C64.2285 87.4909 64.2611 87.6665 64.4976 87.9665C64.8271 88.3844 65.2863 88.4226 65.6469 88.062C65.8531 87.8558 65.9016 87.6375 65.9016 86.9157C65.9016 86.1939 65.8531 85.9756 65.6469 85.7694C65.3498 85.4724 64.9053 85.4405 64.5617 85.6918ZM67.9395 85.7694C67.7333 85.9756 67.6847 86.1939 67.6847 86.9157C67.6847 87.6375 67.7333 87.8558 67.9395 88.062C68.295 88.4175 68.7593 88.3845 69.0765 87.9811C69.5127 87.4266 69.4071 85.9457 68.9075 85.6121C68.6485 85.4391 68.1963 85.5126 67.9395 85.7694ZM76.4236 85.7539C76.2506 85.9449 76.2147 86.1938 76.2446 86.9912C76.2799 87.9307 76.3027 88.001 76.6323 88.1849C76.9472 88.3607 77.018 88.3607 77.3328 88.1849C77.6625 88.001 77.6853 87.9307 77.7205 86.9912C77.7628 85.8643 77.5881 85.5147 76.9826 85.5147C76.7941 85.5147 76.5425 85.6223 76.4236 85.7539ZM79.7847 85.7694C79.4152 86.1389 79.4209 87.5071 79.794 87.9811C80.1111 88.3845 80.5755 88.4175 80.931 88.062C81.1372 87.8558 81.1857 87.6375 81.1857 86.9157C81.1857 85.9187 80.9469 85.5147 80.3578 85.5147C80.1827 85.5147 79.9248 85.6293 79.7847 85.7694ZM83.252 85.713C83.0025 85.8876 82.9688 86.024 82.9688 86.8593C82.9688 87.6375 83.0144 87.8529 83.2236 88.062C83.5643 88.4027 83.933 88.3831 84.3119 88.0041C84.5734 87.7427 84.6246 87.5681 84.6246 86.9386C84.6246 85.7439 84.0017 85.1877 83.252 85.713ZM91.5859 85.7476C91.2586 86.1093 91.2891 87.7213 91.6298 88.062C91.9705 88.4027 92.3393 88.3831 92.7182 88.0041C93.1421 87.5803 93.1696 86.3622 92.7668 85.8503C92.4529 85.451 91.8979 85.4027 91.5859 85.7476ZM95.0007 85.7741C94.7022 86.1041 94.6051 87.3549 94.8432 87.8051C95.0858 88.264 95.6027 88.4134 96.0142 88.1439C96.3206 87.943 96.3424 87.8627 96.3424 86.9325C96.3424 86.1291 96.2973 85.8955 96.1095 85.7255C95.7921 85.4381 95.2846 85.4604 95.0007 85.7741ZM98.3803 85.7694C98.0108 86.1389 98.0165 87.5071 98.3896 87.9811C98.7132 88.3925 99.17 88.4154 99.5216 88.0379C99.7303 87.814 99.7813 87.5887 99.7813 86.8916C99.7813 85.9202 99.5376 85.5147 98.9535 85.5147C98.7783 85.5147 98.5204 85.6293 98.3803 85.7694ZM61.1395 90.7212C60.9665 90.9122 60.9306 91.1611 60.9605 91.9586C60.9958 92.898 61.0186 92.9683 61.3482 93.1522C61.6631 93.328 61.7339 93.328 62.0487 93.1522C62.3784 92.9683 62.4012 92.898 62.4364 91.9586C62.4787 90.8316 62.304 90.482 61.6985 90.482C61.51 90.482 61.2584 90.5896 61.1395 90.7212ZM64.4876 90.6887C64.3933 90.8023 64.294 91.2858 64.2671 91.7632C64.2221 92.558 64.2454 92.6584 64.5445 92.9575C64.9387 93.3517 65.2508 93.3711 65.6228 93.0244C65.8564 92.8068 65.9016 92.6253 65.9016 91.9065C65.9016 90.8466 65.6918 90.482 65.0821 90.482C64.8473 90.482 64.5828 90.5739 64.4876 90.6887ZM67.8955 90.7149C67.5682 91.0767 67.5988 92.6886 67.9395 93.0293C68.2838 93.3736 68.6496 93.3498 69.0418 92.9575C69.3428 92.6564 69.3643 92.561 69.3176 91.7336C69.2782 91.0371 69.2128 90.7967 69.0247 90.6592C68.6862 90.4117 68.1458 90.4383 67.8955 90.7149ZM76.4236 90.7212C76.2506 90.9122 76.2147 91.1611 76.2446 91.9586C76.2799 92.898 76.3027 92.9683 76.6323 93.1522C76.9472 93.328 77.018 93.328 77.3328 93.1522C77.6625 92.9683 77.6853 92.898 77.7205 91.9586C77.7628 90.8316 77.5881 90.482 76.9826 90.482C76.7941 90.482 76.5425 90.5896 76.4236 90.7212ZM79.7282 90.7651C79.5995 90.9488 79.5299 91.3308 79.5299 91.8535C79.5299 92.5387 79.5765 92.7054 79.8426 92.9714C80.2337 93.3625 80.5531 93.3679 80.9088 92.9893C81.2983 92.5748 81.3126 91.1183 80.931 90.7367C80.5848 90.3905 79.9805 90.4048 79.7282 90.7651ZM83.1796 90.7149C82.8523 91.0767 82.8829 92.6886 83.2236 93.0293C83.5643 93.37 83.933 93.3504 84.3119 92.9714C84.5696 92.7138 84.6246 92.5331 84.6246 91.9442C84.6246 91.2456 84.4729 90.7673 84.1916 90.5794C83.9336 90.4072 83.3926 90.4796 83.1796 90.7149ZM91.5859 90.7149C91.2586 91.0767 91.2891 92.6886 91.6298 93.0293C91.9705 93.37 92.3393 93.3504 92.7182 92.9714C92.9758 92.7138 93.0309 92.5331 93.0309 91.9442C93.0309 91.2456 92.8792 90.7673 92.5978 90.5794C92.3399 90.4072 91.7988 90.4796 91.5859 90.7149ZM95.0192 90.6771C94.5616 91.1347 94.5975 92.6733 95.0749 93.0599C95.4376 93.3536 95.7735 93.3436 96.0877 93.0293C96.4456 92.6714 96.461 91.0109 96.1095 90.6928C95.8174 90.4285 95.2756 90.4207 95.0192 90.6771ZM98.3803 90.7367C98.1774 90.9396 98.1256 91.1612 98.1256 91.8251C98.1256 92.5405 98.1699 92.7031 98.4383 92.9714C98.6102 93.1433 98.842 93.2841 98.9535 93.2841C99.0649 93.2841 99.2967 93.1433 99.4686 92.9714C99.737 92.7031 99.7813 92.5405 99.7813 91.8251C99.7813 90.8896 99.5302 90.482 98.9535 90.482C98.7783 90.482 98.5204 90.5966 98.3803 90.7367ZM61.1295 95.6544C60.9678 95.8161 60.9322 96.0774 60.9612 96.8918C60.996 97.8688 61.0167 97.9345 61.3482 98.1196C61.6631 98.2953 61.7339 98.2953 62.0487 98.1196C62.3784 97.9357 62.4012 97.8653 62.4364 96.9259C62.4664 96.1284 62.4305 95.8796 62.2575 95.6885C61.9922 95.3952 61.4063 95.3775 61.1295 95.6544ZM64.4441 95.7325C64.3154 95.9161 64.2458 96.2981 64.2458 96.8208C64.2458 97.506 64.2924 97.6728 64.5585 97.9387C64.9399 98.3202 65.1312 98.3295 65.566 97.9874C65.869 97.7492 65.9016 97.6403 65.9016 96.8695C65.9016 95.8091 65.6918 95.4493 65.0737 95.4493C64.7724 95.4493 64.5826 95.5347 64.4441 95.7325ZM67.8955 95.6823C67.6104 95.9974 67.5965 97.6354 67.8766 97.9155C68.3635 98.4025 69.1248 98.202 69.2901 97.5434C69.4371 96.9579 69.2742 95.8089 69.0175 95.6213C68.6855 95.3785 68.1438 95.4079 67.8955 95.6823ZM76.4185 95.6494C76.2705 95.7975 76.2184 96.1106 76.2184 96.8523C76.2184 97.744 76.2497 97.8768 76.5015 98.0531C76.8825 98.3199 77.186 98.3027 77.492 97.9967C77.8499 97.6388 77.8654 95.9783 77.5138 95.6601C77.2196 95.3939 76.6794 95.3886 76.4185 95.6494ZM79.7282 95.7325C79.5995 95.9161 79.5299 96.2981 79.5299 96.8208C79.5299 97.506 79.5765 97.6728 79.8426 97.9387C80.2239 98.3202 80.4153 98.3295 80.8501 97.9874C81.1531 97.7492 81.1857 97.6403 81.1857 96.8695C81.1857 95.8091 80.9759 95.4493 80.3578 95.4493C80.0565 95.4493 79.8667 95.5347 79.7282 95.7325ZM83.1796 95.6823C82.9197 95.9695 82.8822 97.5799 83.128 97.9017C83.3922 98.2476 83.9005 98.2992 84.2505 98.0158C84.5306 97.7889 84.5609 97.6691 84.5609 96.7877C84.5609 95.9677 84.5212 95.7819 84.3137 95.6301C83.9708 95.3794 83.4313 95.4042 83.1796 95.6823ZM91.5859 95.6823C91.3259 95.9695 91.2885 97.5799 91.5343 97.9017C91.7985 98.2476 92.3068 98.2992 92.6568 98.0158C92.9369 97.7889 92.9672 97.6691 92.9672 96.7877C92.9672 95.9677 92.9274 95.7819 92.72 95.6301C92.3771 95.3794 91.8376 95.4042 91.5859 95.6823ZM94.9975 95.6301C94.7901 95.7819 94.7503 95.9677 94.7503 96.7873C94.7503 97.6684 94.7806 97.7884 95.0607 98.0155C95.4107 98.2992 95.9189 98.2477 96.1832 97.9017C96.2763 97.7798 96.3424 97.315 96.3424 96.7821C96.3424 96.0611 96.2938 95.827 96.1095 95.6601C95.8238 95.4016 95.3284 95.3882 94.9975 95.6301ZM98.3239 95.7325C98.1951 95.9161 98.1256 96.2981 98.1256 96.8208C98.1256 97.506 98.1722 97.6728 98.4383 97.9387C98.6102 98.1107 98.842 98.2514 98.9535 98.2514C99.0649 98.2514 99.2967 98.1107 99.4686 97.9387C99.7347 97.6728 99.7813 97.506 99.7813 96.8208C99.7813 95.8122 99.5623 95.4493 98.9535 95.4493C98.6521 95.4493 98.4623 95.5347 98.3239 95.7325ZM61.1344 100.617C60.9866 100.765 60.9343 101.077 60.9343 101.811C60.9343 102.925 61.0587 103.134 61.7233 103.134C62.296 103.134 62.4627 102.819 62.4627 101.739C62.4627 100.7 62.299 100.417 61.6985 100.417C61.4984 100.417 61.2445 100.507 61.1344 100.617ZM64.4441 100.7C64.3154 100.883 64.2458 101.265 64.2458 101.788C64.2458 102.473 64.2924 102.64 64.5585 102.906C64.9399 103.288 65.1312 103.297 65.566 102.955C65.869 102.717 65.9016 102.608 65.9016 101.837C65.9016 100.776 65.6918 100.417 65.0737 100.417C64.7724 100.417 64.5826 100.502 64.4441 100.7ZM67.9011 100.643C67.7403 100.821 67.6847 101.115 67.6847 101.787C67.6847 102.612 67.714 102.714 68.0204 102.955C68.4552 103.297 68.6465 103.288 69.0278 102.906C69.2886 102.645 69.3403 102.471 69.3386 101.855C69.3361 100.854 69.1379 100.491 68.5669 100.442C68.2537 100.416 68.052 100.477 67.9011 100.643ZM76.3502 100.663C76.1339 101.067 76.1828 102.776 76.4162 102.97C76.7114 103.215 77.3719 103.173 77.5738 102.897C77.8274 102.55 77.8074 100.878 77.5467 100.617C77.2572 100.327 76.5145 100.356 76.3502 100.663ZM79.7282 100.7C79.5995 100.883 79.5299 101.265 79.5299 101.788C79.5299 102.473 79.5765 102.64 79.8426 102.906C80.0146 103.078 80.2464 103.219 80.3578 103.219C80.4693 103.219 80.7011 103.078 80.873 102.906C81.1391 102.64 81.1857 102.473 81.1857 101.788C81.1857 100.78 80.9666 100.417 80.3578 100.417C80.0565 100.417 79.8667 100.502 79.7282 100.7ZM83.1796 100.65C82.8945 100.965 82.8806 102.603 83.1607 102.883C83.6961 103.418 84.425 103.16 84.5706 102.384C84.6804 101.799 84.5735 100.853 84.3699 100.608C84.1488 100.341 83.4359 100.366 83.1796 100.65ZM91.5859 100.65C91.3007 100.965 91.2868 102.603 91.5669 102.883C92.1024 103.418 92.8313 103.16 92.9769 102.384C93.0867 101.799 92.9798 100.853 92.7761 100.608C92.555 100.341 91.8422 100.366 91.5859 100.65ZM94.9325 100.618C94.7124 100.884 94.6275 102.168 94.8006 102.616C94.9713 103.058 95.4854 103.276 95.8731 103.072C96.2931 102.851 96.3383 102.722 96.3405 101.742C96.342 101.026 96.2939 100.794 96.1095 100.627C95.814 100.36 95.1513 100.355 94.9325 100.618ZM98.3239 100.7C98.1951 100.883 98.1256 101.265 98.1256 101.788C98.1256 102.473 98.1722 102.64 98.4383 102.906C98.6102 103.078 98.842 103.219 98.9535 103.219C99.0649 103.219 99.2967 103.078 99.4686 102.906C99.7347 102.64 99.7813 102.473 99.7813 101.788C99.7813 100.78 99.5623 100.417 98.9535 100.417C98.6521 100.417 98.4623 100.502 98.3239 100.7Z"/>
</mask>
<path fill-rule="evenodd" clip-rule="evenodd" d="M72.27 51.1227C72.1076 51.2252 72.0694 51.9612 72.0152 56.0276L71.9539 60.6375C71.9525 60.744 71.8905 60.8405 71.7941 60.8861L64.5795 64.297C60.5249 66.2139 57.1003 67.8741 56.9693 67.9862C56.7385 68.1838 56.7312 68.8037 56.7312 87.852V107.265C56.7312 107.407 56.6251 107.526 56.4844 107.542L56.0625 107.592C55.5902 107.647 55.326 107.752 55.163 107.952C54.8996 108.274 54.9632 108.79 55.2978 109.046C55.4628 109.172 60.6598 109.205 80.2941 109.205C107.374 109.205 105.555 109.332 105.555 108.466C105.555 107.907 105.322 107.694 104.608 107.599L104.227 107.549C104.088 107.53 103.984 107.412 103.984 107.272V84.3123C103.984 61.1364 103.984 61.1077 103.725 60.8295C103.582 60.6761 103.348 60.5506 103.205 60.5506C103.062 60.5506 99.8016 62.0408 95.9603 63.8622C92.119 65.6836 88.9428 67.1737 88.902 67.1737C88.8611 67.1737 88.8269 65.8698 88.8258 64.2761C88.8246 62.2148 88.7781 61.2877 88.6648 61.0641C88.451 60.6413 73.2293 50.9973 72.7803 51C72.6047 51.0011 72.3751 51.0563 72.27 51.1227ZM80.4215 57.5277L86.9788 61.6815C87.0594 61.7326 87.1084 61.8214 87.1085 61.9169L87.1405 84.6565L87.1722 107.27C87.1724 107.424 87.0474 107.549 86.8931 107.549H80.3582H73.8228C73.6686 107.549 73.5437 107.424 73.5437 107.27V80.42C73.5437 65.4989 73.5866 53.291 73.6392 53.2912C73.6918 53.2916 76.7438 55.1979 80.4215 57.5277ZM71.8879 85.0689V107.27C71.8879 107.424 71.7629 107.549 71.6088 107.549H65.0733H58.5384C58.384 107.549 58.259 107.424 58.2593 107.27L58.291 88.295L58.3229 69.2166C58.3231 69.1091 58.385 69.0113 58.4821 68.9651L65.0737 65.8279C68.7865 64.0609 71.8386 62.6092 71.856 62.6018C71.8735 62.5945 71.8879 72.7047 71.8879 85.0689ZM102.329 85.1326V107.27C102.329 107.424 102.204 107.549 102.05 107.549H95.5782H89.1068C88.9527 107.549 88.8277 107.424 88.8278 107.27L88.8285 88.2849L88.8293 69.1972C88.8293 69.0893 88.8914 68.9911 88.9889 68.945L95.4834 65.8696C99.1432 64.1367 102.181 62.7182 102.233 62.7173C102.286 62.7165 102.329 72.8034 102.329 85.1326ZM61.2174 70.9384C60.966 71.1144 60.9343 71.2479 60.9343 72.1286C60.9343 73.224 61.1113 73.5421 61.7206 73.5421C62.2793 73.5421 62.4627 73.1873 62.4627 72.1064C62.4627 71.2486 62.43 71.1137 62.1795 70.9384C62.0239 70.8293 61.8074 70.74 61.6985 70.74C61.5896 70.74 61.3731 70.8293 61.2174 70.9384ZM64.5445 71.0666C64.2435 71.3677 64.222 71.4631 64.2688 72.2905C64.3247 73.2805 64.5097 73.5421 65.1545 73.5421C65.6861 73.5421 65.9016 73.1297 65.9016 72.1127C65.9016 71.4193 65.8516 71.1995 65.6469 70.9948C65.3026 70.6505 64.9368 70.6743 64.5445 71.0666ZM67.9395 70.9948C67.7348 71.1995 67.6847 71.4193 67.6847 72.1127C67.6847 73.1255 67.9011 73.5431 68.4244 73.5402C69.0802 73.5364 69.3405 73.1216 69.3405 72.0799C69.3405 71.491 69.2855 71.3103 69.0278 71.0527C68.6489 70.6737 68.2802 70.6541 67.9395 70.9948ZM76.5015 70.9384C76.2501 71.1144 76.2184 71.2479 76.2184 72.1286C76.2184 73.224 76.3954 73.5421 77.0047 73.5421C77.5634 73.5421 77.7468 73.1873 77.7468 72.1064C77.7468 71.2486 77.714 71.1137 77.4636 70.9384C77.308 70.8293 77.0915 70.74 76.9826 70.74C76.8737 70.74 76.6571 70.8293 76.5015 70.9384ZM79.794 71.0757C79.5897 71.3354 79.5299 71.5947 79.5299 72.222C79.5299 73.1582 79.7871 73.5421 80.4142 73.5421C80.9715 73.5421 81.1857 73.1465 81.1857 72.1176C81.1857 71.3988 81.1405 71.2173 80.9069 70.9997C80.5266 70.6454 80.11 70.6738 79.794 71.0757ZM83.2236 70.9948C83.0151 71.2033 82.9688 71.4193 82.9688 72.185C82.9688 73.2152 83.1567 73.5439 83.7431 73.5402C84.3622 73.5363 84.6246 73.1018 84.6246 72.0799C84.6246 71.491 84.5696 71.3103 84.3119 71.0527C83.933 70.6737 83.5643 70.6541 83.2236 70.9948ZM91.6298 70.9948C91.4213 71.2033 91.3751 71.4193 91.3751 72.185C91.3751 73.2152 91.563 73.5439 92.1494 73.5402C92.7685 73.5363 93.0309 73.1018 93.0309 72.0799C93.0309 71.491 92.9758 71.3103 92.7182 71.0527C92.3393 70.6737 91.9705 70.6541 91.6298 70.9948ZM95.051 70.9836C94.787 71.1973 94.7503 71.3354 94.7503 72.1165C94.7503 73.1296 94.9899 73.5421 95.5782 73.5421C96.15 73.5421 96.3424 73.1948 96.3424 72.1629C96.3424 71.4193 96.295 71.2021 96.0877 70.9948C95.7677 70.6748 95.4367 70.6711 95.051 70.9836ZM98.3896 71.0757C98.1853 71.3354 98.1256 71.5947 98.1256 72.222C98.1256 73.1582 98.3827 73.5421 99.0099 73.5421C99.5639 73.5421 99.7813 73.1456 99.7813 72.135C99.7813 71.4206 99.737 71.2522 99.4866 71.0169C99.0929 70.6472 98.7104 70.6677 98.3896 71.0757ZM61.2174 75.7783C60.966 75.9543 60.9343 76.0878 60.9343 76.9686C60.9343 78.0639 61.1113 78.3821 61.7206 78.3821C62.2793 78.3821 62.4627 78.0272 62.4627 76.9464C62.4627 76.0886 62.43 75.9537 62.1795 75.7783C62.0239 75.6693 61.8074 75.58 61.6985 75.58C61.5896 75.58 61.3731 75.6693 61.2174 75.7783ZM64.4976 75.9303C64.2611 76.2302 64.2285 76.4059 64.2704 77.1541C64.3233 78.0964 64.5157 78.3821 65.098 78.3821C65.6629 78.3821 65.9016 77.966 65.9016 76.981C65.9016 76.2592 65.8531 76.0409 65.6469 75.8347C65.2863 75.4742 64.8271 75.5124 64.4976 75.9303ZM67.9395 75.8347C67.7348 76.0394 67.6847 76.2593 67.6847 76.9526C67.6847 77.9655 67.9011 78.3831 68.4244 78.3802C69.0759 78.3765 69.3405 77.9613 69.3405 76.943C69.3405 75.7862 68.5854 75.1889 67.9395 75.8347ZM76.5015 75.7783C76.2501 75.9543 76.2184 76.0878 76.2184 76.9686C76.2184 78.0639 76.3954 78.3821 77.0047 78.3821C77.5634 78.3821 77.7468 78.0272 77.7468 76.9464C77.7468 76.0886 77.714 75.9537 77.4636 75.7783C77.308 75.6693 77.0915 75.58 76.9826 75.58C76.8737 75.58 76.6571 75.6693 76.5015 75.7783ZM79.794 75.9156C79.5897 76.1753 79.5299 76.4346 79.5299 77.0619C79.5299 77.9732 79.7863 78.3821 80.3578 78.3821C80.9469 78.3821 81.1857 77.9781 81.1857 76.981C81.1857 76.2592 81.1372 76.0409 80.931 75.8347C80.5755 75.4792 80.1111 75.5122 79.794 75.9156ZM83.2236 75.8347C83.0151 76.0432 82.9688 76.2592 82.9688 77.025C82.9688 78.0647 83.1552 78.3821 83.7656 78.3821C84.2975 78.3821 84.6246 77.8487 84.6246 76.981C84.6246 75.7862 83.8808 75.1775 83.2236 75.8347ZM91.6298 75.8347C91.4213 76.0432 91.3751 76.2592 91.3751 77.025C91.3751 78.0647 91.5614 78.3821 92.1719 78.3821C92.7038 78.3821 93.0309 77.8487 93.0309 76.981C93.0309 75.7862 92.287 75.1775 91.6298 75.8347ZM95.051 75.8235C94.787 76.0372 94.7503 76.1753 94.7503 76.9565C94.7503 77.9695 94.9899 78.3821 95.5782 78.3821C96.1594 78.3821 96.3424 78.0382 96.3424 76.9464C96.3424 76.0886 96.3097 75.9537 96.0593 75.7783C95.6851 75.5161 95.4157 75.5282 95.051 75.8235ZM98.3803 75.8347C98.1741 76.0409 98.1256 76.2592 98.1256 76.981C98.1256 77.9781 98.3644 78.3821 98.9535 78.3821C99.5425 78.3821 99.7813 77.9781 99.7813 76.981C99.7813 75.984 99.5425 75.58 98.9535 75.58C98.7783 75.58 98.5204 75.6946 98.3803 75.8347ZM61.1451 80.7803C60.9883 80.9535 60.9343 81.2584 60.9343 81.9705C60.9343 83.0288 61.1171 83.3494 61.7206 83.3494C62.2793 83.3494 62.4627 82.9946 62.4627 81.9137C62.4627 81.0559 62.43 80.921 62.1795 80.7456C61.8028 80.4816 61.4031 80.4951 61.1451 80.7803ZM64.6789 80.6448C64.1792 80.9783 64.0736 82.4592 64.5099 83.0138C64.827 83.4172 65.2914 83.4502 65.6469 83.0947C65.8531 82.8885 65.9016 82.6702 65.9016 81.9484C65.9016 81.2266 65.8531 81.0083 65.6469 80.8021C65.3901 80.5453 64.9378 80.4718 64.6789 80.6448ZM67.9395 80.8021C67.7333 81.0083 67.6847 81.2266 67.6847 81.9484C67.6847 82.6702 67.7333 82.8885 67.9395 83.0947C68.5967 83.7519 69.3405 83.1432 69.3405 81.9484C69.3405 80.7535 68.5967 80.1448 67.9395 80.8021ZM76.4292 80.7803C76.2724 80.9535 76.2184 81.2584 76.2184 81.9705C76.2184 83.0288 76.4011 83.3494 77.0047 83.3494C77.5634 83.3494 77.7468 82.9946 77.7468 81.9137C77.7468 81.0559 77.714 80.921 77.4636 80.7456C77.0869 80.4816 76.6872 80.4951 76.4292 80.7803ZM79.8529 80.7193C79.5977 80.9059 79.4331 82.0547 79.5786 82.6341C79.7552 83.3381 80.4508 83.5749 80.931 83.0947C81.1372 82.8885 81.1857 82.6702 81.1857 81.9484C81.1857 81.2266 81.1372 81.0083 80.931 80.8021C80.636 80.5071 80.1899 80.4729 79.8529 80.7193ZM83.1796 80.7803C82.8523 81.142 82.8829 82.754 83.2236 83.0947C83.8808 83.7519 84.6246 83.1432 84.6246 81.9484C84.6246 81.4029 84.558 81.1337 84.3606 80.8829C84.0466 80.4836 83.4917 80.4354 83.1796 80.7803ZM91.6582 80.7456C91.4087 80.9203 91.3751 81.0567 91.3751 81.8919C91.3751 82.6702 91.4207 82.8855 91.6298 83.0947C92.287 83.7519 93.0309 83.1432 93.0309 81.9484C93.0309 80.7772 92.401 80.2253 91.6582 80.7456ZM94.993 80.8154C94.8045 81.0237 94.7503 81.2766 94.7503 81.9484C94.7503 82.6201 94.8045 82.8731 94.993 83.0813C95.2807 83.3992 95.6689 83.4247 96.0593 83.1511C96.3112 82.9747 96.3424 82.842 96.3424 81.9484C96.3424 81.0548 96.3112 80.922 96.0593 80.7456C95.6689 80.4721 95.2807 80.4975 94.993 80.8154ZM98.3803 80.8021C98.1741 81.0083 98.1256 81.2266 98.1256 81.9484C98.1256 82.9454 98.3644 83.3494 98.9535 83.3494C99.5425 83.3494 99.7813 82.9454 99.7813 81.9484C99.7813 80.9513 99.5425 80.5473 98.9535 80.5473C98.7783 80.5473 98.5204 80.662 98.3803 80.8021ZM61.1395 85.7539C60.9665 85.9449 60.9306 86.1938 60.9605 86.9912C60.9958 87.9307 61.0186 88.001 61.3482 88.1849C61.6631 88.3607 61.7339 88.3607 62.0487 88.1849C62.3784 88.001 62.4012 87.9307 62.4364 86.9912C62.4787 85.8643 62.304 85.5147 61.6985 85.5147C61.51 85.5147 61.2584 85.6223 61.1395 85.7539ZM64.5617 85.6918C64.3746 85.8286 64.3082 86.0682 64.2704 86.7426C64.2285 87.4909 64.2611 87.6665 64.4976 87.9665C64.8271 88.3844 65.2863 88.4226 65.6469 88.062C65.8531 87.8558 65.9016 87.6375 65.9016 86.9157C65.9016 86.1939 65.8531 85.9756 65.6469 85.7694C65.3498 85.4724 64.9053 85.4405 64.5617 85.6918ZM67.9395 85.7694C67.7333 85.9756 67.6847 86.1939 67.6847 86.9157C67.6847 87.6375 67.7333 87.8558 67.9395 88.062C68.295 88.4175 68.7593 88.3845 69.0765 87.9811C69.5127 87.4266 69.4071 85.9457 68.9075 85.6121C68.6485 85.4391 68.1963 85.5126 67.9395 85.7694ZM76.4236 85.7539C76.2506 85.9449 76.2147 86.1938 76.2446 86.9912C76.2799 87.9307 76.3027 88.001 76.6323 88.1849C76.9472 88.3607 77.018 88.3607 77.3328 88.1849C77.6625 88.001 77.6853 87.9307 77.7205 86.9912C77.7628 85.8643 77.5881 85.5147 76.9826 85.5147C76.7941 85.5147 76.5425 85.6223 76.4236 85.7539ZM79.7847 85.7694C79.4152 86.1389 79.4209 87.5071 79.794 87.9811C80.1111 88.3845 80.5755 88.4175 80.931 88.062C81.1372 87.8558 81.1857 87.6375 81.1857 86.9157C81.1857 85.9187 80.9469 85.5147 80.3578 85.5147C80.1827 85.5147 79.9248 85.6293 79.7847 85.7694ZM83.252 85.713C83.0025 85.8876 82.9688 86.024 82.9688 86.8593C82.9688 87.6375 83.0144 87.8529 83.2236 88.062C83.5643 88.4027 83.933 88.3831 84.3119 88.0041C84.5734 87.7427 84.6246 87.5681 84.6246 86.9386C84.6246 85.7439 84.0017 85.1877 83.252 85.713ZM91.5859 85.7476C91.2586 86.1093 91.2891 87.7213 91.6298 88.062C91.9705 88.4027 92.3393 88.3831 92.7182 88.0041C93.1421 87.5803 93.1696 86.3622 92.7668 85.8503C92.4529 85.451 91.8979 85.4027 91.5859 85.7476ZM95.0007 85.7741C94.7022 86.1041 94.6051 87.3549 94.8432 87.8051C95.0858 88.264 95.6027 88.4134 96.0142 88.1439C96.3206 87.943 96.3424 87.8627 96.3424 86.9325C96.3424 86.1291 96.2973 85.8955 96.1095 85.7255C95.7921 85.4381 95.2846 85.4604 95.0007 85.7741ZM98.3803 85.7694C98.0108 86.1389 98.0165 87.5071 98.3896 87.9811C98.7132 88.3925 99.17 88.4154 99.5216 88.0379C99.7303 87.814 99.7813 87.5887 99.7813 86.8916C99.7813 85.9202 99.5376 85.5147 98.9535 85.5147C98.7783 85.5147 98.5204 85.6293 98.3803 85.7694ZM61.1395 90.7212C60.9665 90.9122 60.9306 91.1611 60.9605 91.9586C60.9958 92.898 61.0186 92.9683 61.3482 93.1522C61.6631 93.328 61.7339 93.328 62.0487 93.1522C62.3784 92.9683 62.4012 92.898 62.4364 91.9586C62.4787 90.8316 62.304 90.482 61.6985 90.482C61.51 90.482 61.2584 90.5896 61.1395 90.7212ZM64.4876 90.6887C64.3933 90.8023 64.294 91.2858 64.2671 91.7632C64.2221 92.558 64.2454 92.6584 64.5445 92.9575C64.9387 93.3517 65.2508 93.3711 65.6228 93.0244C65.8564 92.8068 65.9016 92.6253 65.9016 91.9065C65.9016 90.8466 65.6918 90.482 65.0821 90.482C64.8473 90.482 64.5828 90.5739 64.4876 90.6887ZM67.8955 90.7149C67.5682 91.0767 67.5988 92.6886 67.9395 93.0293C68.2838 93.3736 68.6496 93.3498 69.0418 92.9575C69.3428 92.6564 69.3643 92.561 69.3176 91.7336C69.2782 91.0371 69.2128 90.7967 69.0247 90.6592C68.6862 90.4117 68.1458 90.4383 67.8955 90.7149ZM76.4236 90.7212C76.2506 90.9122 76.2147 91.1611 76.2446 91.9586C76.2799 92.898 76.3027 92.9683 76.6323 93.1522C76.9472 93.328 77.018 93.328 77.3328 93.1522C77.6625 92.9683 77.6853 92.898 77.7205 91.9586C77.7628 90.8316 77.5881 90.482 76.9826 90.482C76.7941 90.482 76.5425 90.5896 76.4236 90.7212ZM79.7282 90.7651C79.5995 90.9488 79.5299 91.3308 79.5299 91.8535C79.5299 92.5387 79.5765 92.7054 79.8426 92.9714C80.2337 93.3625 80.5531 93.3679 80.9088 92.9893C81.2983 92.5748 81.3126 91.1183 80.931 90.7367C80.5848 90.3905 79.9805 90.4048 79.7282 90.7651ZM83.1796 90.7149C82.8523 91.0767 82.8829 92.6886 83.2236 93.0293C83.5643 93.37 83.933 93.3504 84.3119 92.9714C84.5696 92.7138 84.6246 92.5331 84.6246 91.9442C84.6246 91.2456 84.4729 90.7673 84.1916 90.5794C83.9336 90.4072 83.3926 90.4796 83.1796 90.7149ZM91.5859 90.7149C91.2586 91.0767 91.2891 92.6886 91.6298 93.0293C91.9705 93.37 92.3393 93.3504 92.7182 92.9714C92.9758 92.7138 93.0309 92.5331 93.0309 91.9442C93.0309 91.2456 92.8792 90.7673 92.5978 90.5794C92.3399 90.4072 91.7988 90.4796 91.5859 90.7149ZM95.0192 90.6771C94.5616 91.1347 94.5975 92.6733 95.0749 93.0599C95.4376 93.3536 95.7735 93.3436 96.0877 93.0293C96.4456 92.6714 96.461 91.0109 96.1095 90.6928C95.8174 90.4285 95.2756 90.4207 95.0192 90.6771ZM98.3803 90.7367C98.1774 90.9396 98.1256 91.1612 98.1256 91.8251C98.1256 92.5405 98.1699 92.7031 98.4383 92.9714C98.6102 93.1433 98.842 93.2841 98.9535 93.2841C99.0649 93.2841 99.2967 93.1433 99.4686 92.9714C99.737 92.7031 99.7813 92.5405 99.7813 91.8251C99.7813 90.8896 99.5302 90.482 98.9535 90.482C98.7783 90.482 98.5204 90.5966 98.3803 90.7367ZM61.1295 95.6544C60.9678 95.8161 60.9322 96.0774 60.9612 96.8918C60.996 97.8688 61.0167 97.9345 61.3482 98.1196C61.6631 98.2953 61.7339 98.2953 62.0487 98.1196C62.3784 97.9357 62.4012 97.8653 62.4364 96.9259C62.4664 96.1284 62.4305 95.8796 62.2575 95.6885C61.9922 95.3952 61.4063 95.3775 61.1295 95.6544ZM64.4441 95.7325C64.3154 95.9161 64.2458 96.2981 64.2458 96.8208C64.2458 97.506 64.2924 97.6728 64.5585 97.9387C64.9399 98.3202 65.1312 98.3295 65.566 97.9874C65.869 97.7492 65.9016 97.6403 65.9016 96.8695C65.9016 95.8091 65.6918 95.4493 65.0737 95.4493C64.7724 95.4493 64.5826 95.5347 64.4441 95.7325ZM67.8955 95.6823C67.6104 95.9974 67.5965 97.6354 67.8766 97.9155C68.3635 98.4025 69.1248 98.202 69.2901 97.5434C69.4371 96.9579 69.2742 95.8089 69.0175 95.6213C68.6855 95.3785 68.1438 95.4079 67.8955 95.6823ZM76.4185 95.6494C76.2705 95.7975 76.2184 96.1106 76.2184 96.8523C76.2184 97.744 76.2497 97.8768 76.5015 98.0531C76.8825 98.3199 77.186 98.3027 77.492 97.9967C77.8499 97.6388 77.8654 95.9783 77.5138 95.6601C77.2196 95.3939 76.6794 95.3886 76.4185 95.6494ZM79.7282 95.7325C79.5995 95.9161 79.5299 96.2981 79.5299 96.8208C79.5299 97.506 79.5765 97.6728 79.8426 97.9387C80.2239 98.3202 80.4153 98.3295 80.8501 97.9874C81.1531 97.7492 81.1857 97.6403 81.1857 96.8695C81.1857 95.8091 80.9759 95.4493 80.3578 95.4493C80.0565 95.4493 79.8667 95.5347 79.7282 95.7325ZM83.1796 95.6823C82.9197 95.9695 82.8822 97.5799 83.128 97.9017C83.3922 98.2476 83.9005 98.2992 84.2505 98.0158C84.5306 97.7889 84.5609 97.6691 84.5609 96.7877C84.5609 95.9677 84.5212 95.7819 84.3137 95.6301C83.9708 95.3794 83.4313 95.4042 83.1796 95.6823ZM91.5859 95.6823C91.3259 95.9695 91.2885 97.5799 91.5343 97.9017C91.7985 98.2476 92.3068 98.2992 92.6568 98.0158C92.9369 97.7889 92.9672 97.6691 92.9672 96.7877C92.9672 95.9677 92.9274 95.7819 92.72 95.6301C92.3771 95.3794 91.8376 95.4042 91.5859 95.6823ZM94.9975 95.6301C94.7901 95.7819 94.7503 95.9677 94.7503 96.7873C94.7503 97.6684 94.7806 97.7884 95.0607 98.0155C95.4107 98.2992 95.9189 98.2477 96.1832 97.9017C96.2763 97.7798 96.3424 97.315 96.3424 96.7821C96.3424 96.0611 96.2938 95.827 96.1095 95.6601C95.8238 95.4016 95.3284 95.3882 94.9975 95.6301ZM98.3239 95.7325C98.1951 95.9161 98.1256 96.2981 98.1256 96.8208C98.1256 97.506 98.1722 97.6728 98.4383 97.9387C98.6102 98.1107 98.842 98.2514 98.9535 98.2514C99.0649 98.2514 99.2967 98.1107 99.4686 97.9387C99.7347 97.6728 99.7813 97.506 99.7813 96.8208C99.7813 95.8122 99.5623 95.4493 98.9535 95.4493C98.6521 95.4493 98.4623 95.5347 98.3239 95.7325ZM61.1344 100.617C60.9866 100.765 60.9343 101.077 60.9343 101.811C60.9343 102.925 61.0587 103.134 61.7233 103.134C62.296 103.134 62.4627 102.819 62.4627 101.739C62.4627 100.7 62.299 100.417 61.6985 100.417C61.4984 100.417 61.2445 100.507 61.1344 100.617ZM64.4441 100.7C64.3154 100.883 64.2458 101.265 64.2458 101.788C64.2458 102.473 64.2924 102.64 64.5585 102.906C64.9399 103.288 65.1312 103.297 65.566 102.955C65.869 102.717 65.9016 102.608 65.9016 101.837C65.9016 100.776 65.6918 100.417 65.0737 100.417C64.7724 100.417 64.5826 100.502 64.4441 100.7ZM67.9011 100.643C67.7403 100.821 67.6847 101.115 67.6847 101.787C67.6847 102.612 67.714 102.714 68.0204 102.955C68.4552 103.297 68.6465 103.288 69.0278 102.906C69.2886 102.645 69.3403 102.471 69.3386 101.855C69.3361 100.854 69.1379 100.491 68.5669 100.442C68.2537 100.416 68.052 100.477 67.9011 100.643ZM76.3502 100.663C76.1339 101.067 76.1828 102.776 76.4162 102.97C76.7114 103.215 77.3719 103.173 77.5738 102.897C77.8274 102.55 77.8074 100.878 77.5467 100.617C77.2572 100.327 76.5145 100.356 76.3502 100.663ZM79.7282 100.7C79.5995 100.883 79.5299 101.265 79.5299 101.788C79.5299 102.473 79.5765 102.64 79.8426 102.906C80.0146 103.078 80.2464 103.219 80.3578 103.219C80.4693 103.219 80.7011 103.078 80.873 102.906C81.1391 102.64 81.1857 102.473 81.1857 101.788C81.1857 100.78 80.9666 100.417 80.3578 100.417C80.0565 100.417 79.8667 100.502 79.7282 100.7ZM83.1796 100.65C82.8945 100.965 82.8806 102.603 83.1607 102.883C83.6961 103.418 84.425 103.16 84.5706 102.384C84.6804 101.799 84.5735 100.853 84.3699 100.608C84.1488 100.341 83.4359 100.366 83.1796 100.65ZM91.5859 100.65C91.3007 100.965 91.2868 102.603 91.5669 102.883C92.1024 103.418 92.8313 103.16 92.9769 102.384C93.0867 101.799 92.9798 100.853 92.7761 100.608C92.555 100.341 91.8422 100.366 91.5859 100.65ZM94.9325 100.618C94.7124 100.884 94.6275 102.168 94.8006 102.616C94.9713 103.058 95.4854 103.276 95.8731 103.072C96.2931 102.851 96.3383 102.722 96.3405 101.742C96.342 101.026 96.2939 100.794 96.1095 100.627C95.814 100.36 95.1513 100.355 94.9325 100.618ZM98.3239 100.7C98.1951 100.883 98.1256 101.265 98.1256 101.788C98.1256 102.473 98.1722 102.64 98.4383 102.906C98.6102 103.078 98.842 103.219 98.9535 103.219C99.0649 103.219 99.2967 103.078 99.4686 102.906C99.7347 102.64 99.7813 102.473 99.7813 101.788C99.7813 100.78 99.5623 100.417 98.9535 100.417C98.6521 100.417 98.4623 100.502 98.3239 100.7Z" fill="#181818"/>
<path fill-rule="evenodd" clip-rule="evenodd" d="M72.27 51.1227C72.1076 51.2252 72.0694 51.9612 72.0152 56.0276L71.9539 60.6375C71.9525 60.744 71.8905 60.8405 71.7941 60.8861L64.5795 64.297C60.5249 66.2139 57.1003 67.8741 56.9693 67.9862C56.7385 68.1838 56.7312 68.8037 56.7312 87.852V107.265C56.7312 107.407 56.6251 107.526 56.4844 107.542L56.0625 107.592C55.5902 107.647 55.326 107.752 55.163 107.952C54.8996 108.274 54.9632 108.79 55.2978 109.046C55.4628 109.172 60.6598 109.205 80.2941 109.205C107.374 109.205 105.555 109.332 105.555 108.466C105.555 107.907 105.322 107.694 104.608 107.599L104.227 107.549C104.088 107.53 103.984 107.412 103.984 107.272V84.3123C103.984 61.1364 103.984 61.1077 103.725 60.8295C103.582 60.6761 103.348 60.5506 103.205 60.5506C103.062 60.5506 99.8016 62.0408 95.9603 63.8622C92.119 65.6836 88.9428 67.1737 88.902 67.1737C88.8611 67.1737 88.8269 65.8698 88.8258 64.2761C88.8246 62.2148 88.7781 61.2877 88.6648 61.0641C88.451 60.6413 73.2293 50.9973 72.7803 51C72.6047 51.0011 72.3751 51.0563 72.27 51.1227ZM80.4215 57.5277L86.9788 61.6815C87.0594 61.7326 87.1084 61.8214 87.1085 61.9169L87.1405 84.6565L87.1722 107.27C87.1724 107.424 87.0474 107.549 86.8931 107.549H80.3582H73.8228C73.6686 107.549 73.5437 107.424 73.5437 107.27V80.42C73.5437 65.4989 73.5866 53.291 73.6392 53.2912C73.6918 53.2916 76.7438 55.1979 80.4215 57.5277ZM71.8879 85.0689V107.27C71.8879 107.424 71.7629 107.549 71.6088 107.549H65.0733H58.5384C58.384 107.549 58.259 107.424 58.2593 107.27L58.291 88.295L58.3229 69.2166C58.3231 69.1091 58.385 69.0113 58.4821 68.9651L65.0737 65.8279C68.7865 64.0609 71.8386 62.6092 71.856 62.6018C71.8735 62.5945 71.8879 72.7047 71.8879 85.0689ZM102.329 85.1326V107.27C102.329 107.424 102.204 107.549 102.05 107.549H95.5782H89.1068C88.9527 107.549 88.8277 107.424 88.8278 107.27L88.8285 88.2849L88.8293 69.1972C88.8293 69.0893 88.8914 68.9911 88.9889 68.945L95.4834 65.8696C99.1432 64.1367 102.181 62.7182 102.233 62.7173C102.286 62.7165 102.329 72.8034 102.329 85.1326ZM61.2174 70.9384C60.966 71.1144 60.9343 71.2479 60.9343 72.1286C60.9343 73.224 61.1113 73.5421 61.7206 73.5421C62.2793 73.5421 62.4627 73.1873 62.4627 72.1064C62.4627 71.2486 62.43 71.1137 62.1795 70.9384C62.0239 70.8293 61.8074 70.74 61.6985 70.74C61.5896 70.74 61.3731 70.8293 61.2174 70.9384ZM64.5445 71.0666C64.2435 71.3677 64.222 71.4631 64.2688 72.2905C64.3247 73.2805 64.5097 73.5421 65.1545 73.5421C65.6861 73.5421 65.9016 73.1297 65.9016 72.1127C65.9016 71.4193 65.8516 71.1995 65.6469 70.9948C65.3026 70.6505 64.9368 70.6743 64.5445 71.0666ZM67.9395 70.9948C67.7348 71.1995 67.6847 71.4193 67.6847 72.1127C67.6847 73.1255 67.9011 73.5431 68.4244 73.5402C69.0802 73.5364 69.3405 73.1216 69.3405 72.0799C69.3405 71.491 69.2855 71.3103 69.0278 71.0527C68.6489 70.6737 68.2802 70.6541 67.9395 70.9948ZM76.5015 70.9384C76.2501 71.1144 76.2184 71.2479 76.2184 72.1286C76.2184 73.224 76.3954 73.5421 77.0047 73.5421C77.5634 73.5421 77.7468 73.1873 77.7468 72.1064C77.7468 71.2486 77.714 71.1137 77.4636 70.9384C77.308 70.8293 77.0915 70.74 76.9826 70.74C76.8737 70.74 76.6571 70.8293 76.5015 70.9384ZM79.794 71.0757C79.5897 71.3354 79.5299 71.5947 79.5299 72.222C79.5299 73.1582 79.7871 73.5421 80.4142 73.5421C80.9715 73.5421 81.1857 73.1465 81.1857 72.1176C81.1857 71.3988 81.1405 71.2173 80.9069 70.9997C80.5266 70.6454 80.11 70.6738 79.794 71.0757ZM83.2236 70.9948C83.0151 71.2033 82.9688 71.4193 82.9688 72.185C82.9688 73.2152 83.1567 73.5439 83.7431 73.5402C84.3622 73.5363 84.6246 73.1018 84.6246 72.0799C84.6246 71.491 84.5696 71.3103 84.3119 71.0527C83.933 70.6737 83.5643 70.6541 83.2236 70.9948ZM91.6298 70.9948C91.4213 71.2033 91.3751 71.4193 91.3751 72.185C91.3751 73.2152 91.563 73.5439 92.1494 73.5402C92.7685 73.5363 93.0309 73.1018 93.0309 72.0799C93.0309 71.491 92.9758 71.3103 92.7182 71.0527C92.3393 70.6737 91.9705 70.6541 91.6298 70.9948ZM95.051 70.9836C94.787 71.1973 94.7503 71.3354 94.7503 72.1165C94.7503 73.1296 94.9899 73.5421 95.5782 73.5421C96.15 73.5421 96.3424 73.1948 96.3424 72.1629C96.3424 71.4193 96.295 71.2021 96.0877 70.9948C95.7677 70.6748 95.4367 70.6711 95.051 70.9836ZM98.3896 71.0757C98.1853 71.3354 98.1256 71.5947 98.1256 72.222C98.1256 73.1582 98.3827 73.5421 99.0099 73.5421C99.5639 73.5421 99.7813 73.1456 99.7813 72.135C99.7813 71.4206 99.737 71.2522 99.4866 71.0169C99.0929 70.6472 98.7104 70.6677 98.3896 71.0757ZM61.2174 75.7783C60.966 75.9543 60.9343 76.0878 60.9343 76.9686C60.9343 78.0639 61.1113 78.3821 61.7206 78.3821C62.2793 78.3821 62.4627 78.0272 62.4627 76.9464C62.4627 76.0886 62.43 75.9537 62.1795 75.7783C62.0239 75.6693 61.8074 75.58 61.6985 75.58C61.5896 75.58 61.3731 75.6693 61.2174 75.7783ZM64.4976 75.9303C64.2611 76.2302 64.2285 76.4059 64.2704 77.1541C64.3233 78.0964 64.5157 78.3821 65.098 78.3821C65.6629 78.3821 65.9016 77.966 65.9016 76.981C65.9016 76.2592 65.8531 76.0409 65.6469 75.8347C65.2863 75.4742 64.8271 75.5124 64.4976 75.9303ZM67.9395 75.8347C67.7348 76.0394 67.6847 76.2593 67.6847 76.9526C67.6847 77.9655 67.9011 78.3831 68.4244 78.3802C69.0759 78.3765 69.3405 77.9613 69.3405 76.943C69.3405 75.7862 68.5854 75.1889 67.9395 75.8347ZM76.5015 75.7783C76.2501 75.9543 76.2184 76.0878 76.2184 76.9686C76.2184 78.0639 76.3954 78.3821 77.0047 78.3821C77.5634 78.3821 77.7468 78.0272 77.7468 76.9464C77.7468 76.0886 77.714 75.9537 77.4636 75.7783C77.308 75.6693 77.0915 75.58 76.9826 75.58C76.8737 75.58 76.6571 75.6693 76.5015 75.7783ZM79.794 75.9156C79.5897 76.1753 79.5299 76.4346 79.5299 77.0619C79.5299 77.9732 79.7863 78.3821 80.3578 78.3821C80.9469 78.3821 81.1857 77.9781 81.1857 76.981C81.1857 76.2592 81.1372 76.0409 80.931 75.8347C80.5755 75.4792 80.1111 75.5122 79.794 75.9156ZM83.2236 75.8347C83.0151 76.0432 82.9688 76.2592 82.9688 77.025C82.9688 78.0647 83.1552 78.3821 83.7656 78.3821C84.2975 78.3821 84.6246 77.8487 84.6246 76.981C84.6246 75.7862 83.8808 75.1775 83.2236 75.8347ZM91.6298 75.8347C91.4213 76.0432 91.3751 76.2592 91.3751 77.025C91.3751 78.0647 91.5614 78.3821 92.1719 78.3821C92.7038 78.3821 93.0309 77.8487 93.0309 76.981C93.0309 75.7862 92.287 75.1775 91.6298 75.8347ZM95.051 75.8235C94.787 76.0372 94.7503 76.1753 94.7503 76.9565C94.7503 77.9695 94.9899 78.3821 95.5782 78.3821C96.1594 78.3821 96.3424 78.0382 96.3424 76.9464C96.3424 76.0886 96.3097 75.9537 96.0593 75.7783C95.6851 75.5161 95.4157 75.5282 95.051 75.8235ZM98.3803 75.8347C98.1741 76.0409 98.1256 76.2592 98.1256 76.981C98.1256 77.9781 98.3644 78.3821 98.9535 78.3821C99.5425 78.3821 99.7813 77.9781 99.7813 76.981C99.7813 75.984 99.5425 75.58 98.9535 75.58C98.7783 75.58 98.5204 75.6946 98.3803 75.8347ZM61.1451 80.7803C60.9883 80.9535 60.9343 81.2584 60.9343 81.9705C60.9343 83.0288 61.1171 83.3494 61.7206 83.3494C62.2793 83.3494 62.4627 82.9946 62.4627 81.9137C62.4627 81.0559 62.43 80.921 62.1795 80.7456C61.8028 80.4816 61.4031 80.4951 61.1451 80.7803ZM64.6789 80.6448C64.1792 80.9783 64.0736 82.4592 64.5099 83.0138C64.827 83.4172 65.2914 83.4502 65.6469 83.0947C65.8531 82.8885 65.9016 82.6702 65.9016 81.9484C65.9016 81.2266 65.8531 81.0083 65.6469 80.8021C65.3901 80.5453 64.9378 80.4718 64.6789 80.6448ZM67.9395 80.8021C67.7333 81.0083 67.6847 81.2266 67.6847 81.9484C67.6847 82.6702 67.7333 82.8885 67.9395 83.0947C68.5967 83.7519 69.3405 83.1432 69.3405 81.9484C69.3405 80.7535 68.5967 80.1448 67.9395 80.8021ZM76.4292 80.7803C76.2724 80.9535 76.2184 81.2584 76.2184 81.9705C76.2184 83.0288 76.4011 83.3494 77.0047 83.3494C77.5634 83.3494 77.7468 82.9946 77.7468 81.9137C77.7468 81.0559 77.714 80.921 77.4636 80.7456C77.0869 80.4816 76.6872 80.4951 76.4292 80.7803ZM79.8529 80.7193C79.5977 80.9059 79.4331 82.0547 79.5786 82.6341C79.7552 83.3381 80.4508 83.5749 80.931 83.0947C81.1372 82.8885 81.1857 82.6702 81.1857 81.9484C81.1857 81.2266 81.1372 81.0083 80.931 80.8021C80.636 80.5071 80.1899 80.4729 79.8529 80.7193ZM83.1796 80.7803C82.8523 81.142 82.8829 82.754 83.2236 83.0947C83.8808 83.7519 84.6246 83.1432 84.6246 81.9484C84.6246 81.4029 84.558 81.1337 84.3606 80.8829C84.0466 80.4836 83.4917 80.4354 83.1796 80.7803ZM91.6582 80.7456C91.4087 80.9203 91.3751 81.0567 91.3751 81.8919C91.3751 82.6702 91.4207 82.8855 91.6298 83.0947C92.287 83.7519 93.0309 83.1432 93.0309 81.9484C93.0309 80.7772 92.401 80.2253 91.6582 80.7456ZM94.993 80.8154C94.8045 81.0237 94.7503 81.2766 94.7503 81.9484C94.7503 82.6201 94.8045 82.8731 94.993 83.0813C95.2807 83.3992 95.6689 83.4247 96.0593 83.1511C96.3112 82.9747 96.3424 82.842 96.3424 81.9484C96.3424 81.0548 96.3112 80.922 96.0593 80.7456C95.6689 80.4721 95.2807 80.4975 94.993 80.8154ZM98.3803 80.8021C98.1741 81.0083 98.1256 81.2266 98.1256 81.9484C98.1256 82.9454 98.3644 83.3494 98.9535 83.3494C99.5425 83.3494 99.7813 82.9454 99.7813 81.9484C99.7813 80.9513 99.5425 80.5473 98.9535 80.5473C98.7783 80.5473 98.5204 80.662 98.3803 80.8021ZM61.1395 85.7539C60.9665 85.9449 60.9306 86.1938 60.9605 86.9912C60.9958 87.9307 61.0186 88.001 61.3482 88.1849C61.6631 88.3607 61.7339 88.3607 62.0487 88.1849C62.3784 88.001 62.4012 87.9307 62.4364 86.9912C62.4787 85.8643 62.304 85.5147 61.6985 85.5147C61.51 85.5147 61.2584 85.6223 61.1395 85.7539ZM64.5617 85.6918C64.3746 85.8286 64.3082 86.0682 64.2704 86.7426C64.2285 87.4909 64.2611 87.6665 64.4976 87.9665C64.8271 88.3844 65.2863 88.4226 65.6469 88.062C65.8531 87.8558 65.9016 87.6375 65.9016 86.9157C65.9016 86.1939 65.8531 85.9756 65.6469 85.7694C65.3498 85.4724 64.9053 85.4405 64.5617 85.6918ZM67.9395 85.7694C67.7333 85.9756 67.6847 86.1939 67.6847 86.9157C67.6847 87.6375 67.7333 87.8558 67.9395 88.062C68.295 88.4175 68.7593 88.3845 69.0765 87.9811C69.5127 87.4266 69.4071 85.9457 68.9075 85.6121C68.6485 85.4391 68.1963 85.5126 67.9395 85.7694ZM76.4236 85.7539C76.2506 85.9449 76.2147 86.1938 76.2446 86.9912C76.2799 87.9307 76.3027 88.001 76.6323 88.1849C76.9472 88.3607 77.018 88.3607 77.3328 88.1849C77.6625 88.001 77.6853 87.9307 77.7205 86.9912C77.7628 85.8643 77.5881 85.5147 76.9826 85.5147C76.7941 85.5147 76.5425 85.6223 76.4236 85.7539ZM79.7847 85.7694C79.4152 86.1389 79.4209 87.5071 79.794 87.9811C80.1111 88.3845 80.5755 88.4175 80.931 88.062C81.1372 87.8558 81.1857 87.6375 81.1857 86.9157C81.1857 85.9187 80.9469 85.5147 80.3578 85.5147C80.1827 85.5147 79.9248 85.6293 79.7847 85.7694ZM83.252 85.713C83.0025 85.8876 82.9688 86.024 82.9688 86.8593C82.9688 87.6375 83.0144 87.8529 83.2236 88.062C83.5643 88.4027 83.933 88.3831 84.3119 88.0041C84.5734 87.7427 84.6246 87.5681 84.6246 86.9386C84.6246 85.7439 84.0017 85.1877 83.252 85.713ZM91.5859 85.7476C91.2586 86.1093 91.2891 87.7213 91.6298 88.062C91.9705 88.4027 92.3393 88.3831 92.7182 88.0041C93.1421 87.5803 93.1696 86.3622 92.7668 85.8503C92.4529 85.451 91.8979 85.4027 91.5859 85.7476ZM95.0007 85.7741C94.7022 86.1041 94.6051 87.3549 94.8432 87.8051C95.0858 88.264 95.6027 88.4134 96.0142 88.1439C96.3206 87.943 96.3424 87.8627 96.3424 86.9325C96.3424 86.1291 96.2973 85.8955 96.1095 85.7255C95.7921 85.4381 95.2846 85.4604 95.0007 85.7741ZM98.3803 85.7694C98.0108 86.1389 98.0165 87.5071 98.3896 87.9811C98.7132 88.3925 99.17 88.4154 99.5216 88.0379C99.7303 87.814 99.7813 87.5887 99.7813 86.8916C99.7813 85.9202 99.5376 85.5147 98.9535 85.5147C98.7783 85.5147 98.5204 85.6293 98.3803 85.7694ZM61.1395 90.7212C60.9665 90.9122 60.9306 91.1611 60.9605 91.9586C60.9958 92.898 61.0186 92.9683 61.3482 93.1522C61.6631 93.328 61.7339 93.328 62.0487 93.1522C62.3784 92.9683 62.4012 92.898 62.4364 91.9586C62.4787 90.8316 62.304 90.482 61.6985 90.482C61.51 90.482 61.2584 90.5896 61.1395 90.7212ZM64.4876 90.6887C64.3933 90.8023 64.294 91.2858 64.2671 91.7632C64.2221 92.558 64.2454 92.6584 64.5445 92.9575C64.9387 93.3517 65.2508 93.3711 65.6228 93.0244C65.8564 92.8068 65.9016 92.6253 65.9016 91.9065C65.9016 90.8466 65.6918 90.482 65.0821 90.482C64.8473 90.482 64.5828 90.5739 64.4876 90.6887ZM67.8955 90.7149C67.5682 91.0767 67.5988 92.6886 67.9395 93.0293C68.2838 93.3736 68.6496 93.3498 69.0418 92.9575C69.3428 92.6564 69.3643 92.561 69.3176 91.7336C69.2782 91.0371 69.2128 90.7967 69.0247 90.6592C68.6862 90.4117 68.1458 90.4383 67.8955 90.7149ZM76.4236 90.7212C76.2506 90.9122 76.2147 91.1611 76.2446 91.9586C76.2799 92.898 76.3027 92.9683 76.6323 93.1522C76.9472 93.328 77.018 93.328 77.3328 93.1522C77.6625 92.9683 77.6853 92.898 77.7205 91.9586C77.7628 90.8316 77.5881 90.482 76.9826 90.482C76.7941 90.482 76.5425 90.5896 76.4236 90.7212ZM79.7282 90.7651C79.5995 90.9488 79.5299 91.3308 79.5299 91.8535C79.5299 92.5387 79.5765 92.7054 79.8426 92.9714C80.2337 93.3625 80.5531 93.3679 80.9088 92.9893C81.2983 92.5748 81.3126 91.1183 80.931 90.7367C80.5848 90.3905 79.9805 90.4048 79.7282 90.7651ZM83.1796 90.7149C82.8523 91.0767 82.8829 92.6886 83.2236 93.0293C83.5643 93.37 83.933 93.3504 84.3119 92.9714C84.5696 92.7138 84.6246 92.5331 84.6246 91.9442C84.6246 91.2456 84.4729 90.7673 84.1916 90.5794C83.9336 90.4072 83.3926 90.4796 83.1796 90.7149ZM91.5859 90.7149C91.2586 91.0767 91.2891 92.6886 91.6298 93.0293C91.9705 93.37 92.3393 93.3504 92.7182 92.9714C92.9758 92.7138 93.0309 92.5331 93.0309 91.9442C93.0309 91.2456 92.8792 90.7673 92.5978 90.5794C92.3399 90.4072 91.7988 90.4796 91.5859 90.7149ZM95.0192 90.6771C94.5616 91.1347 94.5975 92.6733 95.0749 93.0599C95.4376 93.3536 95.7735 93.3436 96.0877 93.0293C96.4456 92.6714 96.461 91.0109 96.1095 90.6928C95.8174 90.4285 95.2756 90.4207 95.0192 90.6771ZM98.3803 90.7367C98.1774 90.9396 98.1256 91.1612 98.1256 91.8251C98.1256 92.5405 98.1699 92.7031 98.4383 92.9714C98.6102 93.1433 98.842 93.2841 98.9535 93.2841C99.0649 93.2841 99.2967 93.1433 99.4686 92.9714C99.737 92.7031 99.7813 92.5405 99.7813 91.8251C99.7813 90.8896 99.5302 90.482 98.9535 90.482C98.7783 90.482 98.5204 90.5966 98.3803 90.7367ZM61.1295 95.6544C60.9678 95.8161 60.9322 96.0774 60.9612 96.8918C60.996 97.8688 61.0167 97.9345 61.3482 98.1196C61.6631 98.2953 61.7339 98.2953 62.0487 98.1196C62.3784 97.9357 62.4012 97.8653 62.4364 96.9259C62.4664 96.1284 62.4305 95.8796 62.2575 95.6885C61.9922 95.3952 61.4063 95.3775 61.1295 95.6544ZM64.4441 95.7325C64.3154 95.9161 64.2458 96.2981 64.2458 96.8208C64.2458 97.506 64.2924 97.6728 64.5585 97.9387C64.9399 98.3202 65.1312 98.3295 65.566 97.9874C65.869 97.7492 65.9016 97.6403 65.9016 96.8695C65.9016 95.8091 65.6918 95.4493 65.0737 95.4493C64.7724 95.4493 64.5826 95.5347 64.4441 95.7325ZM67.8955 95.6823C67.6104 95.9974 67.5965 97.6354 67.8766 97.9155C68.3635 98.4025 69.1248 98.202 69.2901 97.5434C69.4371 96.9579 69.2742 95.8089 69.0175 95.6213C68.6855 95.3785 68.1438 95.4079 67.8955 95.6823ZM76.4185 95.6494C76.2705 95.7975 76.2184 96.1106 76.2184 96.8523C76.2184 97.744 76.2497 97.8768 76.5015 98.0531C76.8825 98.3199 77.186 98.3027 77.492 97.9967C77.8499 97.6388 77.8654 95.9783 77.5138 95.6601C77.2196 95.3939 76.6794 95.3886 76.4185 95.6494ZM79.7282 95.7325C79.5995 95.9161 79.5299 96.2981 79.5299 96.8208C79.5299 97.506 79.5765 97.6728 79.8426 97.9387C80.2239 98.3202 80.4153 98.3295 80.8501 97.9874C81.1531 97.7492 81.1857 97.6403 81.1857 96.8695C81.1857 95.8091 80.9759 95.4493 80.3578 95.4493C80.0565 95.4493 79.8667 95.5347 79.7282 95.7325ZM83.1796 95.6823C82.9197 95.9695 82.8822 97.5799 83.128 97.9017C83.3922 98.2476 83.9005 98.2992 84.2505 98.0158C84.5306 97.7889 84.5609 97.6691 84.5609 96.7877C84.5609 95.9677 84.5212 95.7819 84.3137 95.6301C83.9708 95.3794 83.4313 95.4042 83.1796 95.6823ZM91.5859 95.6823C91.3259 95.9695 91.2885 97.5799 91.5343 97.9017C91.7985 98.2476 92.3068 98.2992 92.6568 98.0158C92.9369 97.7889 92.9672 97.6691 92.9672 96.7877C92.9672 95.9677 92.9274 95.7819 92.72 95.6301C92.3771 95.3794 91.8376 95.4042 91.5859 95.6823ZM94.9975 95.6301C94.7901 95.7819 94.7503 95.9677 94.7503 96.7873C94.7503 97.6684 94.7806 97.7884 95.0607 98.0155C95.4107 98.2992 95.9189 98.2477 96.1832 97.9017C96.2763 97.7798 96.3424 97.315 96.3424 96.7821C96.3424 96.0611 96.2938 95.827 96.1095 95.6601C95.8238 95.4016 95.3284 95.3882 94.9975 95.6301ZM98.3239 95.7325C98.1951 95.9161 98.1256 96.2981 98.1256 96.8208C98.1256 97.506 98.1722 97.6728 98.4383 97.9387C98.6102 98.1107 98.842 98.2514 98.9535 98.2514C99.0649 98.2514 99.2967 98.1107 99.4686 97.9387C99.7347 97.6728 99.7813 97.506 99.7813 96.8208C99.7813 95.8122 99.5623 95.4493 98.9535 95.4493C98.6521 95.4493 98.4623 95.5347 98.3239 95.7325ZM61.1344 100.617C60.9866 100.765 60.9343 101.077 60.9343 101.811C60.9343 102.925 61.0587 103.134 61.7233 103.134C62.296 103.134 62.4627 102.819 62.4627 101.739C62.4627 100.7 62.299 100.417 61.6985 100.417C61.4984 100.417 61.2445 100.507 61.1344 100.617ZM64.4441 100.7C64.3154 100.883 64.2458 101.265 64.2458 101.788C64.2458 102.473 64.2924 102.64 64.5585 102.906C64.9399 103.288 65.1312 103.297 65.566 102.955C65.869 102.717 65.9016 102.608 65.9016 101.837C65.9016 100.776 65.6918 100.417 65.0737 100.417C64.7724 100.417 64.5826 100.502 64.4441 100.7ZM67.9011 100.643C67.7403 100.821 67.6847 101.115 67.6847 101.787C67.6847 102.612 67.714 102.714 68.0204 102.955C68.4552 103.297 68.6465 103.288 69.0278 102.906C69.2886 102.645 69.3403 102.471 69.3386 101.855C69.3361 100.854 69.1379 100.491 68.5669 100.442C68.2537 100.416 68.052 100.477 67.9011 100.643ZM76.3502 100.663C76.1339 101.067 76.1828 102.776 76.4162 102.97C76.7114 103.215 77.3719 103.173 77.5738 102.897C77.8274 102.55 77.8074 100.878 77.5467 100.617C77.2572 100.327 76.5145 100.356 76.3502 100.663ZM79.7282 100.7C79.5995 100.883 79.5299 101.265 79.5299 101.788C79.5299 102.473 79.5765 102.64 79.8426 102.906C80.0146 103.078 80.2464 103.219 80.3578 103.219C80.4693 103.219 80.7011 103.078 80.873 102.906C81.1391 102.64 81.1857 102.473 81.1857 101.788C81.1857 100.78 80.9666 100.417 80.3578 100.417C80.0565 100.417 79.8667 100.502 79.7282 100.7ZM83.1796 100.65C82.8945 100.965 82.8806 102.603 83.1607 102.883C83.6961 103.418 84.425 103.16 84.5706 102.384C84.6804 101.799 84.5735 100.853 84.3699 100.608C84.1488 100.341 83.4359 100.366 83.1796 100.65ZM91.5859 100.65C91.3007 100.965 91.2868 102.603 91.5669 102.883C92.1024 103.418 92.8313 103.16 92.9769 102.384C93.0867 101.799 92.9798 100.853 92.7761 100.608C92.555 100.341 91.8422 100.366 91.5859 100.65ZM94.9325 100.618C94.7124 100.884 94.6275 102.168 94.8006 102.616C94.9713 103.058 95.4854 103.276 95.8731 103.072C96.2931 102.851 96.3383 102.722 96.3405 101.742C96.342 101.026 96.2939 100.794 96.1095 100.627C95.814 100.36 95.1513 100.355 94.9325 100.618ZM98.3239 100.7C98.1951 100.883 98.1256 101.265 98.1256 101.788C98.1256 102.473 98.1722 102.64 98.4383 102.906C98.6102 103.078 98.842 103.219 98.9535 103.219C99.0649 103.219 99.2967 103.078 99.4686 102.906C99.7347 102.64 99.7813 102.473 99.7813 101.788C99.7813 100.78 99.5623 100.417 98.9535 100.417C98.6521 100.417 98.4623 100.502 98.3239 100.7Z" stroke="black" stroke-width="0.4" mask="url(#path-2-outside-1_1482_269)"/>
</svg>
