<svg width="197" height="197" viewBox="0 0 197 197" fill="none" xmlns="http://www.w3.org/2000/svg">
<rect y="0.474609" width="196.364" height="196.364" rx="15.2352" fill="#423629"/>
<path fill-rule="evenodd" clip-rule="evenodd" d="M99.7439 53.774C99.3813 54.1534 99.2416 54.8444 99.2368 56.281C99.2265 59.3558 97.8681 61.5296 95.6412 62.0355C94.144 62.3753 92.6201 63.279 91.7764 64.3276C91.0367 65.2467 90.9303 65.6252 90.9499 67.2669C90.985 70.1804 92.5996 72.704 95.1885 73.8913C96.3591 74.4282 96.9291 74.5024 99.0369 74.3927C103.491 74.1609 106.834 72.0582 108.829 68.2336C109.859 66.259 109.972 65.8089 110.081 63.2266C110.184 60.809 110.122 60.3062 109.665 59.828C109.027 59.1604 107.636 59.0914 107.102 59.7013C106.778 60.0707 106.567 59.8432 105.696 58.1834C104.291 55.5086 102.179 53.25 101.081 53.25C100.621 53.25 100.019 53.4858 99.7439 53.774ZM103.27 59.7724C103.7 60.6809 104.146 61.9788 104.26 62.6567C104.512 64.1503 105.047 64.7104 106.22 64.7104C106.707 64.7104 107.106 64.77 107.106 64.8428C107.106 65.6146 105.649 68.2878 104.778 69.1123C102.26 71.4984 97.9549 72.4963 96.0343 71.1391C94.7436 70.2271 94.0744 69.2152 93.8872 67.893C93.6362 66.1209 94.1521 65.447 96.3316 64.6984C97.351 64.3482 98.6649 63.7039 99.2513 63.2667C100.373 62.4304 101.529 60.5425 101.85 59.0235C101.955 58.5269 102.141 58.1207 102.264 58.1207C102.387 58.1207 102.839 58.8639 103.27 59.7724ZM96.1704 76.5095C93.8803 77.0873 91.4048 79.9146 91.3875 81.9726C91.3815 82.6923 91.2817 82.7605 90.2354 82.7605C88.521 82.7605 86.5173 83.8407 85.7171 85.1959C84.854 86.6571 84.8522 88.0346 85.7108 89.6476C86.5221 91.1725 88.4058 92.2154 90.3479 92.2154H91.6059L89.6484 98.0172C88.5718 101.208 87.3779 104.786 86.9951 105.968C86.6122 107.15 84.985 112.049 83.3789 116.855C81.7728 121.661 79.7821 127.624 78.955 130.106L77.4508 134.619H74.4216C69.6113 134.619 68.545 135.521 68.7527 139.418C68.858 141.392 68.939 141.616 69.8226 142.364C70.4163 142.867 71.2736 143.241 72.0834 143.352C72.8007 143.45 84.9547 143.491 99.0922 143.444C119.8 143.374 124.949 143.283 125.578 142.975C126.89 142.333 127.367 141.22 127.367 138.805C127.367 136.811 127.295 136.557 126.485 135.698L125.604 134.762L118.629 134.57L117.68 131.658C117.159 130.056 114.022 120.613 110.709 110.674C107.397 100.735 104.687 92.5339 104.687 92.4494C104.687 92.3646 105.445 92.2214 106.371 92.1308C109.442 91.8306 111.247 89.8015 110.96 86.9734C110.883 86.2087 110.554 85.238 110.23 84.8165C109.44 83.7879 107.242 82.7605 105.832 82.7605C104.786 82.7605 104.686 82.6923 104.68 81.9726C104.662 79.8201 102.17 77.0773 99.6967 76.4871C98.1675 76.1224 97.6927 76.1252 96.1704 76.5095ZM100.024 79.5763C101.006 80.1435 101.965 81.7105 101.965 82.7465C101.965 84.489 103.516 85.6256 105.895 85.6256C107.024 85.6256 107.725 86.107 108.117 87.1504C108.32 87.6902 107.871 88.7618 107.287 89.1311C107.104 89.2468 102.951 89.3434 98.0577 89.346C88.2156 89.3508 88.0544 89.3216 88.0544 87.5378C88.0544 86.3015 88.8225 85.6256 90.2278 85.6256C91.68 85.6256 93.3504 84.989 93.749 84.2836C93.9138 83.9917 94.1473 83.2393 94.2673 82.6121C94.3874 81.9847 94.6735 81.12 94.9027 80.6905C95.7479 79.1084 98.2658 78.5606 100.024 79.5763ZM102.245 94.8341L101.205 95.8199C100.633 96.362 99.6765 97.2115 99.0801 97.7075L97.9957 98.6097L96.0491 96.7817C94.9786 95.7764 94.1034 94.8212 94.1043 94.659C94.1053 94.4968 94.2477 93.8808 94.421 93.2898L94.7358 92.2154H101.303L102.245 94.8341ZM95.6146 100.663C95.6146 100.846 94.4579 102.058 93.0441 103.356C91.6304 104.655 90.4737 105.578 90.4737 105.407C90.4737 105.166 91.7289 101.253 92.758 98.2859C92.9062 97.8582 95.6146 100.112 95.6146 100.663ZM104.507 101.697C105.129 103.603 105.594 105.2 105.54 105.247C105.487 105.294 104.296 104.311 102.895 103.062L100.347 100.792L101.672 99.5119C102.402 98.8079 103.083 98.2321 103.187 98.2321C103.291 98.2321 103.885 99.7912 104.507 101.697ZM102.377 106.659L106.57 110.479L104.494 111.525C103.353 112.101 101.437 113.051 100.238 113.637L98.0577 114.702L94.9459 113.159C93.2346 112.311 91.3791 111.359 90.8226 111.044L89.8111 110.471L93.8425 106.644C96.06 104.539 97.944 102.822 98.0296 102.828C98.1152 102.835 100.071 104.559 102.377 106.659ZM91.5941 114.744L94.7699 116.358L93.9069 116.846C92.142 117.844 85.3312 121.439 85.2066 121.439C85.1353 121.439 85.408 120.44 85.8121 119.219C86.2164 117.998 86.8315 116.128 87.1789 115.065C87.5267 114.001 87.9477 113.131 88.1146 113.131C88.2815 113.131 89.8474 113.857 91.5941 114.744ZM109.67 117.184C110.428 119.414 111 121.284 110.942 121.339C110.883 121.394 109.35 120.644 107.534 119.673C105.719 118.701 103.655 117.6 102.948 117.225C102.241 116.851 101.665 116.453 101.669 116.342C101.676 116.1 107.398 113.183 107.926 113.152C108.137 113.14 108.876 114.847 109.67 117.184ZM104.44 121.346C107.902 123.186 110.735 124.768 110.735 124.862C110.735 125.107 98.7115 130.035 98.1133 130.035C97.5367 130.035 85.3306 125.117 85.337 124.887C85.3394 124.803 86.054 124.35 86.9246 123.88C90.2091 122.109 97.8877 118.058 98.0142 118.03C98.0867 118.014 100.978 119.507 104.44 121.346ZM88.3568 129.412C90.2695 130.195 92.3788 131.051 93.0441 131.314L94.2537 131.792L90.8405 133.205C87.4333 134.616 87.4215 134.619 84.1119 134.619C82.2884 134.619 80.7967 134.544 80.7967 134.452C80.7967 134.182 82.8875 127.727 83.0617 127.461C83.1494 127.326 83.5942 127.39 84.0502 127.602C84.5063 127.814 86.4441 128.629 88.3568 129.412ZM114.28 130.966L115.443 134.476L108.791 134.639L105.529 133.303C102.682 132.137 101.596 131.467 102.553 131.467C102.71 131.467 104.989 130.569 107.618 129.471C110.247 128.373 112.56 127.47 112.757 127.465C112.955 127.46 113.64 129.035 114.28 130.966ZM99.3577 133.906C99.9601 134.145 100.453 134.403 100.453 134.479C100.453 134.556 99.3305 134.613 97.9582 134.607L95.4634 134.595L96.5218 134.046C97.8203 133.372 97.9875 133.364 99.3577 133.906ZM124.494 140.492L71.7245 140.639V137.481L124.494 137.627V140.492Z" fill="white"/>
</svg>
