<svg width="233" height="234" viewBox="0 0 233 234" fill="none" xmlns="http://www.w3.org/2000/svg">
<rect x="0.756836" y="0.996094" width="232.242" height="232.242" rx="18.0188" fill="white"/>
<mask id="path-2-outside-1_1901_1000" maskUnits="userSpaceOnUse" x="79.5898" y="74.0234" width="75" height="86" fill="black">
<rect fill="white" x="79.5898" y="74.0234" width="75" height="86"/>
<path fill-rule="evenodd" clip-rule="evenodd" d="M105.657 75.2015C105.422 75.3503 105.366 76.4187 105.288 82.321L105.199 89.0124C105.197 89.1671 105.107 89.3071 104.967 89.3732L94.4947 94.3243C88.6093 97.1067 83.6384 99.5165 83.4484 99.6792C83.1134 99.966 83.1026 100.866 83.1026 128.515V156.693C83.1026 156.899 82.9487 157.072 82.7445 157.096L82.132 157.167C81.4465 157.247 81.0631 157.401 80.8264 157.69C80.4441 158.157 80.5364 158.907 81.022 159.278C81.2616 159.461 88.8051 159.509 117.305 159.509C156.612 159.509 153.972 159.693 153.972 158.436C153.972 157.625 153.633 157.315 152.597 157.178L152.043 157.105C151.842 157.078 151.692 156.906 151.692 156.703V123.377C151.692 89.7366 151.691 89.695 151.315 89.291C151.107 89.0684 150.768 88.8863 150.56 88.8863C150.352 88.8863 145.62 91.0494 140.044 93.6931C134.469 96.3368 129.858 98.4999 129.799 98.4999C129.74 98.4999 129.69 96.6071 129.689 94.294C129.687 91.3019 129.619 89.9562 129.455 89.6316C129.144 89.018 107.05 75.0196 106.398 75.0234C106.143 75.0251 105.81 75.1052 105.657 75.2015ZM117.49 84.4985L127.007 90.5278C127.125 90.602 127.196 90.7309 127.196 90.8695L127.242 123.876L127.288 156.7C127.289 156.924 127.107 157.106 126.883 157.106H117.398H107.911C107.688 157.106 107.506 156.924 107.506 156.7V117.727C107.506 96.0688 107.569 78.3488 107.645 78.3492C107.721 78.3497 112.151 81.1168 117.49 84.4985ZM105.103 124.475V156.7C105.103 156.924 104.921 157.106 104.698 157.106H95.2114H85.7258C85.5018 157.106 85.3203 156.924 85.3207 156.7L85.3668 129.158L85.4132 101.465C85.4134 101.309 85.5033 101.167 85.6442 101.1L95.212 96.5463C100.601 93.9815 105.031 91.8743 105.057 91.8636C105.082 91.853 105.103 106.528 105.103 124.475ZM149.288 124.567V156.7C149.288 156.924 149.107 157.106 148.883 157.106H139.49H130.096C129.873 157.106 129.691 156.924 129.691 156.7L129.692 129.143L129.694 101.437C129.694 101.28 129.784 101.138 129.925 101.071L139.352 96.6069C144.664 94.0915 149.073 92.0326 149.15 92.0313C149.226 92.0302 149.288 106.671 149.288 124.567ZM89.6145 103.964C89.2496 104.22 89.2035 104.414 89.2035 105.692C89.2035 107.282 89.4605 107.744 90.345 107.744C91.1558 107.744 91.422 107.229 91.422 105.66C91.422 104.415 91.3745 104.219 91.0111 103.964C90.7852 103.806 90.4709 103.676 90.3128 103.676C90.1547 103.676 89.8404 103.806 89.6145 103.964ZM94.4438 104.15C94.007 104.587 93.9757 104.726 94.0436 105.927C94.1247 107.364 94.3934 107.744 95.3292 107.744C96.1009 107.744 96.4137 107.145 96.4137 105.669C96.4137 104.662 96.341 104.343 96.0439 104.046C95.5442 103.546 95.0133 103.581 94.4438 104.15ZM99.3717 104.046C99.0746 104.343 99.002 104.662 99.002 105.669C99.002 107.139 99.3161 107.745 100.076 107.741C101.027 107.735 101.405 107.133 101.405 105.621C101.405 104.766 101.325 104.504 100.951 104.13C100.401 103.58 99.8662 103.552 99.3717 104.046ZM111.8 103.964C111.435 104.22 111.389 104.414 111.389 105.692C111.389 107.282 111.646 107.744 112.53 107.744C113.341 107.744 113.607 107.229 113.607 105.66C113.607 104.415 113.56 104.219 113.196 103.964C112.97 103.806 112.656 103.676 112.498 103.676C112.34 103.676 112.026 103.806 111.8 103.964ZM116.579 104.164C116.282 104.541 116.195 104.917 116.195 105.827C116.195 107.186 116.569 107.744 117.479 107.744C118.288 107.744 118.599 107.169 118.599 105.676C118.599 104.633 118.533 104.369 118.194 104.053C117.642 103.539 117.037 103.58 116.579 104.164ZM121.557 104.046C121.254 104.349 121.187 104.662 121.187 105.774C121.187 107.269 121.46 107.746 122.311 107.741C123.21 107.735 123.59 107.105 123.59 105.621C123.59 104.766 123.511 104.504 123.137 104.13C122.587 103.58 122.051 103.552 121.557 104.046ZM133.759 104.046C133.456 104.349 133.389 104.662 133.389 105.774C133.389 107.269 133.662 107.746 134.513 107.741C135.411 107.735 135.792 107.105 135.792 105.621C135.792 104.766 135.712 104.504 135.338 104.13C134.788 103.58 134.253 103.552 133.759 104.046ZM138.725 104.03C138.341 104.34 138.288 104.541 138.288 105.674C138.288 107.145 138.636 107.744 139.49 107.744C140.32 107.744 140.599 107.24 140.599 105.742C140.599 104.662 140.53 104.347 140.229 104.046C139.765 103.582 139.284 103.576 138.725 104.03ZM143.571 104.164C143.274 104.541 143.187 104.917 143.187 105.827C143.187 107.186 143.561 107.744 144.471 107.744C145.275 107.744 145.591 107.168 145.591 105.701C145.591 104.664 145.526 104.42 145.163 104.078C144.591 103.542 144.036 103.571 143.571 104.164ZM89.6145 110.99C89.2496 111.245 89.2035 111.439 89.2035 112.717C89.2035 114.307 89.4605 114.769 90.345 114.769C91.1558 114.769 91.422 114.254 91.422 112.685C91.422 111.44 91.3745 111.244 91.0111 110.99C90.7852 110.831 90.4709 110.702 90.3128 110.702C90.1547 110.702 89.8404 110.831 89.6145 110.99ZM94.3758 111.21C94.0325 111.645 93.9852 111.9 94.046 112.987C94.1227 114.354 94.4021 114.769 95.2473 114.769C96.0672 114.769 96.4137 114.165 96.4137 112.735C96.4137 111.688 96.3433 111.371 96.0439 111.071C95.5206 110.548 94.8541 110.604 94.3758 111.21ZM99.3717 111.071C99.0746 111.369 99.002 111.688 99.002 112.694C99.002 114.164 99.3161 114.77 100.076 114.766C101.021 114.761 101.405 114.158 101.405 112.68C101.405 111.001 100.309 110.134 99.3717 111.071ZM111.8 110.99C111.435 111.245 111.389 111.439 111.389 112.717C111.389 114.307 111.646 114.769 112.53 114.769C113.341 114.769 113.607 114.254 113.607 112.685C113.607 111.44 113.56 111.244 113.196 110.99C112.97 110.831 112.656 110.702 112.498 110.702C112.34 110.702 112.026 110.831 111.8 110.99ZM116.579 111.189C116.282 111.566 116.195 111.942 116.195 112.853C116.195 114.176 116.568 114.769 117.397 114.769C118.252 114.769 118.599 114.183 118.599 112.735C118.599 111.688 118.528 111.371 118.229 111.071C117.713 110.555 117.039 110.603 116.579 111.189ZM121.557 111.071C121.254 111.374 121.187 111.688 121.187 112.799C121.187 114.308 121.458 114.769 122.344 114.769C123.116 114.769 123.59 113.995 123.59 112.735C123.59 111.001 122.511 110.117 121.557 111.071ZM133.759 111.071C133.456 111.374 133.389 111.688 133.389 112.799C133.389 114.308 133.659 114.769 134.545 114.769C135.317 114.769 135.792 113.995 135.792 112.735C135.792 111.001 134.713 110.117 133.759 111.071ZM138.725 111.055C138.341 111.365 138.288 111.566 138.288 112.7C138.288 114.17 138.636 114.769 139.49 114.769C140.333 114.769 140.599 114.27 140.599 112.685C140.599 111.44 140.551 111.244 140.188 110.99C139.645 110.609 139.254 110.626 138.725 111.055ZM143.557 111.071C143.258 111.371 143.187 111.688 143.187 112.735C143.187 114.183 143.534 114.769 144.389 114.769C145.244 114.769 145.591 114.183 145.591 112.735C145.591 111.288 145.244 110.702 144.389 110.702C144.135 110.702 143.76 110.868 143.557 111.071ZM89.5095 118.25C89.2819 118.501 89.2035 118.944 89.2035 119.978C89.2035 121.514 89.4688 121.979 90.345 121.979C91.1558 121.979 91.422 121.464 91.422 119.895C91.422 118.65 91.3745 118.454 91.0111 118.2C90.4642 117.816 89.8841 117.836 89.5095 118.25ZM94.6389 118.053C93.9136 118.537 93.7604 120.687 94.3936 121.492C94.8539 122.077 95.528 122.125 96.0439 121.609C96.3433 121.31 96.4137 120.993 96.4137 119.945C96.4137 118.898 96.3433 118.581 96.0439 118.282C95.6712 117.909 95.0147 117.802 94.6389 118.053ZM99.3717 118.282C99.0724 118.581 99.002 118.898 99.002 119.945C99.002 120.993 99.0724 121.31 99.3717 121.609C100.326 122.563 101.405 121.68 101.405 119.945C101.405 118.211 100.326 117.328 99.3717 118.282ZM111.695 118.25C111.467 118.501 111.389 118.944 111.389 119.978C111.389 121.514 111.654 121.979 112.53 121.979C113.341 121.979 113.607 121.464 113.607 119.895C113.607 118.65 113.56 118.454 113.196 118.2C112.649 117.816 112.069 117.836 111.695 118.25ZM116.664 118.161C116.294 118.432 116.055 120.1 116.266 120.941C116.522 121.963 117.532 122.306 118.229 121.609C118.528 121.31 118.599 120.993 118.599 119.945C118.599 118.898 118.528 118.581 118.229 118.282C117.801 117.853 117.153 117.804 116.664 118.161ZM121.493 118.25C121.018 118.775 121.062 121.115 121.557 121.609C122.511 122.563 123.59 121.68 123.59 119.945C123.59 119.154 123.494 118.763 123.207 118.399C122.751 117.819 121.946 117.749 121.493 118.25ZM133.8 118.2C133.438 118.453 133.389 118.651 133.389 119.864C133.389 120.993 133.455 121.306 133.759 121.609C134.713 122.563 135.792 121.68 135.792 119.945C135.792 118.246 134.878 117.444 133.8 118.2ZM138.64 118.301C138.367 118.603 138.288 118.97 138.288 119.945C138.288 120.921 138.367 121.288 138.64 121.59C139.058 122.051 139.621 122.088 140.188 121.691C140.554 121.435 140.599 121.243 140.599 119.945C140.599 118.648 140.554 118.456 140.188 118.2C139.621 117.803 139.058 117.84 138.64 118.301ZM143.557 118.282C143.258 118.581 143.187 118.898 143.187 119.945C143.187 121.393 143.534 121.979 144.389 121.979C145.244 121.979 145.591 121.393 145.591 119.945C145.591 118.498 145.244 117.912 144.389 117.912C144.135 117.912 143.76 118.078 143.557 118.282ZM89.5014 125.469C89.2503 125.747 89.1982 126.108 89.2416 127.265C89.2928 128.629 89.3259 128.731 89.8044 128.998C90.2614 129.253 90.3642 129.253 90.8212 128.998C91.2997 128.731 91.3328 128.629 91.384 127.265C91.4453 125.629 91.1917 125.122 90.3128 125.122C90.0392 125.122 89.674 125.278 89.5014 125.469ZM94.4688 125.379C94.1972 125.578 94.1009 125.925 94.046 126.904C93.9852 127.991 94.0325 128.245 94.3758 128.681C94.8541 129.287 95.5206 129.343 96.0439 128.82C96.3433 128.52 96.4137 128.203 96.4137 127.156C96.4137 126.108 96.3433 125.791 96.0439 125.492C95.6128 125.061 94.9676 125.014 94.4688 125.379ZM99.3717 125.492C99.0724 125.791 99.002 126.108 99.002 127.156C99.002 128.203 99.0724 128.52 99.3717 128.82C99.8877 129.335 100.562 129.288 101.022 128.702C101.655 127.897 101.502 125.748 100.777 125.263C100.401 125.012 99.7444 125.119 99.3717 125.492ZM111.686 125.469C111.435 125.747 111.383 126.108 111.427 127.265C111.478 128.629 111.511 128.731 111.989 128.998C112.446 129.253 112.549 129.253 113.006 128.998C113.485 128.731 113.518 128.629 113.569 127.265C113.63 125.629 113.377 125.122 112.498 125.122C112.224 125.122 111.859 125.278 111.686 125.469ZM116.565 125.492C116.029 126.028 116.037 128.014 116.579 128.702C117.039 129.288 117.713 129.335 118.229 128.82C118.528 128.52 118.599 128.203 118.599 127.156C118.599 125.708 118.252 125.122 117.397 125.122C117.143 125.122 116.769 125.288 116.565 125.492ZM121.598 125.41C121.236 125.663 121.187 125.861 121.187 127.074C121.187 128.203 121.253 128.516 121.557 128.82C122.051 129.314 122.587 129.286 123.137 128.735C123.516 128.356 123.59 128.103 123.59 127.189C123.59 125.455 122.686 124.647 121.598 125.41ZM133.695 125.46C133.22 125.985 133.264 128.325 133.759 128.82C134.253 129.314 134.788 129.286 135.338 128.735C135.954 128.12 135.994 126.352 135.409 125.609C134.953 125.03 134.148 124.959 133.695 125.46ZM138.652 125.499C138.218 125.978 138.077 127.793 138.423 128.447C138.775 129.113 139.525 129.33 140.123 128.938C140.567 128.647 140.599 128.53 140.599 127.18C140.599 126.014 140.534 125.675 140.261 125.428C139.8 125.011 139.064 125.043 138.652 125.499ZM143.557 125.492C143.021 126.028 143.029 128.014 143.571 128.702C144.04 129.299 144.703 129.333 145.214 128.785C145.517 128.46 145.591 128.133 145.591 127.121C145.591 125.711 145.237 125.122 144.389 125.122C144.135 125.122 143.76 125.288 143.557 125.492ZM89.5014 132.679C89.2503 132.957 89.1982 133.318 89.2416 134.475C89.2928 135.839 89.3259 135.941 89.8044 136.208C90.2614 136.463 90.3642 136.463 90.8212 136.208C91.2997 135.941 91.3328 135.839 91.384 134.475C91.4453 132.84 91.1917 132.332 90.3128 132.332C90.0392 132.332 89.674 132.488 89.5014 132.679ZM94.3612 132.632C94.2244 132.797 94.0802 133.499 94.0412 134.192C93.9759 135.345 94.0098 135.491 94.4438 135.925C95.016 136.498 95.469 136.526 96.009 136.022C96.3481 135.707 96.4137 135.443 96.4137 134.4C96.4137 132.861 96.1092 132.332 95.2242 132.332C94.8833 132.332 94.4995 132.466 94.3612 132.632ZM99.3079 132.67C98.8328 133.195 98.8772 135.535 99.3717 136.03C99.8714 136.529 100.402 136.495 100.972 135.925C101.409 135.488 101.44 135.35 101.372 134.149C101.315 133.138 101.22 132.789 100.947 132.589C100.456 132.23 99.6712 132.269 99.3079 132.67ZM111.686 132.679C111.435 132.957 111.383 133.318 111.427 134.475C111.478 135.839 111.511 135.941 111.989 136.208C112.446 136.463 112.549 136.463 113.006 136.208C113.485 135.941 113.518 135.839 113.569 134.475C113.63 132.84 113.377 132.332 112.498 132.332C112.224 132.332 111.859 132.488 111.686 132.679ZM116.483 132.743C116.296 133.01 116.195 133.564 116.195 134.323C116.195 135.318 116.263 135.56 116.649 135.946C117.217 136.513 117.681 136.521 118.197 135.972C118.762 135.37 118.783 133.256 118.229 132.702C117.727 132.199 116.849 132.22 116.483 132.743ZM121.493 132.67C121.018 133.195 121.062 135.535 121.557 136.03C122.051 136.524 122.587 136.496 123.137 135.946C123.511 135.572 123.59 135.309 123.59 134.455C123.59 133.44 123.37 132.746 122.962 132.474C122.587 132.224 121.802 132.329 121.493 132.67ZM133.695 132.67C133.22 133.195 133.264 135.535 133.759 136.03C134.253 136.524 134.788 136.496 135.338 135.946C135.712 135.572 135.792 135.309 135.792 134.455C135.792 133.44 135.572 132.746 135.164 132.474C134.789 132.224 134.004 132.329 133.695 132.67ZM138.678 132.615C138.014 133.28 138.066 135.513 138.759 136.074C139.286 136.5 139.773 136.486 140.229 136.03C140.749 135.51 140.771 133.1 140.261 132.638C139.837 132.255 139.05 132.243 138.678 132.615ZM143.557 132.702C143.263 132.996 143.187 133.318 143.187 134.282C143.187 135.32 143.252 135.556 143.641 135.946C143.891 136.195 144.227 136.399 144.389 136.399C144.551 136.399 144.887 136.195 145.137 135.946C145.526 135.556 145.591 135.32 145.591 134.282C145.591 132.924 145.226 132.332 144.389 132.332C144.135 132.332 143.76 132.499 143.557 132.702ZM89.4869 139.84C89.2522 140.075 89.2006 140.454 89.2425 141.636C89.2932 143.054 89.3232 143.15 89.8044 143.418C90.2614 143.673 90.3642 143.673 90.8212 143.418C91.2997 143.151 91.3328 143.049 91.384 141.686C91.4274 140.528 91.3753 140.167 91.1242 139.89C90.7391 139.464 89.8887 139.438 89.4869 139.84ZM94.2982 139.953C94.1112 140.22 94.0103 140.774 94.0103 141.533C94.0103 142.528 94.078 142.77 94.4642 143.156C95.0177 143.709 95.2954 143.723 95.9265 143.226C96.3664 142.881 96.4137 142.723 96.4137 141.604C96.4137 140.065 96.1092 139.542 95.212 139.542C94.7746 139.542 94.4991 139.666 94.2982 139.953ZM99.3079 139.88C98.894 140.338 98.8738 142.716 99.2804 143.122C99.9872 143.829 101.092 143.538 101.332 142.582C101.545 141.732 101.309 140.064 100.936 139.792C100.455 139.44 99.6682 139.482 99.3079 139.88ZM111.679 139.833C111.464 140.048 111.389 140.502 111.389 141.579C111.389 142.873 111.434 143.066 111.8 143.322C112.353 143.709 112.793 143.684 113.237 143.24C113.757 142.72 113.779 140.31 113.269 139.848C112.842 139.462 112.058 139.454 111.679 139.833ZM116.483 139.953C116.296 140.22 116.195 140.774 116.195 141.533C116.195 142.528 116.263 142.77 116.649 143.156C117.203 143.709 117.48 143.723 118.112 143.226C118.551 142.881 118.599 142.723 118.599 141.604C118.599 140.065 118.294 139.542 117.397 139.542C116.96 139.542 116.684 139.666 116.483 139.953ZM121.493 139.88C121.116 140.297 121.061 142.635 121.418 143.102C121.802 143.604 122.539 143.679 123.047 143.268C123.454 142.938 123.498 142.764 123.498 141.485C123.498 140.295 123.44 140.025 123.139 139.805C122.641 139.441 121.858 139.477 121.493 139.88ZM133.695 139.88C133.317 140.297 133.263 142.635 133.62 143.102C134.003 143.604 134.741 143.679 135.249 143.268C135.656 142.938 135.7 142.764 135.7 141.485C135.7 140.295 135.642 140.025 135.341 139.805C134.843 139.441 134.06 139.477 133.695 139.88ZM138.647 139.805C138.346 140.025 138.288 140.295 138.288 141.484C138.288 142.763 138.332 142.938 138.739 143.267C139.247 143.679 139.984 143.604 140.368 143.102C140.503 142.925 140.599 142.25 140.599 141.477C140.599 140.43 140.528 140.09 140.261 139.848C139.846 139.473 139.127 139.454 138.647 139.805ZM143.475 139.953C143.288 140.22 143.187 140.774 143.187 141.533C143.187 142.528 143.255 142.77 143.641 143.156C143.891 143.405 144.227 143.61 144.389 143.61C144.551 143.61 144.887 143.405 145.137 143.156C145.523 142.77 145.591 142.528 145.591 141.533C145.591 140.069 145.273 139.542 144.389 139.542C143.952 139.542 143.676 139.666 143.475 139.953ZM89.494 147.043C89.2795 147.258 89.2035 147.711 89.2035 148.777C89.2035 150.394 89.3842 150.696 90.3488 150.696C91.18 150.696 91.422 150.24 91.422 148.671C91.422 147.163 91.1845 146.752 90.3128 146.752C90.0224 146.752 89.6539 146.883 89.494 147.043ZM94.2982 147.163C94.1112 147.43 94.0103 147.984 94.0103 148.743C94.0103 149.738 94.078 149.98 94.4642 150.366C95.0177 150.92 95.2954 150.933 95.9265 150.436C96.3664 150.091 96.4137 149.933 96.4137 148.814C96.4137 147.275 96.1092 146.752 95.212 146.752C94.7746 146.752 94.4991 146.876 94.2982 147.163ZM99.3161 147.082C99.0826 147.339 99.002 147.766 99.002 148.741C99.002 149.939 99.0445 150.087 99.4891 150.436C100.12 150.933 100.398 150.92 100.951 150.366C101.33 149.988 101.405 149.734 101.403 148.841C101.399 147.387 101.111 146.86 100.282 146.79C99.8278 146.751 99.535 146.84 99.3161 147.082ZM111.58 147.11C111.266 147.697 111.337 150.177 111.676 150.458C112.104 150.814 113.063 150.754 113.356 150.353C113.724 149.85 113.695 147.422 113.317 147.043C112.896 146.623 111.818 146.664 111.58 147.11ZM116.483 147.163C116.296 147.43 116.195 147.984 116.195 148.743C116.195 149.738 116.263 149.98 116.649 150.366C116.899 150.615 117.235 150.82 117.397 150.82C117.559 150.82 117.895 150.615 118.145 150.366C118.531 149.98 118.599 149.738 118.599 148.743C118.599 147.279 118.281 146.752 117.397 146.752C116.96 146.752 116.684 146.876 116.483 147.163ZM121.493 147.091C121.079 147.548 121.059 149.926 121.465 150.332C122.243 151.109 123.301 150.735 123.512 149.608C123.671 148.759 123.516 147.386 123.221 147.03C122.9 146.643 121.865 146.679 121.493 147.091ZM133.695 147.091C133.281 147.548 133.261 149.926 133.667 150.332C134.444 151.109 135.503 150.735 135.714 149.608C135.873 148.759 135.718 147.386 135.422 147.03C135.102 146.643 134.067 146.679 133.695 147.091ZM138.552 147.045C138.233 147.43 138.11 149.295 138.361 149.945C138.609 150.586 139.355 150.903 139.918 150.607C140.527 150.286 140.593 150.099 140.596 148.676C140.598 147.638 140.529 147.301 140.261 147.058C139.832 146.67 138.87 146.663 138.552 147.045ZM143.475 147.163C143.288 147.43 143.187 147.984 143.187 148.743C143.187 149.738 143.255 149.98 143.641 150.366C143.891 150.615 144.227 150.82 144.389 150.82C144.551 150.82 144.887 150.615 145.137 150.366C145.523 149.98 145.591 149.738 145.591 148.743C145.591 147.279 145.273 146.752 144.389 146.752C143.952 146.752 143.676 146.876 143.475 147.163Z"/>
</mask>
<path fill-rule="evenodd" clip-rule="evenodd" d="M105.657 75.2015C105.422 75.3503 105.366 76.4187 105.288 82.321L105.199 89.0124C105.197 89.1671 105.107 89.3071 104.967 89.3732L94.4947 94.3243C88.6093 97.1067 83.6384 99.5165 83.4484 99.6792C83.1134 99.966 83.1026 100.866 83.1026 128.515V156.693C83.1026 156.899 82.9487 157.072 82.7445 157.096L82.132 157.167C81.4465 157.247 81.0631 157.401 80.8264 157.69C80.4441 158.157 80.5364 158.907 81.022 159.278C81.2616 159.461 88.8051 159.509 117.305 159.509C156.612 159.509 153.972 159.693 153.972 158.436C153.972 157.625 153.633 157.315 152.597 157.178L152.043 157.105C151.842 157.078 151.692 156.906 151.692 156.703V123.377C151.692 89.7366 151.691 89.695 151.315 89.291C151.107 89.0684 150.768 88.8863 150.56 88.8863C150.352 88.8863 145.62 91.0494 140.044 93.6931C134.469 96.3368 129.858 98.4999 129.799 98.4999C129.74 98.4999 129.69 96.6071 129.689 94.294C129.687 91.3019 129.619 89.9562 129.455 89.6316C129.144 89.018 107.05 75.0196 106.398 75.0234C106.143 75.0251 105.81 75.1052 105.657 75.2015ZM117.49 84.4985L127.007 90.5278C127.125 90.602 127.196 90.7309 127.196 90.8695L127.242 123.876L127.288 156.7C127.289 156.924 127.107 157.106 126.883 157.106H117.398H107.911C107.688 157.106 107.506 156.924 107.506 156.7V117.727C107.506 96.0688 107.569 78.3488 107.645 78.3492C107.721 78.3497 112.151 81.1168 117.49 84.4985ZM105.103 124.475V156.7C105.103 156.924 104.921 157.106 104.698 157.106H95.2114H85.7258C85.5018 157.106 85.3203 156.924 85.3207 156.7L85.3668 129.158L85.4132 101.465C85.4134 101.309 85.5033 101.167 85.6442 101.1L95.212 96.5463C100.601 93.9815 105.031 91.8743 105.057 91.8636C105.082 91.853 105.103 106.528 105.103 124.475ZM149.288 124.567V156.7C149.288 156.924 149.107 157.106 148.883 157.106H139.49H130.096C129.873 157.106 129.691 156.924 129.691 156.7L129.692 129.143L129.694 101.437C129.694 101.28 129.784 101.138 129.925 101.071L139.352 96.6069C144.664 94.0915 149.073 92.0326 149.15 92.0313C149.226 92.0302 149.288 106.671 149.288 124.567ZM89.6145 103.964C89.2496 104.22 89.2035 104.414 89.2035 105.692C89.2035 107.282 89.4605 107.744 90.345 107.744C91.1558 107.744 91.422 107.229 91.422 105.66C91.422 104.415 91.3745 104.219 91.0111 103.964C90.7852 103.806 90.4709 103.676 90.3128 103.676C90.1547 103.676 89.8404 103.806 89.6145 103.964ZM94.4438 104.15C94.007 104.587 93.9757 104.726 94.0436 105.927C94.1247 107.364 94.3934 107.744 95.3292 107.744C96.1009 107.744 96.4137 107.145 96.4137 105.669C96.4137 104.662 96.341 104.343 96.0439 104.046C95.5442 103.546 95.0133 103.581 94.4438 104.15ZM99.3717 104.046C99.0746 104.343 99.002 104.662 99.002 105.669C99.002 107.139 99.3161 107.745 100.076 107.741C101.027 107.735 101.405 107.133 101.405 105.621C101.405 104.766 101.325 104.504 100.951 104.13C100.401 103.58 99.8662 103.552 99.3717 104.046ZM111.8 103.964C111.435 104.22 111.389 104.414 111.389 105.692C111.389 107.282 111.646 107.744 112.53 107.744C113.341 107.744 113.607 107.229 113.607 105.66C113.607 104.415 113.56 104.219 113.196 103.964C112.97 103.806 112.656 103.676 112.498 103.676C112.34 103.676 112.026 103.806 111.8 103.964ZM116.579 104.164C116.282 104.541 116.195 104.917 116.195 105.827C116.195 107.186 116.569 107.744 117.479 107.744C118.288 107.744 118.599 107.169 118.599 105.676C118.599 104.633 118.533 104.369 118.194 104.053C117.642 103.539 117.037 103.58 116.579 104.164ZM121.557 104.046C121.254 104.349 121.187 104.662 121.187 105.774C121.187 107.269 121.46 107.746 122.311 107.741C123.21 107.735 123.59 107.105 123.59 105.621C123.59 104.766 123.511 104.504 123.137 104.13C122.587 103.58 122.051 103.552 121.557 104.046ZM133.759 104.046C133.456 104.349 133.389 104.662 133.389 105.774C133.389 107.269 133.662 107.746 134.513 107.741C135.411 107.735 135.792 107.105 135.792 105.621C135.792 104.766 135.712 104.504 135.338 104.13C134.788 103.58 134.253 103.552 133.759 104.046ZM138.725 104.03C138.341 104.34 138.288 104.541 138.288 105.674C138.288 107.145 138.636 107.744 139.49 107.744C140.32 107.744 140.599 107.24 140.599 105.742C140.599 104.662 140.53 104.347 140.229 104.046C139.765 103.582 139.284 103.576 138.725 104.03ZM143.571 104.164C143.274 104.541 143.187 104.917 143.187 105.827C143.187 107.186 143.561 107.744 144.471 107.744C145.275 107.744 145.591 107.168 145.591 105.701C145.591 104.664 145.526 104.42 145.163 104.078C144.591 103.542 144.036 103.571 143.571 104.164ZM89.6145 110.99C89.2496 111.245 89.2035 111.439 89.2035 112.717C89.2035 114.307 89.4605 114.769 90.345 114.769C91.1558 114.769 91.422 114.254 91.422 112.685C91.422 111.44 91.3745 111.244 91.0111 110.99C90.7852 110.831 90.4709 110.702 90.3128 110.702C90.1547 110.702 89.8404 110.831 89.6145 110.99ZM94.3758 111.21C94.0325 111.645 93.9852 111.9 94.046 112.987C94.1227 114.354 94.4021 114.769 95.2473 114.769C96.0672 114.769 96.4137 114.165 96.4137 112.735C96.4137 111.688 96.3433 111.371 96.0439 111.071C95.5206 110.548 94.8541 110.604 94.3758 111.21ZM99.3717 111.071C99.0746 111.369 99.002 111.688 99.002 112.694C99.002 114.164 99.3161 114.77 100.076 114.766C101.021 114.761 101.405 114.158 101.405 112.68C101.405 111.001 100.309 110.134 99.3717 111.071ZM111.8 110.99C111.435 111.245 111.389 111.439 111.389 112.717C111.389 114.307 111.646 114.769 112.53 114.769C113.341 114.769 113.607 114.254 113.607 112.685C113.607 111.44 113.56 111.244 113.196 110.99C112.97 110.831 112.656 110.702 112.498 110.702C112.34 110.702 112.026 110.831 111.8 110.99ZM116.579 111.189C116.282 111.566 116.195 111.942 116.195 112.853C116.195 114.176 116.568 114.769 117.397 114.769C118.252 114.769 118.599 114.183 118.599 112.735C118.599 111.688 118.528 111.371 118.229 111.071C117.713 110.555 117.039 110.603 116.579 111.189ZM121.557 111.071C121.254 111.374 121.187 111.688 121.187 112.799C121.187 114.308 121.458 114.769 122.344 114.769C123.116 114.769 123.59 113.995 123.59 112.735C123.59 111.001 122.511 110.117 121.557 111.071ZM133.759 111.071C133.456 111.374 133.389 111.688 133.389 112.799C133.389 114.308 133.659 114.769 134.545 114.769C135.317 114.769 135.792 113.995 135.792 112.735C135.792 111.001 134.713 110.117 133.759 111.071ZM138.725 111.055C138.341 111.365 138.288 111.566 138.288 112.7C138.288 114.17 138.636 114.769 139.49 114.769C140.333 114.769 140.599 114.27 140.599 112.685C140.599 111.44 140.551 111.244 140.188 110.99C139.645 110.609 139.254 110.626 138.725 111.055ZM143.557 111.071C143.258 111.371 143.187 111.688 143.187 112.735C143.187 114.183 143.534 114.769 144.389 114.769C145.244 114.769 145.591 114.183 145.591 112.735C145.591 111.288 145.244 110.702 144.389 110.702C144.135 110.702 143.76 110.868 143.557 111.071ZM89.5095 118.25C89.2819 118.501 89.2035 118.944 89.2035 119.978C89.2035 121.514 89.4688 121.979 90.345 121.979C91.1558 121.979 91.422 121.464 91.422 119.895C91.422 118.65 91.3745 118.454 91.0111 118.2C90.4642 117.816 89.8841 117.836 89.5095 118.25ZM94.6389 118.053C93.9136 118.537 93.7604 120.687 94.3936 121.492C94.8539 122.077 95.528 122.125 96.0439 121.609C96.3433 121.31 96.4137 120.993 96.4137 119.945C96.4137 118.898 96.3433 118.581 96.0439 118.282C95.6712 117.909 95.0147 117.802 94.6389 118.053ZM99.3717 118.282C99.0724 118.581 99.002 118.898 99.002 119.945C99.002 120.993 99.0724 121.31 99.3717 121.609C100.326 122.563 101.405 121.68 101.405 119.945C101.405 118.211 100.326 117.328 99.3717 118.282ZM111.695 118.25C111.467 118.501 111.389 118.944 111.389 119.978C111.389 121.514 111.654 121.979 112.53 121.979C113.341 121.979 113.607 121.464 113.607 119.895C113.607 118.65 113.56 118.454 113.196 118.2C112.649 117.816 112.069 117.836 111.695 118.25ZM116.664 118.161C116.294 118.432 116.055 120.1 116.266 120.941C116.522 121.963 117.532 122.306 118.229 121.609C118.528 121.31 118.599 120.993 118.599 119.945C118.599 118.898 118.528 118.581 118.229 118.282C117.801 117.853 117.153 117.804 116.664 118.161ZM121.493 118.25C121.018 118.775 121.062 121.115 121.557 121.609C122.511 122.563 123.59 121.68 123.59 119.945C123.59 119.154 123.494 118.763 123.207 118.399C122.751 117.819 121.946 117.749 121.493 118.25ZM133.8 118.2C133.438 118.453 133.389 118.651 133.389 119.864C133.389 120.993 133.455 121.306 133.759 121.609C134.713 122.563 135.792 121.68 135.792 119.945C135.792 118.246 134.878 117.444 133.8 118.2ZM138.64 118.301C138.367 118.603 138.288 118.97 138.288 119.945C138.288 120.921 138.367 121.288 138.64 121.59C139.058 122.051 139.621 122.088 140.188 121.691C140.554 121.435 140.599 121.243 140.599 119.945C140.599 118.648 140.554 118.456 140.188 118.2C139.621 117.803 139.058 117.84 138.64 118.301ZM143.557 118.282C143.258 118.581 143.187 118.898 143.187 119.945C143.187 121.393 143.534 121.979 144.389 121.979C145.244 121.979 145.591 121.393 145.591 119.945C145.591 118.498 145.244 117.912 144.389 117.912C144.135 117.912 143.76 118.078 143.557 118.282ZM89.5014 125.469C89.2503 125.747 89.1982 126.108 89.2416 127.265C89.2928 128.629 89.3259 128.731 89.8044 128.998C90.2614 129.253 90.3642 129.253 90.8212 128.998C91.2997 128.731 91.3328 128.629 91.384 127.265C91.4453 125.629 91.1917 125.122 90.3128 125.122C90.0392 125.122 89.674 125.278 89.5014 125.469ZM94.4688 125.379C94.1972 125.578 94.1009 125.925 94.046 126.904C93.9852 127.991 94.0325 128.245 94.3758 128.681C94.8541 129.287 95.5206 129.343 96.0439 128.82C96.3433 128.52 96.4137 128.203 96.4137 127.156C96.4137 126.108 96.3433 125.791 96.0439 125.492C95.6128 125.061 94.9676 125.014 94.4688 125.379ZM99.3717 125.492C99.0724 125.791 99.002 126.108 99.002 127.156C99.002 128.203 99.0724 128.52 99.3717 128.82C99.8877 129.335 100.562 129.288 101.022 128.702C101.655 127.897 101.502 125.748 100.777 125.263C100.401 125.012 99.7444 125.119 99.3717 125.492ZM111.686 125.469C111.435 125.747 111.383 126.108 111.427 127.265C111.478 128.629 111.511 128.731 111.989 128.998C112.446 129.253 112.549 129.253 113.006 128.998C113.485 128.731 113.518 128.629 113.569 127.265C113.63 125.629 113.377 125.122 112.498 125.122C112.224 125.122 111.859 125.278 111.686 125.469ZM116.565 125.492C116.029 126.028 116.037 128.014 116.579 128.702C117.039 129.288 117.713 129.335 118.229 128.82C118.528 128.52 118.599 128.203 118.599 127.156C118.599 125.708 118.252 125.122 117.397 125.122C117.143 125.122 116.769 125.288 116.565 125.492ZM121.598 125.41C121.236 125.663 121.187 125.861 121.187 127.074C121.187 128.203 121.253 128.516 121.557 128.82C122.051 129.314 122.587 129.286 123.137 128.735C123.516 128.356 123.59 128.103 123.59 127.189C123.59 125.455 122.686 124.647 121.598 125.41ZM133.695 125.46C133.22 125.985 133.264 128.325 133.759 128.82C134.253 129.314 134.788 129.286 135.338 128.735C135.954 128.12 135.994 126.352 135.409 125.609C134.953 125.03 134.148 124.959 133.695 125.46ZM138.652 125.499C138.218 125.978 138.077 127.793 138.423 128.447C138.775 129.113 139.525 129.33 140.123 128.938C140.567 128.647 140.599 128.53 140.599 127.18C140.599 126.014 140.534 125.675 140.261 125.428C139.8 125.011 139.064 125.043 138.652 125.499ZM143.557 125.492C143.021 126.028 143.029 128.014 143.571 128.702C144.04 129.299 144.703 129.333 145.214 128.785C145.517 128.46 145.591 128.133 145.591 127.121C145.591 125.711 145.237 125.122 144.389 125.122C144.135 125.122 143.76 125.288 143.557 125.492ZM89.5014 132.679C89.2503 132.957 89.1982 133.318 89.2416 134.475C89.2928 135.839 89.3259 135.941 89.8044 136.208C90.2614 136.463 90.3642 136.463 90.8212 136.208C91.2997 135.941 91.3328 135.839 91.384 134.475C91.4453 132.84 91.1917 132.332 90.3128 132.332C90.0392 132.332 89.674 132.488 89.5014 132.679ZM94.3612 132.632C94.2244 132.797 94.0802 133.499 94.0412 134.192C93.9759 135.345 94.0098 135.491 94.4438 135.925C95.016 136.498 95.469 136.526 96.009 136.022C96.3481 135.707 96.4137 135.443 96.4137 134.4C96.4137 132.861 96.1092 132.332 95.2242 132.332C94.8833 132.332 94.4995 132.466 94.3612 132.632ZM99.3079 132.67C98.8328 133.195 98.8772 135.535 99.3717 136.03C99.8714 136.529 100.402 136.495 100.972 135.925C101.409 135.488 101.44 135.35 101.372 134.149C101.315 133.138 101.22 132.789 100.947 132.589C100.456 132.23 99.6712 132.269 99.3079 132.67ZM111.686 132.679C111.435 132.957 111.383 133.318 111.427 134.475C111.478 135.839 111.511 135.941 111.989 136.208C112.446 136.463 112.549 136.463 113.006 136.208C113.485 135.941 113.518 135.839 113.569 134.475C113.63 132.84 113.377 132.332 112.498 132.332C112.224 132.332 111.859 132.488 111.686 132.679ZM116.483 132.743C116.296 133.01 116.195 133.564 116.195 134.323C116.195 135.318 116.263 135.56 116.649 135.946C117.217 136.513 117.681 136.521 118.197 135.972C118.762 135.37 118.783 133.256 118.229 132.702C117.727 132.199 116.849 132.22 116.483 132.743ZM121.493 132.67C121.018 133.195 121.062 135.535 121.557 136.03C122.051 136.524 122.587 136.496 123.137 135.946C123.511 135.572 123.59 135.309 123.59 134.455C123.59 133.44 123.37 132.746 122.962 132.474C122.587 132.224 121.802 132.329 121.493 132.67ZM133.695 132.67C133.22 133.195 133.264 135.535 133.759 136.03C134.253 136.524 134.788 136.496 135.338 135.946C135.712 135.572 135.792 135.309 135.792 134.455C135.792 133.44 135.572 132.746 135.164 132.474C134.789 132.224 134.004 132.329 133.695 132.67ZM138.678 132.615C138.014 133.28 138.066 135.513 138.759 136.074C139.286 136.5 139.773 136.486 140.229 136.03C140.749 135.51 140.771 133.1 140.261 132.638C139.837 132.255 139.05 132.243 138.678 132.615ZM143.557 132.702C143.263 132.996 143.187 133.318 143.187 134.282C143.187 135.32 143.252 135.556 143.641 135.946C143.891 136.195 144.227 136.399 144.389 136.399C144.551 136.399 144.887 136.195 145.137 135.946C145.526 135.556 145.591 135.32 145.591 134.282C145.591 132.924 145.226 132.332 144.389 132.332C144.135 132.332 143.76 132.499 143.557 132.702ZM89.4869 139.84C89.2522 140.075 89.2006 140.454 89.2425 141.636C89.2932 143.054 89.3232 143.15 89.8044 143.418C90.2614 143.673 90.3642 143.673 90.8212 143.418C91.2997 143.151 91.3328 143.049 91.384 141.686C91.4274 140.528 91.3753 140.167 91.1242 139.89C90.7391 139.464 89.8887 139.438 89.4869 139.84ZM94.2982 139.953C94.1112 140.22 94.0103 140.774 94.0103 141.533C94.0103 142.528 94.078 142.77 94.4642 143.156C95.0177 143.709 95.2954 143.723 95.9265 143.226C96.3664 142.881 96.4137 142.723 96.4137 141.604C96.4137 140.065 96.1092 139.542 95.212 139.542C94.7746 139.542 94.4991 139.666 94.2982 139.953ZM99.3079 139.88C98.894 140.338 98.8738 142.716 99.2804 143.122C99.9872 143.829 101.092 143.538 101.332 142.582C101.545 141.732 101.309 140.064 100.936 139.792C100.455 139.44 99.6682 139.482 99.3079 139.88ZM111.679 139.833C111.464 140.048 111.389 140.502 111.389 141.579C111.389 142.873 111.434 143.066 111.8 143.322C112.353 143.709 112.793 143.684 113.237 143.24C113.757 142.72 113.779 140.31 113.269 139.848C112.842 139.462 112.058 139.454 111.679 139.833ZM116.483 139.953C116.296 140.22 116.195 140.774 116.195 141.533C116.195 142.528 116.263 142.77 116.649 143.156C117.203 143.709 117.48 143.723 118.112 143.226C118.551 142.881 118.599 142.723 118.599 141.604C118.599 140.065 118.294 139.542 117.397 139.542C116.96 139.542 116.684 139.666 116.483 139.953ZM121.493 139.88C121.116 140.297 121.061 142.635 121.418 143.102C121.802 143.604 122.539 143.679 123.047 143.268C123.454 142.938 123.498 142.764 123.498 141.485C123.498 140.295 123.44 140.025 123.139 139.805C122.641 139.441 121.858 139.477 121.493 139.88ZM133.695 139.88C133.317 140.297 133.263 142.635 133.62 143.102C134.003 143.604 134.741 143.679 135.249 143.268C135.656 142.938 135.7 142.764 135.7 141.485C135.7 140.295 135.642 140.025 135.341 139.805C134.843 139.441 134.06 139.477 133.695 139.88ZM138.647 139.805C138.346 140.025 138.288 140.295 138.288 141.484C138.288 142.763 138.332 142.938 138.739 143.267C139.247 143.679 139.984 143.604 140.368 143.102C140.503 142.925 140.599 142.25 140.599 141.477C140.599 140.43 140.528 140.09 140.261 139.848C139.846 139.473 139.127 139.454 138.647 139.805ZM143.475 139.953C143.288 140.22 143.187 140.774 143.187 141.533C143.187 142.528 143.255 142.77 143.641 143.156C143.891 143.405 144.227 143.61 144.389 143.61C144.551 143.61 144.887 143.405 145.137 143.156C145.523 142.77 145.591 142.528 145.591 141.533C145.591 140.069 145.273 139.542 144.389 139.542C143.952 139.542 143.676 139.666 143.475 139.953ZM89.494 147.043C89.2795 147.258 89.2035 147.711 89.2035 148.777C89.2035 150.394 89.3842 150.696 90.3488 150.696C91.18 150.696 91.422 150.24 91.422 148.671C91.422 147.163 91.1845 146.752 90.3128 146.752C90.0224 146.752 89.6539 146.883 89.494 147.043ZM94.2982 147.163C94.1112 147.43 94.0103 147.984 94.0103 148.743C94.0103 149.738 94.078 149.98 94.4642 150.366C95.0177 150.92 95.2954 150.933 95.9265 150.436C96.3664 150.091 96.4137 149.933 96.4137 148.814C96.4137 147.275 96.1092 146.752 95.212 146.752C94.7746 146.752 94.4991 146.876 94.2982 147.163ZM99.3161 147.082C99.0826 147.339 99.002 147.766 99.002 148.741C99.002 149.939 99.0445 150.087 99.4891 150.436C100.12 150.933 100.398 150.92 100.951 150.366C101.33 149.988 101.405 149.734 101.403 148.841C101.399 147.387 101.111 146.86 100.282 146.79C99.8278 146.751 99.535 146.84 99.3161 147.082ZM111.58 147.11C111.266 147.697 111.337 150.177 111.676 150.458C112.104 150.814 113.063 150.754 113.356 150.353C113.724 149.85 113.695 147.422 113.317 147.043C112.896 146.623 111.818 146.664 111.58 147.11ZM116.483 147.163C116.296 147.43 116.195 147.984 116.195 148.743C116.195 149.738 116.263 149.98 116.649 150.366C116.899 150.615 117.235 150.82 117.397 150.82C117.559 150.82 117.895 150.615 118.145 150.366C118.531 149.98 118.599 149.738 118.599 148.743C118.599 147.279 118.281 146.752 117.397 146.752C116.96 146.752 116.684 146.876 116.483 147.163ZM121.493 147.091C121.079 147.548 121.059 149.926 121.465 150.332C122.243 151.109 123.301 150.735 123.512 149.608C123.671 148.759 123.516 147.386 123.221 147.03C122.9 146.643 121.865 146.679 121.493 147.091ZM133.695 147.091C133.281 147.548 133.261 149.926 133.667 150.332C134.444 151.109 135.503 150.735 135.714 149.608C135.873 148.759 135.718 147.386 135.422 147.03C135.102 146.643 134.067 146.679 133.695 147.091ZM138.552 147.045C138.233 147.43 138.11 149.295 138.361 149.945C138.609 150.586 139.355 150.903 139.918 150.607C140.527 150.286 140.593 150.099 140.596 148.676C140.598 147.638 140.529 147.301 140.261 147.058C139.832 146.67 138.87 146.663 138.552 147.045ZM143.475 147.163C143.288 147.43 143.187 147.984 143.187 148.743C143.187 149.738 143.255 149.98 143.641 150.366C143.891 150.615 144.227 150.82 144.389 150.82C144.551 150.82 144.887 150.615 145.137 150.366C145.523 149.98 145.591 149.738 145.591 148.743C145.591 147.279 145.273 146.752 144.389 146.752C143.952 146.752 143.676 146.876 143.475 147.163Z" fill="#181818"/>
<path fill-rule="evenodd" clip-rule="evenodd" d="M105.657 75.2015C105.422 75.3503 105.366 76.4187 105.288 82.321L105.199 89.0124C105.197 89.1671 105.107 89.3071 104.967 89.3732L94.4947 94.3243C88.6093 97.1067 83.6384 99.5165 83.4484 99.6792C83.1134 99.966 83.1026 100.866 83.1026 128.515V156.693C83.1026 156.899 82.9487 157.072 82.7445 157.096L82.132 157.167C81.4465 157.247 81.0631 157.401 80.8264 157.69C80.4441 158.157 80.5364 158.907 81.022 159.278C81.2616 159.461 88.8051 159.509 117.305 159.509C156.612 159.509 153.972 159.693 153.972 158.436C153.972 157.625 153.633 157.315 152.597 157.178L152.043 157.105C151.842 157.078 151.692 156.906 151.692 156.703V123.377C151.692 89.7366 151.691 89.695 151.315 89.291C151.107 89.0684 150.768 88.8863 150.56 88.8863C150.352 88.8863 145.62 91.0494 140.044 93.6931C134.469 96.3368 129.858 98.4999 129.799 98.4999C129.74 98.4999 129.69 96.6071 129.689 94.294C129.687 91.3019 129.619 89.9562 129.455 89.6316C129.144 89.018 107.05 75.0196 106.398 75.0234C106.143 75.0251 105.81 75.1052 105.657 75.2015ZM117.49 84.4985L127.007 90.5278C127.125 90.602 127.196 90.7309 127.196 90.8695L127.242 123.876L127.288 156.7C127.289 156.924 127.107 157.106 126.883 157.106H117.398H107.911C107.688 157.106 107.506 156.924 107.506 156.7V117.727C107.506 96.0688 107.569 78.3488 107.645 78.3492C107.721 78.3497 112.151 81.1168 117.49 84.4985ZM105.103 124.475V156.7C105.103 156.924 104.921 157.106 104.698 157.106H95.2114H85.7258C85.5018 157.106 85.3203 156.924 85.3207 156.7L85.3668 129.158L85.4132 101.465C85.4134 101.309 85.5033 101.167 85.6442 101.1L95.212 96.5463C100.601 93.9815 105.031 91.8743 105.057 91.8636C105.082 91.853 105.103 106.528 105.103 124.475ZM149.288 124.567V156.7C149.288 156.924 149.107 157.106 148.883 157.106H139.49H130.096C129.873 157.106 129.691 156.924 129.691 156.7L129.692 129.143L129.694 101.437C129.694 101.28 129.784 101.138 129.925 101.071L139.352 96.6069C144.664 94.0915 149.073 92.0326 149.15 92.0313C149.226 92.0302 149.288 106.671 149.288 124.567ZM89.6145 103.964C89.2496 104.22 89.2035 104.414 89.2035 105.692C89.2035 107.282 89.4605 107.744 90.345 107.744C91.1558 107.744 91.422 107.229 91.422 105.66C91.422 104.415 91.3745 104.219 91.0111 103.964C90.7852 103.806 90.4709 103.676 90.3128 103.676C90.1547 103.676 89.8404 103.806 89.6145 103.964ZM94.4438 104.15C94.007 104.587 93.9757 104.726 94.0436 105.927C94.1247 107.364 94.3934 107.744 95.3292 107.744C96.1009 107.744 96.4137 107.145 96.4137 105.669C96.4137 104.662 96.341 104.343 96.0439 104.046C95.5442 103.546 95.0133 103.581 94.4438 104.15ZM99.3717 104.046C99.0746 104.343 99.002 104.662 99.002 105.669C99.002 107.139 99.3161 107.745 100.076 107.741C101.027 107.735 101.405 107.133 101.405 105.621C101.405 104.766 101.325 104.504 100.951 104.13C100.401 103.58 99.8662 103.552 99.3717 104.046ZM111.8 103.964C111.435 104.22 111.389 104.414 111.389 105.692C111.389 107.282 111.646 107.744 112.53 107.744C113.341 107.744 113.607 107.229 113.607 105.66C113.607 104.415 113.56 104.219 113.196 103.964C112.97 103.806 112.656 103.676 112.498 103.676C112.34 103.676 112.026 103.806 111.8 103.964ZM116.579 104.164C116.282 104.541 116.195 104.917 116.195 105.827C116.195 107.186 116.569 107.744 117.479 107.744C118.288 107.744 118.599 107.169 118.599 105.676C118.599 104.633 118.533 104.369 118.194 104.053C117.642 103.539 117.037 103.58 116.579 104.164ZM121.557 104.046C121.254 104.349 121.187 104.662 121.187 105.774C121.187 107.269 121.46 107.746 122.311 107.741C123.21 107.735 123.59 107.105 123.59 105.621C123.59 104.766 123.511 104.504 123.137 104.13C122.587 103.58 122.051 103.552 121.557 104.046ZM133.759 104.046C133.456 104.349 133.389 104.662 133.389 105.774C133.389 107.269 133.662 107.746 134.513 107.741C135.411 107.735 135.792 107.105 135.792 105.621C135.792 104.766 135.712 104.504 135.338 104.13C134.788 103.58 134.253 103.552 133.759 104.046ZM138.725 104.03C138.341 104.34 138.288 104.541 138.288 105.674C138.288 107.145 138.636 107.744 139.49 107.744C140.32 107.744 140.599 107.24 140.599 105.742C140.599 104.662 140.53 104.347 140.229 104.046C139.765 103.582 139.284 103.576 138.725 104.03ZM143.571 104.164C143.274 104.541 143.187 104.917 143.187 105.827C143.187 107.186 143.561 107.744 144.471 107.744C145.275 107.744 145.591 107.168 145.591 105.701C145.591 104.664 145.526 104.42 145.163 104.078C144.591 103.542 144.036 103.571 143.571 104.164ZM89.6145 110.99C89.2496 111.245 89.2035 111.439 89.2035 112.717C89.2035 114.307 89.4605 114.769 90.345 114.769C91.1558 114.769 91.422 114.254 91.422 112.685C91.422 111.44 91.3745 111.244 91.0111 110.99C90.7852 110.831 90.4709 110.702 90.3128 110.702C90.1547 110.702 89.8404 110.831 89.6145 110.99ZM94.3758 111.21C94.0325 111.645 93.9852 111.9 94.046 112.987C94.1227 114.354 94.4021 114.769 95.2473 114.769C96.0672 114.769 96.4137 114.165 96.4137 112.735C96.4137 111.688 96.3433 111.371 96.0439 111.071C95.5206 110.548 94.8541 110.604 94.3758 111.21ZM99.3717 111.071C99.0746 111.369 99.002 111.688 99.002 112.694C99.002 114.164 99.3161 114.77 100.076 114.766C101.021 114.761 101.405 114.158 101.405 112.68C101.405 111.001 100.309 110.134 99.3717 111.071ZM111.8 110.99C111.435 111.245 111.389 111.439 111.389 112.717C111.389 114.307 111.646 114.769 112.53 114.769C113.341 114.769 113.607 114.254 113.607 112.685C113.607 111.44 113.56 111.244 113.196 110.99C112.97 110.831 112.656 110.702 112.498 110.702C112.34 110.702 112.026 110.831 111.8 110.99ZM116.579 111.189C116.282 111.566 116.195 111.942 116.195 112.853C116.195 114.176 116.568 114.769 117.397 114.769C118.252 114.769 118.599 114.183 118.599 112.735C118.599 111.688 118.528 111.371 118.229 111.071C117.713 110.555 117.039 110.603 116.579 111.189ZM121.557 111.071C121.254 111.374 121.187 111.688 121.187 112.799C121.187 114.308 121.458 114.769 122.344 114.769C123.116 114.769 123.59 113.995 123.59 112.735C123.59 111.001 122.511 110.117 121.557 111.071ZM133.759 111.071C133.456 111.374 133.389 111.688 133.389 112.799C133.389 114.308 133.659 114.769 134.545 114.769C135.317 114.769 135.792 113.995 135.792 112.735C135.792 111.001 134.713 110.117 133.759 111.071ZM138.725 111.055C138.341 111.365 138.288 111.566 138.288 112.7C138.288 114.17 138.636 114.769 139.49 114.769C140.333 114.769 140.599 114.27 140.599 112.685C140.599 111.44 140.551 111.244 140.188 110.99C139.645 110.609 139.254 110.626 138.725 111.055ZM143.557 111.071C143.258 111.371 143.187 111.688 143.187 112.735C143.187 114.183 143.534 114.769 144.389 114.769C145.244 114.769 145.591 114.183 145.591 112.735C145.591 111.288 145.244 110.702 144.389 110.702C144.135 110.702 143.76 110.868 143.557 111.071ZM89.5095 118.25C89.2819 118.501 89.2035 118.944 89.2035 119.978C89.2035 121.514 89.4688 121.979 90.345 121.979C91.1558 121.979 91.422 121.464 91.422 119.895C91.422 118.65 91.3745 118.454 91.0111 118.2C90.4642 117.816 89.8841 117.836 89.5095 118.25ZM94.6389 118.053C93.9136 118.537 93.7604 120.687 94.3936 121.492C94.8539 122.077 95.528 122.125 96.0439 121.609C96.3433 121.31 96.4137 120.993 96.4137 119.945C96.4137 118.898 96.3433 118.581 96.0439 118.282C95.6712 117.909 95.0147 117.802 94.6389 118.053ZM99.3717 118.282C99.0724 118.581 99.002 118.898 99.002 119.945C99.002 120.993 99.0724 121.31 99.3717 121.609C100.326 122.563 101.405 121.68 101.405 119.945C101.405 118.211 100.326 117.328 99.3717 118.282ZM111.695 118.25C111.467 118.501 111.389 118.944 111.389 119.978C111.389 121.514 111.654 121.979 112.53 121.979C113.341 121.979 113.607 121.464 113.607 119.895C113.607 118.65 113.56 118.454 113.196 118.2C112.649 117.816 112.069 117.836 111.695 118.25ZM116.664 118.161C116.294 118.432 116.055 120.1 116.266 120.941C116.522 121.963 117.532 122.306 118.229 121.609C118.528 121.31 118.599 120.993 118.599 119.945C118.599 118.898 118.528 118.581 118.229 118.282C117.801 117.853 117.153 117.804 116.664 118.161ZM121.493 118.25C121.018 118.775 121.062 121.115 121.557 121.609C122.511 122.563 123.59 121.68 123.59 119.945C123.59 119.154 123.494 118.763 123.207 118.399C122.751 117.819 121.946 117.749 121.493 118.25ZM133.8 118.2C133.438 118.453 133.389 118.651 133.389 119.864C133.389 120.993 133.455 121.306 133.759 121.609C134.713 122.563 135.792 121.68 135.792 119.945C135.792 118.246 134.878 117.444 133.8 118.2ZM138.64 118.301C138.367 118.603 138.288 118.97 138.288 119.945C138.288 120.921 138.367 121.288 138.64 121.59C139.058 122.051 139.621 122.088 140.188 121.691C140.554 121.435 140.599 121.243 140.599 119.945C140.599 118.648 140.554 118.456 140.188 118.2C139.621 117.803 139.058 117.84 138.64 118.301ZM143.557 118.282C143.258 118.581 143.187 118.898 143.187 119.945C143.187 121.393 143.534 121.979 144.389 121.979C145.244 121.979 145.591 121.393 145.591 119.945C145.591 118.498 145.244 117.912 144.389 117.912C144.135 117.912 143.76 118.078 143.557 118.282ZM89.5014 125.469C89.2503 125.747 89.1982 126.108 89.2416 127.265C89.2928 128.629 89.3259 128.731 89.8044 128.998C90.2614 129.253 90.3642 129.253 90.8212 128.998C91.2997 128.731 91.3328 128.629 91.384 127.265C91.4453 125.629 91.1917 125.122 90.3128 125.122C90.0392 125.122 89.674 125.278 89.5014 125.469ZM94.4688 125.379C94.1972 125.578 94.1009 125.925 94.046 126.904C93.9852 127.991 94.0325 128.245 94.3758 128.681C94.8541 129.287 95.5206 129.343 96.0439 128.82C96.3433 128.52 96.4137 128.203 96.4137 127.156C96.4137 126.108 96.3433 125.791 96.0439 125.492C95.6128 125.061 94.9676 125.014 94.4688 125.379ZM99.3717 125.492C99.0724 125.791 99.002 126.108 99.002 127.156C99.002 128.203 99.0724 128.52 99.3717 128.82C99.8877 129.335 100.562 129.288 101.022 128.702C101.655 127.897 101.502 125.748 100.777 125.263C100.401 125.012 99.7444 125.119 99.3717 125.492ZM111.686 125.469C111.435 125.747 111.383 126.108 111.427 127.265C111.478 128.629 111.511 128.731 111.989 128.998C112.446 129.253 112.549 129.253 113.006 128.998C113.485 128.731 113.518 128.629 113.569 127.265C113.63 125.629 113.377 125.122 112.498 125.122C112.224 125.122 111.859 125.278 111.686 125.469ZM116.565 125.492C116.029 126.028 116.037 128.014 116.579 128.702C117.039 129.288 117.713 129.335 118.229 128.82C118.528 128.52 118.599 128.203 118.599 127.156C118.599 125.708 118.252 125.122 117.397 125.122C117.143 125.122 116.769 125.288 116.565 125.492ZM121.598 125.41C121.236 125.663 121.187 125.861 121.187 127.074C121.187 128.203 121.253 128.516 121.557 128.82C122.051 129.314 122.587 129.286 123.137 128.735C123.516 128.356 123.59 128.103 123.59 127.189C123.59 125.455 122.686 124.647 121.598 125.41ZM133.695 125.46C133.22 125.985 133.264 128.325 133.759 128.82C134.253 129.314 134.788 129.286 135.338 128.735C135.954 128.12 135.994 126.352 135.409 125.609C134.953 125.03 134.148 124.959 133.695 125.46ZM138.652 125.499C138.218 125.978 138.077 127.793 138.423 128.447C138.775 129.113 139.525 129.33 140.123 128.938C140.567 128.647 140.599 128.53 140.599 127.18C140.599 126.014 140.534 125.675 140.261 125.428C139.8 125.011 139.064 125.043 138.652 125.499ZM143.557 125.492C143.021 126.028 143.029 128.014 143.571 128.702C144.04 129.299 144.703 129.333 145.214 128.785C145.517 128.46 145.591 128.133 145.591 127.121C145.591 125.711 145.237 125.122 144.389 125.122C144.135 125.122 143.76 125.288 143.557 125.492ZM89.5014 132.679C89.2503 132.957 89.1982 133.318 89.2416 134.475C89.2928 135.839 89.3259 135.941 89.8044 136.208C90.2614 136.463 90.3642 136.463 90.8212 136.208C91.2997 135.941 91.3328 135.839 91.384 134.475C91.4453 132.84 91.1917 132.332 90.3128 132.332C90.0392 132.332 89.674 132.488 89.5014 132.679ZM94.3612 132.632C94.2244 132.797 94.0802 133.499 94.0412 134.192C93.9759 135.345 94.0098 135.491 94.4438 135.925C95.016 136.498 95.469 136.526 96.009 136.022C96.3481 135.707 96.4137 135.443 96.4137 134.4C96.4137 132.861 96.1092 132.332 95.2242 132.332C94.8833 132.332 94.4995 132.466 94.3612 132.632ZM99.3079 132.67C98.8328 133.195 98.8772 135.535 99.3717 136.03C99.8714 136.529 100.402 136.495 100.972 135.925C101.409 135.488 101.44 135.35 101.372 134.149C101.315 133.138 101.22 132.789 100.947 132.589C100.456 132.23 99.6712 132.269 99.3079 132.67ZM111.686 132.679C111.435 132.957 111.383 133.318 111.427 134.475C111.478 135.839 111.511 135.941 111.989 136.208C112.446 136.463 112.549 136.463 113.006 136.208C113.485 135.941 113.518 135.839 113.569 134.475C113.63 132.84 113.377 132.332 112.498 132.332C112.224 132.332 111.859 132.488 111.686 132.679ZM116.483 132.743C116.296 133.01 116.195 133.564 116.195 134.323C116.195 135.318 116.263 135.56 116.649 135.946C117.217 136.513 117.681 136.521 118.197 135.972C118.762 135.37 118.783 133.256 118.229 132.702C117.727 132.199 116.849 132.22 116.483 132.743ZM121.493 132.67C121.018 133.195 121.062 135.535 121.557 136.03C122.051 136.524 122.587 136.496 123.137 135.946C123.511 135.572 123.59 135.309 123.59 134.455C123.59 133.44 123.37 132.746 122.962 132.474C122.587 132.224 121.802 132.329 121.493 132.67ZM133.695 132.67C133.22 133.195 133.264 135.535 133.759 136.03C134.253 136.524 134.788 136.496 135.338 135.946C135.712 135.572 135.792 135.309 135.792 134.455C135.792 133.44 135.572 132.746 135.164 132.474C134.789 132.224 134.004 132.329 133.695 132.67ZM138.678 132.615C138.014 133.28 138.066 135.513 138.759 136.074C139.286 136.5 139.773 136.486 140.229 136.03C140.749 135.51 140.771 133.1 140.261 132.638C139.837 132.255 139.05 132.243 138.678 132.615ZM143.557 132.702C143.263 132.996 143.187 133.318 143.187 134.282C143.187 135.32 143.252 135.556 143.641 135.946C143.891 136.195 144.227 136.399 144.389 136.399C144.551 136.399 144.887 136.195 145.137 135.946C145.526 135.556 145.591 135.32 145.591 134.282C145.591 132.924 145.226 132.332 144.389 132.332C144.135 132.332 143.76 132.499 143.557 132.702ZM89.4869 139.84C89.2522 140.075 89.2006 140.454 89.2425 141.636C89.2932 143.054 89.3232 143.15 89.8044 143.418C90.2614 143.673 90.3642 143.673 90.8212 143.418C91.2997 143.151 91.3328 143.049 91.384 141.686C91.4274 140.528 91.3753 140.167 91.1242 139.89C90.7391 139.464 89.8887 139.438 89.4869 139.84ZM94.2982 139.953C94.1112 140.22 94.0103 140.774 94.0103 141.533C94.0103 142.528 94.078 142.77 94.4642 143.156C95.0177 143.709 95.2954 143.723 95.9265 143.226C96.3664 142.881 96.4137 142.723 96.4137 141.604C96.4137 140.065 96.1092 139.542 95.212 139.542C94.7746 139.542 94.4991 139.666 94.2982 139.953ZM99.3079 139.88C98.894 140.338 98.8738 142.716 99.2804 143.122C99.9872 143.829 101.092 143.538 101.332 142.582C101.545 141.732 101.309 140.064 100.936 139.792C100.455 139.44 99.6682 139.482 99.3079 139.88ZM111.679 139.833C111.464 140.048 111.389 140.502 111.389 141.579C111.389 142.873 111.434 143.066 111.8 143.322C112.353 143.709 112.793 143.684 113.237 143.24C113.757 142.72 113.779 140.31 113.269 139.848C112.842 139.462 112.058 139.454 111.679 139.833ZM116.483 139.953C116.296 140.22 116.195 140.774 116.195 141.533C116.195 142.528 116.263 142.77 116.649 143.156C117.203 143.709 117.48 143.723 118.112 143.226C118.551 142.881 118.599 142.723 118.599 141.604C118.599 140.065 118.294 139.542 117.397 139.542C116.96 139.542 116.684 139.666 116.483 139.953ZM121.493 139.88C121.116 140.297 121.061 142.635 121.418 143.102C121.802 143.604 122.539 143.679 123.047 143.268C123.454 142.938 123.498 142.764 123.498 141.485C123.498 140.295 123.44 140.025 123.139 139.805C122.641 139.441 121.858 139.477 121.493 139.88ZM133.695 139.88C133.317 140.297 133.263 142.635 133.62 143.102C134.003 143.604 134.741 143.679 135.249 143.268C135.656 142.938 135.7 142.764 135.7 141.485C135.7 140.295 135.642 140.025 135.341 139.805C134.843 139.441 134.06 139.477 133.695 139.88ZM138.647 139.805C138.346 140.025 138.288 140.295 138.288 141.484C138.288 142.763 138.332 142.938 138.739 143.267C139.247 143.679 139.984 143.604 140.368 143.102C140.503 142.925 140.599 142.25 140.599 141.477C140.599 140.43 140.528 140.09 140.261 139.848C139.846 139.473 139.127 139.454 138.647 139.805ZM143.475 139.953C143.288 140.22 143.187 140.774 143.187 141.533C143.187 142.528 143.255 142.77 143.641 143.156C143.891 143.405 144.227 143.61 144.389 143.61C144.551 143.61 144.887 143.405 145.137 143.156C145.523 142.77 145.591 142.528 145.591 141.533C145.591 140.069 145.273 139.542 144.389 139.542C143.952 139.542 143.676 139.666 143.475 139.953ZM89.494 147.043C89.2795 147.258 89.2035 147.711 89.2035 148.777C89.2035 150.394 89.3842 150.696 90.3488 150.696C91.18 150.696 91.422 150.24 91.422 148.671C91.422 147.163 91.1845 146.752 90.3128 146.752C90.0224 146.752 89.6539 146.883 89.494 147.043ZM94.2982 147.163C94.1112 147.43 94.0103 147.984 94.0103 148.743C94.0103 149.738 94.078 149.98 94.4642 150.366C95.0177 150.92 95.2954 150.933 95.9265 150.436C96.3664 150.091 96.4137 149.933 96.4137 148.814C96.4137 147.275 96.1092 146.752 95.212 146.752C94.7746 146.752 94.4991 146.876 94.2982 147.163ZM99.3161 147.082C99.0826 147.339 99.002 147.766 99.002 148.741C99.002 149.939 99.0445 150.087 99.4891 150.436C100.12 150.933 100.398 150.92 100.951 150.366C101.33 149.988 101.405 149.734 101.403 148.841C101.399 147.387 101.111 146.86 100.282 146.79C99.8278 146.751 99.535 146.84 99.3161 147.082ZM111.58 147.11C111.266 147.697 111.337 150.177 111.676 150.458C112.104 150.814 113.063 150.754 113.356 150.353C113.724 149.85 113.695 147.422 113.317 147.043C112.896 146.623 111.818 146.664 111.58 147.11ZM116.483 147.163C116.296 147.43 116.195 147.984 116.195 148.743C116.195 149.738 116.263 149.98 116.649 150.366C116.899 150.615 117.235 150.82 117.397 150.82C117.559 150.82 117.895 150.615 118.145 150.366C118.531 149.98 118.599 149.738 118.599 148.743C118.599 147.279 118.281 146.752 117.397 146.752C116.96 146.752 116.684 146.876 116.483 147.163ZM121.493 147.091C121.079 147.548 121.059 149.926 121.465 150.332C122.243 151.109 123.301 150.735 123.512 149.608C123.671 148.759 123.516 147.386 123.221 147.03C122.9 146.643 121.865 146.679 121.493 147.091ZM133.695 147.091C133.281 147.548 133.261 149.926 133.667 150.332C134.444 151.109 135.503 150.735 135.714 149.608C135.873 148.759 135.718 147.386 135.422 147.03C135.102 146.643 134.067 146.679 133.695 147.091ZM138.552 147.045C138.233 147.43 138.11 149.295 138.361 149.945C138.609 150.586 139.355 150.903 139.918 150.607C140.527 150.286 140.593 150.099 140.596 148.676C140.598 147.638 140.529 147.301 140.261 147.058C139.832 146.67 138.87 146.663 138.552 147.045ZM143.475 147.163C143.288 147.43 143.187 147.984 143.187 148.743C143.187 149.738 143.255 149.98 143.641 150.366C143.891 150.615 144.227 150.82 144.389 150.82C144.551 150.82 144.887 150.615 145.137 150.366C145.523 149.98 145.591 149.738 145.591 148.743C145.591 147.279 145.273 146.752 144.389 146.752C143.952 146.752 143.676 146.876 143.475 147.163Z" stroke="black" stroke-width="0.580606" mask="url(#path-2-outside-1_1901_1000)"/>
</svg>
