<svg width="160" height="160" viewBox="0 0 160 160" fill="none" xmlns="http://www.w3.org/2000/svg">
<rect width="160" height="160" rx="12.4138" fill="#F37021"/>
<path fill-rule="evenodd" clip-rule="evenodd" d="M52.0333 46.198C51.8242 46.307 51.5053 46.5735 51.3247 46.7903C51.052 47.1173 50.9968 47.279 51.0001 47.7397C51.0039 48.2585 51.531 49.3157 59.0735 63.9315L67.143 79.5683L67.1979 96.1734L67.2529 112.779L67.5453 113.208C68.2563 114.251 69.7386 114.248 70.543 113.202C70.7693 112.908 70.7696 112.89 70.798 95.8794L70.8265 78.8515L63.5174 64.7296C59.4974 56.9626 56.2083 50.4889 56.2083 50.3436C56.2083 50.1984 56.3028 49.9662 56.4183 49.8276L56.6284 49.5756L61.2263 49.5486L65.8242 49.5217L73.653 64.6692L81.4817 79.8166L81.4838 96.2579C81.4849 105.701 81.5277 112.804 81.5843 112.944C81.6386 113.079 81.8565 113.351 82.0689 113.549C82.4751 113.927 83.1507 114.09 83.7287 113.949C84.0903 113.86 84.7738 113.276 84.9038 112.944C84.9641 112.79 85.004 106.063 85.0022 96.3314L84.9991 79.9775L96.5766 64.234C102.944 55.5751 108.186 48.3744 108.225 48.2326C108.431 47.4852 108.076 46.6657 107.372 46.2653C106.485 45.7603 105.607 46.0036 104.865 46.9606C104.66 47.2248 99.8526 53.757 94.1824 61.4766C88.5121 69.1962 83.7841 75.6035 83.6758 75.7149C83.4851 75.9111 83.2371 75.4475 75.778 60.9587L68.077 46H60.2453C52.827 46 52.3934 46.0105 52.0333 46.198Z" fill="white"/>
</svg>
