<svg width="233" height="233" viewBox="0 0 233 233" fill="none" xmlns="http://www.w3.org/2000/svg">
<rect x="0.756836" y="0.300781" width="232.242" height="232.242" rx="18.0188" fill="#F37021"/>
<path fill-rule="evenodd" clip-rule="evenodd" d="M76.4998 67.3577C76.1964 67.5159 75.7335 67.9027 75.4712 68.2174C75.0755 68.6921 74.9954 68.9268 75.0002 69.5955C75.0056 70.3486 75.7708 71.8831 86.7189 93.0982L98.4318 115.795L98.5116 139.898L98.5913 164.001L99.0158 164.623C100.048 166.138 102.199 166.134 103.367 164.615C103.696 164.188 103.696 164.162 103.737 139.471L103.778 114.755L93.1692 94.2566C87.3341 82.9827 82.56 73.586 82.56 73.3751C82.56 73.1644 82.6972 72.8273 82.8648 72.6262L83.1696 72.2604L89.8436 72.2212L96.5176 72.1822L107.881 94.1689L119.245 116.156L119.248 140.02C119.249 153.727 119.311 164.037 119.394 164.241C119.472 164.437 119.789 164.832 120.097 165.118C120.687 165.667 121.667 165.903 122.506 165.699C123.031 165.571 124.023 164.723 124.212 164.241C124.299 164.017 124.357 154.253 124.355 140.127L124.35 116.389L141.155 93.5373C150.398 80.9687 158.006 70.5168 158.063 70.3109C158.362 69.2261 157.846 68.0366 156.825 67.4555C155.537 66.7223 154.263 67.0756 153.185 68.4647C152.888 68.8481 145.91 78.3297 137.68 89.5349C129.449 100.74 122.587 110.04 122.429 110.202C122.153 110.487 121.793 109.814 110.966 88.7832L99.7875 67.0703H88.4196C77.652 67.0703 77.0225 67.0855 76.4998 67.3577Z" fill="white"/>
</svg>
