<svg width="233" height="234" viewBox="0 0 233 234" fill="none" xmlns="http://www.w3.org/2000/svg">
<rect y="0.996094" width="232.242" height="232.242" rx="18.0188" fill="#4CB944"/>
<path d="M102.679 83.2639C105.303 79.1809 108.698 76.6192 113.344 75.2197C117.405 73.9954 122.076 74.3278 127.148 76.2021C131.854 77.9413 133.834 79.2252 138.702 83.6902C141.941 86.6601 147.144 94.6445 147.037 96.4782C147.002 97.0718 145.264 97.2749 142.235 97.0395C137.629 96.6802 137.235 96.8258 128.964 101.937C121.349 106.644 120.032 107.18 116.624 106.966C112.069 106.679 107.168 103.932 104.384 100.104C100.876 95.2808 103.022 94.0465 106.847 98.6881C112.818 105.933 118.289 106.021 128.65 99.0363C134.154 95.3263 135.986 94.5297 140.127 94.046L143.556 93.6462L139.464 88.6442C129.577 76.5561 115.014 73.6461 107.016 82.1596C105.322 83.9635 104.041 85.5616 104.17 85.7112C104.3 85.86 105.673 85.6887 107.221 85.3307C110.781 84.5066 124.205 85.2789 125.725 86.3955C127.798 87.9191 125.874 88.2409 116.996 87.8583C108.843 87.5066 107.831 87.6509 102.666 89.8897C99.4501 91.2839 95.8755 93.6125 94.1809 95.4156C92.5709 97.1298 90.834 98.5076 90.3211 98.4776C88.1754 98.352 89.8567 95.8072 94.8982 91.5508C97.8521 89.0555 101.354 85.3271 102.679 83.2639Z" fill="white"/>
<path d="M151.439 112.126C150.862 110.094 150.397 108.291 150.407 108.12C150.417 107.95 150.958 107.842 151.609 107.88C153.289 107.978 154.101 110.229 154.846 116.857C155.205 120.041 155.935 123.244 156.47 123.978C159.967 128.772 160.293 138.677 157.145 144.445C152.065 153.751 139.088 160.312 127.143 159.613C123.267 159.386 122.445 158.08 124.878 156.014C128.004 153.36 128.599 150.834 128.631 140.081C128.658 130.661 128.79 129.781 130.61 126.877C133.471 122.313 139.985 118.829 145.098 119.128C147.991 119.298 146.264 121.379 142.58 122.16C137.829 123.169 134.353 125.362 132.532 128.501C131.376 130.494 131.124 132.692 131.098 141.02C131.073 149.306 130.805 151.669 129.604 154.182L128.141 157.244L131.171 156.904C149.147 154.885 160.624 142.005 155.961 129.083L154.822 125.928L153.624 129.21C151.153 135.978 144.536 145.678 142.472 145.557C141.133 145.479 141.792 143.968 145.308 139.053C151.664 130.168 153.844 120.596 151.439 112.126Z" fill="white"/>
<path d="M79.8988 146.044C73.3804 137.239 73.4544 122.906 80.0775 111.272C82.3743 107.239 84.8986 105.867 84.7368 108.742C84.5234 112.512 87.5666 115.871 94.9318 119.996C98.9584 122.251 103.207 124.963 104.374 126.021C107.162 128.552 108.459 132.569 108.157 137.734C107.862 142.769 105.514 148.296 104.275 146.868C103.683 146.185 103.78 145.072 104.62 142.906C106.324 138.51 105.89 132.195 103.694 129.449C102.7 128.205 98.7117 125.359 94.8313 123.124C87.0149 118.622 86.1286 117.927 83.878 114.539L82.3216 112.195L80.7011 115.599C78.5734 120.067 77.1653 132.177 78.269 136.51C80.2979 144.473 86.4133 150.583 92.7228 150.952L95.3692 151.107L91.9423 146.705C88.9532 142.866 85.4219 135.705 84.8304 132.286C84.7238 131.67 85.0832 131.026 85.6296 130.855C86.2065 130.676 87.696 133.097 89.1827 136.632C93.4011 146.66 99.8122 152.77 108.765 155.295C111.21 155.984 112.666 156.811 112.434 157.376C111.884 158.715 106.452 157.764 102.348 155.611C100.197 154.483 97.0542 153.691 93.9635 153.499C87.6876 153.108 83.4756 150.876 79.8988 146.044Z" fill="white"/>
</svg>
