<svg width="197" height="197" viewBox="0 0 197 197" fill="none" xmlns="http://www.w3.org/2000/svg">
<rect y="0.0683594" width="196.364" height="196.364" rx="15.2352" fill="#4CB944"/>
<path d="M86.8158 69.6262C89.0343 66.1739 91.9051 64.008 95.8331 62.8247C99.2674 61.7896 103.217 62.0706 107.505 63.6554C111.484 65.1258 113.158 66.2114 117.274 69.9866C120.013 72.4977 124.412 79.2486 124.321 80.7991C124.292 81.301 122.823 81.4727 120.262 81.2736C116.367 80.9698 116.034 81.0929 109.04 85.4148C102.602 89.394 101.488 89.8479 98.6066 89.6666C94.7558 89.4244 90.6117 87.1014 88.2578 83.8647C85.2914 79.7866 87.1058 78.7431 90.3402 82.6676C95.3889 88.7934 100.014 88.8675 108.775 82.962C113.429 79.8251 114.978 79.1516 118.479 78.7426L121.378 78.4045L117.919 74.1753C109.558 63.9547 97.2457 61.4942 90.4833 68.6925C89.0504 70.2177 87.9676 71.5689 88.0766 71.6954C88.1864 71.8212 89.3473 71.6764 90.6566 71.3737C93.6668 70.6769 105.017 71.3299 106.301 72.274C108.055 73.5622 106.428 73.8343 98.9212 73.5108C92.0281 73.2134 91.1721 73.3354 86.8051 75.2284C84.086 76.4072 81.0636 78.3761 79.6308 79.9006C78.2695 81.35 76.8009 82.515 76.3673 82.4896C74.5531 82.3834 75.9746 80.2317 80.2373 76.6329C82.7348 74.523 85.6956 71.3706 86.8158 69.6262Z" fill="white"/>
<path d="M128.043 94.0297C127.555 92.3112 127.163 90.7866 127.171 90.6424C127.18 90.4982 127.636 90.407 128.187 90.4392C129.608 90.5223 130.294 92.4252 130.924 98.0298C131.227 100.721 131.845 103.43 132.297 104.051C135.254 108.104 135.53 116.479 132.868 121.355C128.573 129.224 117.6 134.771 107.501 134.18C104.223 133.988 103.529 132.884 105.586 131.137C108.229 128.893 108.731 126.758 108.759 117.666C108.781 109.701 108.894 108.957 110.432 106.501C112.851 102.643 118.359 99.6971 122.682 99.9502C125.128 100.093 123.667 101.853 120.553 102.514C116.535 103.366 113.597 105.221 112.057 107.875C111.08 109.56 110.867 111.418 110.845 118.459C110.823 125.466 110.597 127.464 109.581 129.588L108.344 132.177L110.907 131.89C126.105 130.183 135.809 119.293 131.866 108.367L130.904 105.699L129.891 108.474C127.801 114.197 122.207 122.398 120.461 122.296C119.329 122.23 119.886 120.952 122.859 116.797C128.233 109.284 130.077 101.191 128.043 94.0297Z" fill="white"/>
<path d="M67.5551 122.708C62.0437 115.263 62.1063 103.144 67.7062 93.3077C69.6481 89.8975 71.7824 88.7378 71.6457 91.1685C71.4653 94.3558 74.0383 97.1958 80.2657 100.684C83.6703 102.59 87.2626 104.883 88.2489 105.778C90.6067 107.918 91.7035 111.314 91.4479 115.681C91.1987 119.939 89.213 124.612 88.1655 123.404C87.6649 122.827 87.7467 121.886 88.4568 120.054C89.898 116.338 89.5309 110.998 87.6744 108.676C86.8336 107.625 83.4616 105.218 80.1807 103.329C73.5719 99.5221 72.8224 98.9346 70.9196 96.0699L69.6036 94.0881L68.2334 96.9663C66.4344 100.744 65.2438 110.983 66.177 114.646C67.8925 121.379 73.0631 126.546 78.398 126.858L80.6355 126.989L77.738 123.267C75.2107 120.02 72.2249 113.966 71.7248 111.075C71.6347 110.554 71.9385 110.01 72.4005 109.865C72.8884 109.714 74.1477 111.761 75.4048 114.75C78.9715 123.228 84.3922 128.395 91.9622 130.529C94.0294 131.112 95.2602 131.811 95.0643 132.289C94.5993 133.421 90.0058 132.617 86.5366 130.797C84.7171 129.843 82.0602 129.174 79.447 129.011C74.1406 128.681 70.5793 126.793 67.5551 122.708Z" fill="white"/>
</svg>
