<svg width="160" height="160" viewBox="0 0 160 160" fill="none" xmlns="http://www.w3.org/2000/svg">
<rect width="160" height="160" rx="12.375" fill="#7D8491"/>
<path fill-rule="evenodd" clip-rule="evenodd" d="M78.7644 51.0876C76.4301 51.3946 74.436 52.1507 72.4295 53.4896C71.1992 54.3105 69.3937 56.1355 68.5857 57.375C65.6668 61.852 65.3149 67.3256 67.6437 72.0267C69.3774 75.5263 72.3617 78.1423 76.0013 79.3526L76.8774 79.644V81.0802V82.5163L76.4056 82.5725C75.3511 82.698 74.0801 83.6179 73.6745 84.5491C73.5884 84.7467 73.4753 84.911 73.4231 84.9143C73.3708 84.9176 72.9686 84.915 72.5293 84.9086C72.09 84.9021 71.1629 84.926 70.469 84.9616L69.2076 85.0266L68.8866 85.3244C68.5671 85.6209 68.5654 85.6263 68.5344 86.4941L68.5033 87.3659L61.2111 87.3657L53.919 87.3655L53.6629 86.869C53.3544 86.2709 52.7233 85.6526 52.0664 85.3046C51.6185 85.0673 51.5062 85.0482 50.5493 85.0467C49.5853 85.0451 49.4806 85.0629 48.9875 85.3115C48.2808 85.668 47.6238 86.351 47.2794 87.0872L47 87.6845V97.1054V106.526L47.241 107.047C47.8978 108.466 49.3293 109.311 50.8588 109.181C52.0324 109.081 53.1875 108.286 53.6943 107.229L53.919 106.76L61.1974 106.78L68.4758 106.799L68.5207 107.619C68.5707 108.53 68.6688 108.775 69.088 109.034C69.3674 109.206 69.6416 109.211 80.4537 109.211C92.5832 109.211 91.8353 109.245 92.2321 108.681C92.3768 108.475 92.4207 108.25 92.4413 107.61L92.4675 106.799L99.7459 106.778L107.024 106.756L107.249 107.223C107.974 108.732 109.796 109.543 111.388 109.065C112.397 108.762 113.255 108.014 113.702 107.047L113.943 106.526V97.1054V87.6845L113.732 87.154C113.459 86.4698 112.694 85.6713 111.966 85.3114C111.47 85.066 111.349 85.0448 110.439 85.0448C109.55 85.0448 109.398 85.0698 108.926 85.2939C108.307 85.5876 107.462 86.4194 107.213 86.9812L107.042 87.3659H99.741H92.4399L92.4088 86.4941L92.3776 85.6223L92.042 85.3108L91.7063 84.9993H89.6014H87.4964L87.2925 84.567C87.1802 84.3292 86.84 83.886 86.5365 83.5822C86.0974 83.1427 85.8517 82.9799 85.3346 82.7858C84.9771 82.6516 84.5454 82.5417 84.3753 82.5417H84.0659V81.1009V79.6602L84.9027 79.3801C88.5836 78.1484 91.6241 75.49 93.3109 72.0286C95.6066 67.3178 95.2957 61.9513 92.4726 57.556C90.3208 54.2059 86.7847 51.8634 82.8536 51.184C81.6903 50.9829 79.8839 50.9403 78.7644 51.0876ZM83.0775 53.6743C85.9793 54.3581 88.5739 56.1145 90.2905 58.5572C90.9807 59.5393 91.7536 61.2208 92.0619 62.4109C92.4245 63.8104 92.5405 65.9351 92.331 67.3409C91.9606 69.828 90.8113 72.1617 89.0661 73.9706C87.4375 75.6585 85.6804 76.6885 83.347 77.3232C82.4486 77.5677 82.3114 77.5798 80.4716 77.5777C78.6475 77.5757 78.4875 77.5614 77.6047 77.3227C75.2603 76.689 73.4039 75.5896 71.792 73.8804C69.655 71.6144 68.5207 68.7155 68.5207 65.5205C68.5207 59.6335 72.6195 54.6618 78.36 53.5858C79.5579 53.3613 81.9385 53.4059 83.0775 53.6743ZM79.1687 55.9232C79.0699 55.9461 78.7666 56.0105 78.4948 56.0663C74.8188 56.821 71.9023 59.7785 71.1275 63.5367C70.9194 64.5461 70.8726 65.6655 71.0231 66.0327C71.2881 66.6793 72.2287 66.9151 72.7955 66.4772C73.1415 66.2099 73.2491 65.8992 73.3171 64.9716C73.5315 62.0447 75.4793 59.5589 78.3151 58.5928C79.1121 58.3213 79.2521 58.3019 80.4267 58.3003C81.5374 58.299 81.7773 58.3274 82.4761 58.5429C84.021 59.0194 85.0834 59.7554 86.1758 61.1058C87.0086 62.1354 87.6544 63.9305 87.6586 65.2275C87.6594 65.492 87.7162 65.8443 87.7848 66.0104C88.1826 66.975 89.6316 66.925 89.9672 65.9352C90.0642 65.6492 90.0698 65.3859 89.9946 64.6374C89.7013 61.7172 88.1397 59.0505 85.8139 57.4984C84.7812 56.8092 84.0249 56.4721 82.6731 56.098C82.1511 55.9537 79.5891 55.8259 79.1687 55.9232ZM83.4666 60.8728C83.2521 61.0054 82.7394 61.7973 81.3899 64.0811C80.4044 65.7488 79.5318 67.2444 79.4508 67.4046C78.9144 68.4655 80.0703 69.6028 81.0623 68.9902C81.3432 68.8166 81.5848 68.4425 83.538 65.1564C85.0815 62.5594 85.1633 62.4055 85.2102 62.0084C85.3241 61.0429 84.2859 60.3667 83.4666 60.8728ZM81.7296 81.3129V82.5417H80.5166H79.3035V81.3129V80.0841H80.5166H81.7296V81.3129ZM84.5766 85.0852C85.0012 85.2805 85.1815 85.5692 85.2719 86.199C85.3055 86.4332 85.4154 86.731 85.5161 86.8608C85.8824 87.3325 86.0568 87.3659 88.1503 87.3659H90.0871L90.0643 97.0826L90.0414 106.799H80.4716H70.9019L70.879 97.0826L70.8562 87.3659L72.8109 87.3656C74.5901 87.3653 74.7915 87.3493 75.0529 87.1879C75.44 86.9488 75.6129 86.6576 75.7003 86.0973C75.784 85.561 76.1192 85.1348 76.5594 85.0052C76.7096 84.9609 78.4903 84.922 80.5166 84.9185C83.9514 84.9128 84.2261 84.924 84.5766 85.0852ZM51.0631 87.5179C51.2369 87.6015 51.4552 87.7961 51.548 87.9503C51.7101 88.2195 51.7169 88.5817 51.7169 97.0599C51.7169 105.651 51.7121 105.897 51.5417 106.18C51.2906 106.597 50.9638 106.783 50.4952 106.776C49.9734 106.768 49.5154 106.43 49.3854 105.956C49.3242 105.732 49.2922 102.669 49.292 97.0143C49.2916 87.4194 49.2523 88.0184 49.9112 87.5725C50.2738 87.3272 50.631 87.3103 51.0631 87.5179ZM111.032 87.5725C111.691 88.0187 111.652 87.4088 111.652 97.1054C111.652 105.201 111.641 105.819 111.494 106.11C111.266 106.563 110.924 106.784 110.449 106.784C109.982 106.784 109.65 106.592 109.402 106.18C109.231 105.897 109.226 105.652 109.227 97.1054C109.227 89.4042 109.244 88.2888 109.364 88.055C109.7 87.4017 110.457 87.1831 111.032 87.5725ZM68.4988 97.0826L68.4758 104.342L61.3097 104.365L54.1436 104.388V97.1059V89.8235H61.3327H68.5218L68.4988 97.0826ZM79.9774 89.9523C79.3038 90.2563 76.5432 93.5064 75.5545 95.1596C74.4243 97.0494 74.234 98.7255 74.9421 100.556C75.4865 101.963 76.8338 103.348 78.1498 103.855C78.6872 104.062 78.8751 104.065 79.2742 103.873C79.8281 103.607 79.8787 103.44 79.8865 101.849C79.8931 100.513 79.9089 100.388 80.1481 99.7678C80.2881 99.4049 80.4336 99.1079 80.4716 99.1079C80.5096 99.1079 80.6548 99.4049 80.7942 99.7678C81.0311 100.384 81.0488 100.523 81.0625 101.871L81.0774 103.314L81.3892 103.63C81.8649 104.112 82.2828 104.134 83.1028 103.722C84.2646 103.138 85.2733 102.116 85.8612 100.929C86.4821 99.6745 86.6096 98.0241 86.1781 96.8323C85.5319 95.0483 84.3652 93.387 81.9992 90.8825C81.0213 89.8473 80.6197 89.6625 79.9774 89.9523ZM106.8 97.1059V104.388L99.6336 104.365L92.4675 104.342L92.4445 97.0826L92.4215 89.8235H99.6106H106.8V97.1059ZM82.0489 94.5567C82.8978 95.6256 83.2085 96.091 83.6289 96.9233C83.9951 97.6481 84.0197 97.7431 84.0176 98.4252C84.0159 98.9895 83.9654 99.2747 83.7935 99.6928C83.5266 100.342 83.3879 100.419 83.3251 99.9533C83.1671 98.781 81.9655 96.6916 81.0938 96.0731C80.8134 95.8742 80.1268 95.8764 79.8439 96.0771C79.0443 96.6443 78.0104 98.3705 77.7182 99.6257C77.6331 99.9917 77.5358 100.291 77.5022 100.291C77.4685 100.291 77.3258 100.035 77.185 99.7223C76.9712 99.247 76.9291 99.0334 76.9301 98.4252C76.9311 97.7613 76.9616 97.6368 77.2759 97.0143C77.8522 95.8729 78.9395 94.3782 79.9987 93.2711L80.4885 92.7592L80.9976 93.3166C81.2776 93.6232 81.7506 94.1813 82.0489 94.5567Z" fill="white"/>
</svg>
