<svg width="160" height="160" viewBox="0 0 160 160" fill="none" xmlns="http://www.w3.org/2000/svg">
<rect width="160" height="160" rx="12.2615" fill="#246EB9"/>
<path fill-rule="evenodd" clip-rule="evenodd" d="M77.7989 50.1087C77.2048 50.2686 76.7534 50.5423 76.2505 51.0474C75.3188 51.9831 75.1073 52.4971 74.2426 55.9275L73.5446 58.6964L72.9346 58.9151C72.0803 59.2212 71.2335 59.5799 70.5257 59.9354C70.1932 60.1025 69.8937 60.2391 69.8603 60.2391C69.8269 60.2391 68.7366 59.5631 67.4375 58.7367C66.1383 57.9104 64.8898 57.1503 64.663 57.0474C63.3949 56.4724 61.9928 56.455 60.8356 56.9999C60.4529 57.1801 60.1666 57.4343 58.6539 58.9365C56.78 60.7973 56.5954 61.0376 56.3987 61.8722C56.1893 62.7607 56.3506 63.9324 56.8193 64.9252C56.9665 65.237 57.7366 66.5749 58.5307 67.8984C59.3248 69.2218 59.9727 70.3351 59.9706 70.3724C59.9685 70.4097 59.7514 70.9328 59.4881 71.535C59.2248 72.1371 58.9344 72.8538 58.8427 73.1278L58.6759 73.6259L58.2138 73.7443C57.9596 73.8094 56.7756 74.0765 55.5826 74.3378C54.3897 74.599 53.2306 74.8774 53.0069 74.9565C51.7408 75.4038 50.6484 76.4256 50.201 77.5812C50.0273 78.0299 50.0265 78.0406 50.0047 80.4249C49.9905 81.9767 50.0087 82.9435 50.0567 83.1745C50.329 84.4859 51.542 85.6576 53.1764 86.1878C53.4187 86.2664 54.6693 86.5925 55.9554 86.9123C58.9494 87.657 58.8022 87.6165 58.8022 87.696C58.8022 87.8171 59.2821 89.0496 59.6481 89.8686L60.0044 90.6657L58.4639 93.2372C57.6167 94.6515 56.8301 96.0333 56.7158 96.3078C56.1254 97.7276 56.1746 99.2314 56.8435 100.207C56.967 100.388 57.8013 101.261 58.6976 102.149C60.1147 103.553 60.3892 103.794 60.8018 103.997C61.9888 104.582 63.4174 104.558 64.7331 103.931C64.994 103.807 66.2391 103.045 67.5 102.238C68.7607 101.432 69.817 100.772 69.8473 100.772C69.8776 100.772 70.2813 100.955 70.7445 101.179C71.2076 101.403 72.0204 101.75 72.5507 101.95C73.081 102.149 73.5319 102.33 73.5528 102.351C73.5737 102.371 73.9042 103.637 74.2873 105.163C74.8873 107.553 75.027 108.026 75.2962 108.574C75.8436 109.69 76.5924 110.435 77.5437 110.811C77.94 110.967 78.0111 110.972 80.3395 110.993C82.983 111.017 83.1729 110.996 84.0168 110.589C84.5442 110.334 85.4871 109.42 85.8347 108.827C86.1865 108.227 86.3396 107.695 86.9345 105.008C87.24 103.629 87.5137 102.438 87.543 102.361C87.5762 102.273 87.7066 102.189 87.8907 102.135C88.292 102.017 89.909 101.348 90.4834 101.061C90.8501 100.878 90.9821 100.842 91.0934 100.893C91.1715 100.93 92.2268 101.593 93.4383 102.368C94.6499 103.143 95.826 103.861 96.0518 103.964C97.3593 104.559 98.7486 104.566 99.9453 103.983C100.408 103.758 100.606 103.584 102.153 102.034C103.949 100.235 104.18 99.9349 104.353 99.1762C104.47 98.6607 104.442 97.6925 104.292 97.112C104.088 96.322 103.797 95.7612 102.293 93.2607C101.524 91.9812 100.894 90.9053 100.894 90.8697C100.894 90.8341 100.997 90.5999 101.122 90.3491C101.383 89.8264 101.993 88.3349 102.117 87.9167C102.191 87.6667 102.232 87.6262 102.479 87.5608C102.633 87.5201 103.795 87.2269 105.063 86.9091C106.33 86.5912 107.566 86.2668 107.808 86.188C109.443 85.6565 110.655 84.4858 110.928 83.1745C110.976 82.9437 110.994 81.9752 110.98 80.4249L110.958 78.0316L110.773 77.5655C110.417 76.674 109.722 75.8827 108.829 75.3523C108.201 74.9789 107.872 74.8795 105.591 74.3731C104.48 74.1264 103.291 73.8615 102.948 73.7845L102.324 73.6444L102.175 73.1946C101.995 72.6504 101.361 71.1324 101.091 70.5956C100.983 70.3817 100.894 70.1776 100.894 70.1418C100.894 70.1061 101.524 69.03 102.294 67.7506C104.167 64.6363 104.33 64.2684 104.398 63.0181C104.443 62.178 104.361 61.7081 104.066 61.1054C103.889 60.7458 103.591 60.4159 102.145 58.9807C100.639 57.4864 100.372 57.2512 99.9346 57.0298C99.2136 56.6649 98.4184 56.5303 97.597 56.6341C96.4767 56.7756 96.0654 56.9748 93.4328 58.6507C92.1191 59.4871 91.0181 60.1713 90.986 60.1713C90.954 60.1713 90.6615 60.0384 90.336 59.876C90.0106 59.7135 89.302 59.4072 88.7614 59.1951C88.2209 58.9831 87.7168 58.7843 87.6412 58.7532C87.5223 58.7044 87.423 58.3327 86.9041 55.9942C86.5742 54.5077 86.2276 53.0982 86.1338 52.8619C85.5951 51.5053 84.4401 50.431 83.1722 50.1073C82.6088 49.9635 78.3339 49.9645 77.7989 50.1087ZM82.6795 53.5179C82.9233 53.6787 83.1751 54.0235 83.3023 54.3706C83.358 54.5227 83.7288 56.1265 84.1264 57.9345C84.5239 59.7426 84.883 61.2575 84.9244 61.301C84.9658 61.3445 85.4114 61.5095 85.9146 61.6677C87.2587 62.0901 88.4972 62.6035 89.8499 63.2987L91.0494 63.9153L92.1931 63.1868C92.822 62.7861 93.5349 62.3299 93.7773 62.1731C95.8133 60.8554 97.1083 60.0669 97.3615 59.9908C97.527 59.9409 97.8007 59.9002 97.9699 59.9002H98.2775L99.7267 61.3405L101.176 62.7809L101.137 63.0742C101.067 63.6116 100.8 64.116 99.0109 67.0977C98.0336 68.7263 97.2341 70.0916 97.2341 70.1317C97.2341 70.1717 97.4743 70.6846 97.7679 71.2713C98.5082 72.7503 98.8156 73.4956 99.2845 74.9476C99.5073 75.6373 99.709 76.223 99.7328 76.2491C99.7566 76.2753 100.615 76.4826 101.64 76.71C107.025 77.9041 106.968 77.8874 107.396 78.3755L107.605 78.6125V80.6044V82.5963L107.328 82.8327C106.951 83.1555 106.396 83.324 102.706 84.2354L99.6042 85.0017L99.2969 85.9725C98.8977 87.2342 98.4609 88.289 97.747 89.7148L97.1686 90.87L98.9732 93.8724C100.781 96.8797 101.04 97.3658 101.131 97.915L101.18 98.2097L99.7602 99.6336C98.3839 101.014 98.3314 101.058 98.0271 101.093C97.5214 101.15 97.1235 100.968 95.5169 99.9437C94.6906 99.417 93.6386 98.7476 93.1792 98.456C92.7199 98.1645 92.0613 97.7428 91.7158 97.519C91.3702 97.2952 91.0582 97.112 91.0224 97.112C90.9866 97.112 90.4251 97.3841 89.7747 97.7168C88.4011 98.4192 87.6078 98.7483 86.0218 99.2738L84.8751 99.6538L84.6254 100.806C84.2991 102.312 83.9468 103.897 83.5941 105.447C83.2849 106.805 83.1223 107.159 82.6681 107.464C82.4419 107.615 82.4031 107.618 80.5128 107.618H78.5879L78.4121 107.432C78.063 107.061 77.8596 106.425 77.0317 103.111C76.5754 101.284 76.1683 99.7544 76.1273 99.7116C76.0861 99.6688 75.5775 99.4801 74.9969 99.2922C73.4669 98.797 72.6959 98.4755 71.171 97.6968L69.8141 97.004L66.8669 98.8859C63.7999 100.844 63.5304 101.002 63.1184 101.079C62.5422 101.187 62.4654 101.137 60.9882 99.6676C59.6515 98.3383 59.6157 98.2954 59.6178 98.0292C59.619 97.8789 59.6735 97.601 59.739 97.4117C59.8044 97.2225 60.7217 95.6267 61.7775 93.8656L63.697 90.6637L63.24 89.7362C62.4856 88.205 62.1969 87.5135 61.7774 86.2331L61.3777 85.0131L57.895 84.1404C54.4369 83.2739 53.9431 83.1162 53.5661 82.7584L53.3797 82.5815V80.6386C53.3797 78.7311 53.3825 78.6914 53.5335 78.4674C53.6181 78.3419 53.8272 78.1527 53.9982 78.047C54.3319 77.8407 54.3888 77.8253 56.701 77.3146C57.5398 77.1293 58.9162 76.8218 59.7595 76.6313L61.293 76.2848L61.6134 75.2603C62.0629 73.8233 62.3109 73.207 63.0517 71.6862L63.6993 70.3566L61.76 67.1219C60.6323 65.2411 59.7777 63.7428 59.7181 63.5421C59.4981 62.8012 59.4617 62.8648 60.9543 61.381C61.6906 60.649 62.3596 60.0164 62.441 59.9752C62.6775 59.8554 63.1439 59.8908 63.5469 60.0591C63.7519 60.1448 65.2421 61.0591 66.8584 62.091C68.4747 63.1228 69.8181 63.9671 69.8435 63.9671C69.8691 63.9671 70.3899 63.7036 71.0008 63.3816C72.4152 62.6362 73.2304 62.2925 74.8286 61.7678C75.5348 61.536 76.1361 61.3031 76.1647 61.2502C76.1934 61.1974 76.5987 59.6214 77.0654 57.748C77.532 55.8747 77.974 54.224 78.0475 54.08C78.121 53.9359 78.2616 53.7224 78.3598 53.6056L78.5386 53.3932L80.5151 53.3937C82.3151 53.3941 82.5085 53.4051 82.6795 53.5179ZM79.0349 68.3793C75.9198 68.8219 73.331 70.1953 71.3204 72.4722C66.8974 77.4809 67.3958 85.2166 72.4262 89.6382C76.0698 92.8407 81.2657 93.5972 85.6617 91.5652C88.2083 90.388 90.4089 88.1957 91.5925 85.657C93.6125 81.324 92.9335 76.3028 89.8271 72.6017C88.2096 70.6746 85.8411 69.212 83.4067 68.637C82.1009 68.3286 80.1862 68.2158 79.0349 68.3793ZM82.6273 71.9244C85.6826 72.7171 88.0054 74.863 88.9932 77.8056C89.3957 79.0046 89.515 80.8076 89.2783 82.1123C88.4888 86.4625 84.5236 89.6038 80.1252 89.3635C78.7361 89.2876 77.6588 88.9962 76.4253 88.3627C73.9127 87.0723 72.0967 84.4862 71.7458 81.6986C71.6339 80.8095 71.697 79.2963 71.8762 78.5707C72.533 75.9117 74.2667 73.7395 76.6625 72.574C78.0222 71.9124 79.1187 71.6869 80.7972 71.7235C81.7639 71.7445 82.0586 71.7769 82.6273 71.9244Z" fill="white"/>
</svg>
