<svg width="233" height="233" viewBox="0 0 233 233" fill="none" xmlns="http://www.w3.org/2000/svg">
<rect y="0.298828" width="232.242" height="232.242" rx="18.0188" fill="#423629"/>
<path fill-rule="evenodd" clip-rule="evenodd" d="M117.967 63.3346C117.539 63.7833 117.373 64.6006 117.368 66.2996C117.356 69.9363 115.749 72.5072 113.115 73.1056C111.344 73.5075 109.542 74.5763 108.544 75.8165C107.669 76.9035 107.543 77.3512 107.567 79.2928C107.608 82.7387 109.518 85.7234 112.58 87.1276C113.964 87.7626 114.638 87.8504 117.131 87.7206C122.4 87.4465 126.353 84.9596 128.713 80.4361C129.931 78.1007 130.064 77.5684 130.193 74.5143C130.315 71.655 130.242 71.0603 129.702 70.4947C128.947 69.7052 127.301 69.6235 126.67 70.3449C126.287 70.7817 126.038 70.5127 125.007 68.5497C123.346 65.3861 120.847 62.7148 119.549 62.7148C119.005 62.7148 118.293 62.9937 117.967 63.3346ZM122.137 70.429C122.646 71.5035 123.174 73.0385 123.309 73.8403C123.607 75.6067 124.239 76.2692 125.627 76.2692C126.203 76.2692 126.675 76.3397 126.675 76.4258C126.675 77.3386 124.951 80.5002 123.922 81.4754C120.943 84.2974 115.852 85.4777 113.58 83.8725C112.054 82.7939 111.262 81.5971 111.041 80.0332C110.744 77.9374 111.354 77.1404 113.932 76.255C115.137 75.8409 116.691 75.0788 117.385 74.5617C118.712 73.5726 120.079 71.3398 120.459 69.5432C120.582 68.9559 120.803 68.4754 120.948 68.4754C121.093 68.4754 121.628 69.3544 122.137 70.429ZM113.741 90.2241C111.032 90.9076 108.105 94.2514 108.084 96.6855C108.077 97.5367 107.959 97.6173 106.722 97.6173C104.694 97.6173 102.324 98.8948 101.378 100.498C100.357 102.226 100.355 103.855 101.37 105.763C102.33 107.566 104.558 108.8 106.855 108.8H108.342L106.027 115.662C104.754 119.435 103.342 123.667 102.889 125.065C102.436 126.463 100.512 132.257 98.6124 137.942C96.7128 143.626 94.3584 150.678 93.3802 153.614L91.6012 158.951H88.0185C82.3292 158.951 81.0681 160.018 81.3138 164.627C81.4383 166.962 81.5341 167.227 82.5792 168.111C83.2813 168.706 84.2952 169.148 85.2531 169.28C86.1014 169.395 100.476 169.444 117.197 169.388C141.688 169.306 147.777 169.198 148.522 168.834C150.074 168.074 150.638 166.758 150.638 163.902C150.638 161.543 150.553 161.243 149.595 160.227L148.552 159.12L140.303 158.893L139.181 155.449C138.564 153.554 134.854 142.386 130.936 130.631C127.019 118.876 123.813 109.176 123.813 109.077C123.813 108.976 124.71 108.807 125.806 108.7C129.437 108.345 131.572 105.945 131.233 102.6C131.142 101.695 130.753 100.547 130.37 100.049C129.435 98.8325 126.836 97.6173 125.168 97.6173C123.931 97.6173 123.813 97.5367 123.806 96.6855C123.784 94.1396 120.837 90.8957 117.912 90.1977C116.103 89.7663 115.541 89.7697 113.741 90.2241ZM118.298 93.8512C119.46 94.5222 120.594 96.3754 120.594 97.6007C120.594 99.6617 122.429 101.006 125.242 101.006C126.578 101.006 127.407 101.575 127.871 102.809C128.111 103.448 127.58 104.715 126.889 105.152C126.673 105.289 121.76 105.403 115.973 105.406C104.333 105.412 104.142 105.377 104.142 103.267C104.142 101.805 105.051 101.006 106.713 101.006C108.43 101.006 110.406 100.253 110.877 99.4187C111.072 99.0734 111.348 98.1835 111.49 97.4418C111.632 96.6997 111.971 95.677 112.242 95.1691C113.241 93.2979 116.219 92.65 118.298 93.8512ZM120.926 111.897L119.695 113.063C119.019 113.704 117.888 114.709 117.182 115.295L115.9 116.362L113.598 114.2C112.331 113.011 111.296 111.882 111.297 111.69C111.299 111.498 111.467 110.769 111.672 110.07L112.044 108.8H119.812L120.926 111.897ZM113.084 118.791C113.084 119.007 111.716 120.44 110.044 121.976C108.371 123.512 107.003 124.603 107.003 124.402C107.003 124.117 108.488 119.488 109.705 115.979C109.88 115.473 113.084 118.139 113.084 118.791ZM123.601 120.014C124.337 122.268 124.887 124.157 124.823 124.213C124.759 124.268 123.351 123.105 121.694 121.628L118.68 118.943L120.248 117.429C121.111 116.597 121.917 115.916 122.04 115.916C122.163 115.916 122.865 117.76 123.601 120.014ZM121.082 125.883L126.041 130.401L123.586 131.638C122.235 132.318 119.97 133.442 118.552 134.135L115.973 135.395L112.293 133.57C110.269 132.567 108.074 131.441 107.416 131.068L106.22 130.391L110.988 125.864C113.61 123.375 115.839 121.344 115.94 121.351C116.041 121.359 118.355 123.398 121.082 125.883ZM108.329 135.445L112.085 137.354L111.064 137.931C108.977 139.111 100.921 143.363 100.774 143.363C100.69 143.363 101.012 142.181 101.49 140.737C101.968 139.293 102.696 137.082 103.107 135.824C103.518 134.566 104.016 133.536 104.213 133.536C104.411 133.536 106.263 134.395 108.329 135.445ZM129.707 138.331C130.603 140.968 131.28 143.179 131.211 143.245C131.142 143.31 129.329 142.423 127.181 141.274C125.034 140.124 122.593 138.822 121.757 138.379C120.921 137.936 120.24 137.466 120.244 137.334C120.252 137.048 127.02 133.598 127.644 133.562C127.894 133.547 128.768 135.566 129.707 138.331ZM123.522 143.253C127.616 145.429 130.967 147.3 130.967 147.411C130.967 147.701 116.746 153.529 116.039 153.529C115.357 153.529 100.921 147.713 100.928 147.441C100.931 147.341 101.776 146.806 102.806 146.25C106.69 144.156 115.772 139.364 115.922 139.332C116.007 139.313 119.427 141.077 123.522 143.253ZM104.5 152.793C106.762 153.719 109.257 154.731 110.044 155.042L111.474 155.608L107.437 157.279C103.408 158.948 103.394 158.951 99.4793 158.951C97.3226 158.951 95.5583 158.862 95.5583 158.754C95.5583 158.434 98.0312 150.8 98.2372 150.485C98.3409 150.325 98.867 150.401 99.4064 150.652C99.9457 150.903 102.238 151.866 104.5 152.793ZM135.159 154.63L136.535 158.781L128.668 158.975L124.81 157.394C121.443 156.016 120.158 155.223 121.29 155.223C121.476 155.223 124.171 154.161 127.281 152.862C130.39 151.564 133.125 150.496 133.359 150.49C133.592 150.484 134.402 152.347 135.159 154.63ZM117.511 158.108C118.223 158.39 118.806 158.695 118.806 158.786C118.806 158.877 117.479 158.944 115.855 158.937L112.905 158.922L114.157 158.273C115.692 157.476 115.89 157.467 117.511 158.108ZM147.24 165.897L84.8285 166.071V162.336L147.24 162.509V165.897Z" fill="white"/>
</svg>
