<svg width="160" height="160" viewBox="0 0 160 160" fill="none" xmlns="http://www.w3.org/2000/svg">
<rect width="160" height="160" rx="12.4138" fill="#423629"/>
<path fill-rule="evenodd" clip-rule="evenodd" d="M81.2717 43.427C80.9763 43.7361 80.8625 44.2992 80.8585 45.4697C80.8501 47.9751 79.7433 49.7463 77.9288 50.1586C76.7088 50.4354 75.4672 51.1718 74.7797 52.0262C74.177 52.7751 74.0903 53.0835 74.1063 54.4212C74.1349 56.7951 75.4504 58.8514 77.5599 59.8188C78.5137 60.2563 78.9782 60.3168 80.6956 60.2273C84.3252 60.0385 87.0487 58.3252 88.6745 55.2088C89.5137 53.5999 89.6054 53.2331 89.6946 51.129C89.7781 49.1592 89.7281 48.7495 89.3558 48.3598C88.8361 47.8159 87.7021 47.7596 87.267 48.2566C87.0033 48.5576 86.8316 48.3722 86.1215 47.0198C84.9769 44.8403 83.2555 43 82.3613 43C81.9863 43 81.496 43.1921 81.2717 43.427ZM84.1446 48.3145C84.4952 49.0548 84.8584 50.1123 84.9515 50.6647C85.157 51.8817 85.5927 52.3381 86.5487 52.3381C86.9457 52.3381 87.2704 52.3866 87.2704 52.4459C87.2704 53.0749 86.083 55.253 85.3739 55.9248C83.3218 57.869 79.814 58.6821 78.2491 57.5763C77.1974 56.8332 76.6521 56.0086 76.4996 54.9313C76.2951 53.4874 76.7155 52.9383 78.4913 52.3283C79.3219 52.043 80.3926 51.518 80.8703 51.1617C81.7845 50.4803 82.7265 48.9421 82.9879 47.7043C83.0732 47.2997 83.225 46.9687 83.325 46.9687C83.4253 46.9687 83.7939 47.5743 84.1446 48.3145ZM78.36 61.9521C76.494 62.423 74.4769 64.7267 74.4628 66.4036C74.4579 66.99 74.3766 67.0455 73.524 67.0455C72.1272 67.0455 70.4945 67.9257 69.8425 69.0299C69.1393 70.2205 69.1378 71.3429 69.8373 72.6573C70.4984 73.8997 72.0333 74.7495 73.6157 74.7495H74.6407L73.0458 79.4769C72.1686 82.0768 71.1958 84.9922 70.8838 85.9551C70.5719 86.9181 69.246 90.9102 67.9373 94.8263C66.6287 98.7425 65.0066 103.601 64.3327 105.623L63.1071 109.3H60.6388C56.7193 109.3 55.8504 110.036 56.0197 113.211C56.1055 114.82 56.1715 115.002 56.8915 115.611C57.3752 116.021 58.0738 116.326 58.7336 116.416C59.3181 116.496 69.2213 116.53 80.7407 116.491C97.6138 116.434 101.809 116.36 102.322 116.109C103.391 115.586 103.78 114.679 103.78 112.711C103.78 111.086 103.721 110.879 103.061 110.18L102.343 109.417L96.6592 109.261L95.8865 106.888C95.4614 105.582 92.9055 97.8885 90.2064 89.7901C87.5075 81.6916 85.2992 75.009 85.2992 74.9402C85.2992 74.8711 85.917 74.7544 86.6717 74.6806C89.1737 74.4359 90.6447 72.7826 90.4111 70.4782C90.3478 69.8551 90.0802 69.0642 89.8161 68.7208C89.172 67.8827 87.3813 67.0455 86.2326 67.0455C85.38 67.0455 85.2987 66.99 85.2938 66.4036C85.279 64.6496 83.2486 62.4148 81.2333 61.9339C79.9872 61.6367 79.6004 61.639 78.36 61.9521ZM81.4997 64.451C82.2997 64.9132 83.0816 66.1899 83.0816 67.0341C83.0816 68.454 84.3454 69.3801 86.2833 69.3801C87.2037 69.3801 87.7751 69.7723 88.0944 70.6225C88.2598 71.0623 87.8939 71.9354 87.4183 72.2363C87.2692 72.3307 83.8849 72.4093 79.8978 72.4114C71.8783 72.4154 71.747 72.3916 71.747 70.9381C71.747 69.9308 72.3728 69.3801 73.5179 69.3801C74.7011 69.3801 76.0623 68.8613 76.387 68.2866C76.5213 68.0487 76.7115 67.4356 76.8094 66.9246C76.9072 66.4134 77.1403 65.7088 77.327 65.3589C78.0157 64.0697 80.0673 63.6234 81.4997 64.451ZM83.3097 76.8832L82.4621 77.6865C81.9959 78.1282 81.2168 78.8204 80.7309 79.2245L79.8473 79.9596L78.2612 78.4702C77.3889 77.651 76.6758 76.8727 76.6765 76.7406C76.6773 76.6084 76.7933 76.1065 76.9345 75.6249L77.191 74.7495H82.5424L83.3097 76.8832ZM77.9071 81.6326C77.9071 81.7815 76.9646 82.769 75.8126 83.827C74.6607 84.8852 73.7182 85.6372 73.7182 85.4985C73.7182 85.3019 74.741 82.1132 75.5795 79.6958C75.7003 79.3473 77.9071 81.1834 77.9071 81.6326ZM85.1529 82.4751C85.6597 84.028 86.0387 85.3297 85.9948 85.368C85.951 85.4061 84.9809 84.6051 83.839 83.5875L81.7628 81.7376L82.8431 80.6948C83.4374 80.1212 83.9928 79.6519 84.0773 79.6519C84.1621 79.6519 84.646 80.9224 85.1529 82.4751ZM83.4174 86.5187L86.8336 89.6311L85.1423 90.4834C84.2121 90.9522 82.6516 91.7263 81.6744 92.2039L79.8978 93.0719L77.3623 91.8148C75.9679 91.1235 74.4559 90.3478 74.0026 90.0912L73.1783 89.6248L76.4632 86.5059C78.27 84.7907 79.8051 83.3916 79.8749 83.3967C79.9446 83.4021 81.5386 84.807 83.4174 86.5187ZM74.6311 93.1065L77.2189 94.4215L76.5156 94.8191C75.0776 95.632 69.5281 98.5615 69.4266 98.5615C69.3684 98.5615 69.5907 97.7473 69.9199 96.7523C70.2493 95.7573 70.7505 94.2338 71.0336 93.3672C71.317 92.5007 71.66 91.7914 71.796 91.7914C71.932 91.7914 73.2079 92.3832 74.6311 93.1065ZM89.3597 95.0945C89.977 96.9115 90.4434 98.4348 90.3958 98.4798C90.3483 98.5247 89.099 97.9137 87.6194 97.1221C86.1399 96.3302 84.4582 95.4328 83.8824 95.1279C83.3065 94.8228 82.8374 94.4988 82.8401 94.408C82.8458 94.2109 87.5082 91.8342 87.9385 91.809C88.1107 91.7989 88.7124 93.19 89.3597 95.0945ZM85.0984 98.4857C87.9192 99.9847 90.2273 101.274 90.2273 101.35C90.2273 101.55 80.4305 105.565 79.9431 105.565C79.4732 105.565 69.5276 101.558 69.5328 101.371C69.5348 101.302 70.117 100.933 70.8264 100.551C73.5026 99.1074 79.7593 95.8066 79.8623 95.7839C79.9214 95.7709 82.2776 96.9867 85.0984 98.4857ZM71.9934 105.058C73.5519 105.696 75.2706 106.393 75.8126 106.608L76.7983 106.997L74.0171 108.149C71.2409 109.298 71.2313 109.3 68.5346 109.3C67.0488 109.3 65.8333 109.239 65.8333 109.165C65.8333 108.944 67.5369 103.685 67.6788 103.468C67.7503 103.358 68.1128 103.41 68.4843 103.583C68.8559 103.756 70.4349 104.42 71.9934 105.058ZM93.1157 106.324L94.0636 109.184L88.6434 109.317L85.9857 108.228C83.666 107.278 82.781 106.732 83.5606 106.732C83.6887 106.732 85.5459 106 87.6879 105.106C89.8299 104.211 91.7141 103.476 91.8753 103.472C92.0362 103.468 92.5943 104.751 93.1157 106.324ZM80.9571 108.72C81.4479 108.914 81.8496 109.124 81.8496 109.187C81.8496 109.249 80.9349 109.296 79.8167 109.291L77.7839 109.281L78.6463 108.833C79.7044 108.285 79.8406 108.278 80.9571 108.72ZM101.439 114.086L58.4411 114.205V111.632L101.439 111.752V114.086Z" fill="white"/>
</svg>
