<svg width="233" height="233" viewBox="0 0 233 233" fill="none" xmlns="http://www.w3.org/2000/svg">
<rect y="0.234375" width="232.242" height="232.242" rx="17.7977" fill="#246EB9"/>
<path fill-rule="evenodd" clip-rule="evenodd" d="M112.928 72.9683C112.065 73.2005 111.41 73.5978 110.68 74.3308C109.328 75.689 109.021 76.4352 107.766 81.4144L106.752 85.4335L105.867 85.7509C104.627 86.1953 103.398 86.716 102.371 87.2319C101.888 87.4744 101.453 87.6728 101.405 87.6728C101.356 87.6728 99.7736 86.6915 97.8879 85.4921C96.0021 84.2926 94.1899 83.1892 93.8608 83.04C92.02 82.2054 89.9849 82.1801 88.3053 82.971C87.7497 83.2326 87.3341 83.6016 85.1384 85.782C82.4184 88.4831 82.1505 88.8318 81.865 90.0432C81.561 91.3329 81.7952 93.0337 82.4754 94.4747C82.6891 94.9273 83.807 96.8693 84.9596 98.7903C86.1123 100.711 87.0527 102.327 87.0497 102.381C87.0466 102.435 86.7314 103.195 86.3493 104.069C85.9671 104.943 85.5456 105.983 85.4124 106.381L85.1704 107.104L84.4996 107.276C84.1306 107.37 82.412 107.758 80.6804 108.137C78.9488 108.516 77.2664 108.921 76.9418 109.035C75.1039 109.684 73.5183 111.168 72.8689 112.845C72.6167 113.496 72.6157 113.512 72.584 116.973C72.5633 119.225 72.5898 120.628 72.6594 120.964C73.0547 122.867 74.8154 124.568 77.1877 125.338C77.5395 125.452 79.3547 125.925 81.2215 126.389C85.5674 127.47 85.3537 127.411 85.3537 127.527C85.3537 127.703 86.0503 129.492 86.5815 130.68L87.0987 131.837L84.8627 135.57C83.6328 137.623 82.4911 139.629 82.3253 140.027C81.4683 142.088 81.5397 144.271 82.5106 145.687C82.6898 145.949 83.9008 147.217 85.2019 148.506C87.2588 150.544 87.6572 150.893 88.2561 151.188C89.9791 152.037 92.0528 152.002 93.9624 151.092C94.3412 150.912 96.1484 149.806 97.9786 148.636C99.8087 147.465 101.342 146.507 101.386 146.507C101.43 146.507 102.016 146.773 102.688 147.098C103.36 147.423 104.54 147.926 105.31 148.216C106.08 148.506 106.734 148.768 106.764 148.798C106.795 148.829 107.274 150.666 107.831 152.881C108.702 156.35 108.904 157.036 109.295 157.832C110.09 159.451 111.176 160.533 112.557 161.078C113.132 161.306 113.236 161.313 116.615 161.343C120.453 161.378 120.728 161.348 121.953 160.756C122.719 160.386 124.087 159.06 124.592 158.199C125.102 157.328 125.325 156.556 126.188 152.656C126.632 150.654 127.029 148.925 127.071 148.813C127.12 148.686 127.309 148.563 127.576 148.485C128.159 148.315 130.506 147.343 131.339 146.927C131.872 146.661 132.063 146.608 132.225 146.683C132.338 146.736 133.87 147.699 135.629 148.823C137.387 149.948 139.094 150.991 139.422 151.14C141.32 152.004 143.336 152.014 145.074 151.168C145.746 150.841 146.032 150.588 148.278 148.338C150.885 145.727 151.221 145.292 151.471 144.191C151.642 143.442 151.6 142.037 151.383 141.194C151.087 140.048 150.665 139.234 148.482 135.604C147.365 133.747 146.451 132.185 146.451 132.134C146.451 132.082 146.6 131.742 146.782 131.378C147.161 130.619 148.046 128.454 148.225 127.847C148.332 127.484 148.392 127.426 148.751 127.331C148.974 127.272 150.662 126.846 152.502 126.385C154.341 125.923 156.135 125.452 156.486 125.338C158.86 124.567 160.619 122.867 161.015 120.964C161.084 120.629 161.111 119.223 161.091 116.973L161.059 113.499L160.789 112.822C160.273 111.528 159.265 110.38 157.969 109.61C157.056 109.068 156.579 108.923 153.269 108.188C151.656 107.83 149.93 107.446 149.431 107.334L148.526 107.131L148.31 106.478C148.048 105.688 147.129 103.485 146.736 102.705C146.579 102.395 146.451 102.099 146.451 102.047C146.451 101.995 147.365 100.433 148.482 98.5758C151.201 94.0553 151.439 93.5214 151.536 91.7066C151.602 90.4872 151.483 89.805 151.054 88.9302C150.798 88.4082 150.365 87.9294 148.266 85.8461C146.08 83.6771 145.693 83.3358 145.058 83.0144C144.011 82.4848 142.857 82.2894 141.665 82.44C140.039 82.6454 139.442 82.9345 135.621 85.3672C133.714 86.5812 132.116 87.5744 132.069 87.5744C132.022 87.5744 131.598 87.3814 131.125 87.1457C130.653 86.9099 129.625 86.4652 128.84 86.1574C128.055 85.8496 127.324 85.561 127.214 85.516C127.041 85.4451 126.897 84.9056 126.144 81.5112C125.665 79.3536 125.162 77.3076 125.026 76.9646C124.244 74.9955 122.568 73.4361 120.727 72.9663C119.909 72.7576 113.704 72.759 112.928 72.9683ZM120.012 77.9169C120.366 78.1502 120.731 78.6507 120.916 79.1546C120.997 79.3753 121.535 81.7032 122.112 84.3277C122.689 86.9521 123.21 89.151 123.27 89.2141C123.331 89.2772 123.977 89.5167 124.708 89.7463C126.659 90.3596 128.456 91.1047 130.42 92.1139L132.161 93.0088L133.821 91.9513C134.734 91.3698 135.769 90.7077 136.12 90.48C139.076 88.5674 140.956 87.4229 141.323 87.3123C141.563 87.24 141.961 87.1808 142.206 87.1808H142.653L144.756 89.2715L146.86 91.3622L146.804 91.7879C146.701 92.5679 146.314 93.3001 143.717 97.6281C142.299 99.9921 141.138 101.974 141.138 102.032C141.138 102.09 141.487 102.835 141.913 103.686C142.987 105.833 143.434 106.915 144.114 109.022C144.438 110.023 144.73 110.874 144.765 110.912C144.8 110.95 146.045 111.25 147.533 111.58C155.35 113.314 155.267 113.29 155.889 113.998L156.191 114.342V117.233V120.125L155.79 120.468C155.243 120.936 154.437 121.181 149.081 122.504L144.578 123.616L144.132 125.025C143.553 126.857 142.919 128.388 141.883 130.457L141.043 132.134L143.663 136.492C146.286 140.857 146.663 141.563 146.794 142.36L146.865 142.788L144.805 144.854C142.807 146.859 142.731 146.923 142.289 146.973C141.555 147.055 140.978 146.791 138.646 145.305C137.446 144.54 135.919 143.568 135.252 143.145C134.586 142.722 133.63 142.11 133.128 141.785C132.627 141.46 132.174 141.194 132.122 141.194C132.07 141.194 131.255 141.589 130.311 142.072C128.317 143.092 127.165 143.569 124.863 144.332L123.199 144.884L122.836 146.556C122.363 148.742 121.851 151.043 121.339 153.292C120.891 155.264 120.655 155.778 119.995 156.22C119.667 156.44 119.611 156.444 116.867 156.444H114.073L113.818 156.174C113.311 155.636 113.016 154.712 111.814 149.901C111.152 147.25 110.561 145.03 110.501 144.968C110.442 144.906 109.703 144.632 108.86 144.359C106.64 143.64 105.521 143.173 103.307 142.043L101.338 141.038L97.0597 143.769C92.6078 146.612 92.2168 146.841 91.6188 146.953C90.7823 147.11 90.6709 147.036 88.5266 144.904C86.5865 142.974 86.5344 142.912 86.5376 142.526C86.5393 142.307 86.6184 141.904 86.7135 141.629C86.8084 141.355 88.1399 139.038 89.6723 136.482L92.4585 131.834L91.7953 130.488C90.7003 128.266 90.2811 127.262 89.6722 125.404L89.092 123.633L84.0369 122.366C79.0174 121.108 78.3006 120.879 77.7534 120.36L77.4829 120.103V117.283C77.4829 114.514 77.4869 114.457 77.7061 114.131C77.8289 113.949 78.1324 113.675 78.3806 113.521C78.8649 113.222 78.9475 113.199 82.3038 112.458C83.5213 112.189 85.5191 111.743 86.7432 111.466L88.9691 110.963L89.4341 109.476C90.0866 107.39 90.4466 106.496 91.5219 104.288L92.4619 102.358L89.6469 97.6633C88.0101 94.9332 86.7697 92.7584 86.6831 92.4671C86.3638 91.3917 86.311 91.484 88.4774 89.3303C89.5462 88.2678 90.5173 87.3496 90.6354 87.2897C90.9787 87.1158 91.6558 87.1673 92.2407 87.4116C92.5383 87.5358 94.7013 88.8629 97.0474 90.3607C99.3935 91.8585 101.343 93.084 101.38 93.084C101.417 93.084 102.173 92.7015 103.06 92.2342C105.113 91.1522 106.296 90.6533 108.616 89.8917C109.641 89.5552 110.514 89.2171 110.556 89.1404C110.597 89.0637 111.186 86.7762 111.863 84.0569C112.54 81.3377 113.182 78.9418 113.289 78.7327C113.395 78.5235 113.599 78.2137 113.742 78.0442L114.001 77.7359L116.87 77.7365C119.483 77.7371 119.764 77.7532 120.012 77.9169ZM114.722 99.4884C110.2 100.131 106.442 102.124 103.524 105.429C97.1041 112.7 97.8274 123.928 105.129 130.346C110.418 134.995 117.96 136.093 124.341 133.143C128.037 131.434 131.231 128.252 132.949 124.567C135.881 118.278 134.896 110.989 130.387 105.617C128.039 102.82 124.601 100.697 121.068 99.8625C119.172 99.4149 116.393 99.251 114.722 99.4884ZM119.936 104.634C124.371 105.785 127.743 108.9 129.176 113.171C129.761 114.911 129.934 117.528 129.59 119.422C128.444 125.736 122.689 130.296 116.304 129.947C114.288 129.837 112.724 129.414 110.934 128.495C107.287 126.622 104.651 122.868 104.141 118.822C103.979 117.531 104.071 115.335 104.331 114.281C105.284 110.422 107.801 107.269 111.278 105.577C113.252 104.617 114.843 104.289 117.28 104.342C118.683 104.373 119.111 104.42 119.936 104.634Z" fill="white"/>
</svg>
