<svg width="160" height="160" viewBox="0 0 160 160" fill="none" xmlns="http://www.w3.org/2000/svg">
<rect width="160" height="160" rx="12.4138" fill="#4CB944"/>
<path d="M70.739 56.678C72.5466 53.8651 74.8858 52.1002 78.0864 51.1361C80.8847 50.2926 84.1025 50.5216 87.5966 51.8129C90.8386 53.0111 92.2032 53.8956 95.557 56.9717C97.7881 59.0178 101.373 64.5185 101.299 65.7818C101.275 66.1908 100.078 66.3307 97.991 66.1685C94.8177 65.921 94.5461 66.0213 88.8477 69.5428C83.6017 72.7851 82.6941 73.1549 80.3463 73.0072C77.2086 72.8098 73.8319 70.917 71.9139 68.2798C69.4968 64.9569 70.9752 64.1066 73.6107 67.3043C77.7244 72.2957 81.4931 72.3561 88.6314 67.5442C92.4237 64.9882 93.6857 64.4394 96.5385 64.1062L98.901 63.8307L96.0819 60.3847C89.2699 52.0568 79.2374 50.052 73.7273 55.9172C72.5598 57.16 71.6774 58.261 71.7663 58.3641C71.8558 58.4666 72.8017 58.3485 73.8685 58.1019C76.3213 57.5341 85.5691 58.0662 86.6161 58.8355C88.0447 59.8851 86.7192 60.1069 80.6026 59.8433C74.986 59.601 74.2885 59.7003 70.7303 61.2427C68.5147 62.2033 66.052 63.8075 64.8845 65.0498C63.7754 66.2307 62.5787 67.18 62.2254 67.1593C60.7471 67.0728 61.9055 65.3195 65.3787 62.3872C67.4137 60.668 69.8262 58.0994 70.739 56.678Z" fill="white"/>
<path d="M104.331 76.5623C103.934 75.1621 103.614 73.9198 103.621 73.8023C103.628 73.6848 104 73.6105 104.448 73.6367C105.606 73.7045 106.165 75.2549 106.679 79.8216C106.926 82.0148 107.429 84.2219 107.798 84.7276C110.207 88.03 110.432 94.8541 108.263 98.8277C104.763 105.239 95.8226 109.759 87.5934 109.277C84.9228 109.121 84.3569 108.221 86.033 106.798C88.1866 104.969 88.5961 103.23 88.6182 95.8213C88.6369 89.3314 88.7282 88.725 89.9819 86.7243C91.953 83.5805 96.4407 81.1802 99.9631 81.3864C101.957 81.503 100.766 82.9368 98.2285 83.475C94.9549 84.1699 92.5603 85.6809 91.306 87.8434C90.5093 89.2167 90.3359 90.7305 90.3183 96.468C90.3007 102.177 90.1161 103.805 89.2884 105.536L88.2807 107.645L90.3684 107.411C102.752 106.021 110.659 97.1469 107.447 88.2444L106.662 86.0707L105.837 88.3317C104.134 92.9947 99.5758 99.6773 98.1538 99.5941C97.2313 99.5401 97.6852 98.4993 100.108 95.1134C104.487 88.992 105.988 82.3972 104.331 76.5623Z" fill="white"/>
<path d="M55.0451 99.9296C50.5544 93.8636 50.6053 83.9887 55.1682 75.974C56.7505 73.1954 58.4896 72.2504 58.3781 74.2309C58.2312 76.828 60.3277 79.1421 65.4018 81.9841C68.1759 83.5377 71.103 85.4059 71.9067 86.1351C73.8278 87.8786 74.7215 90.6459 74.5133 94.2043C74.3102 97.6731 72.6922 101.481 71.8387 100.497C71.4308 100.027 71.4975 99.2597 72.0761 97.7673C73.2504 94.7393 72.9513 90.3883 71.4385 88.4965C70.7534 87.6397 68.0059 85.679 65.3326 84.1393C59.9477 81.0376 59.337 80.5589 57.7865 78.2247L56.7143 76.6099L55.5978 78.9551C54.1319 82.0329 53.1619 90.3758 53.9222 93.3608C55.3201 98.8468 59.5331 103.057 63.88 103.311L65.7032 103.418L63.3423 100.385C61.283 97.7399 58.8501 92.8068 58.4426 90.4508C58.3692 90.0265 58.6168 89.5831 58.9932 89.4655C59.3907 89.3417 60.4169 91.0099 61.4411 93.4455C64.3473 100.354 68.7641 104.564 74.9323 106.303C76.6167 106.778 77.6195 107.347 77.46 107.737C77.0811 108.659 73.3383 108.003 70.5114 106.521C69.029 105.743 66.8641 105.198 64.7348 105.065C60.4111 104.796 57.5093 103.259 55.0451 99.9296Z" fill="white"/>
</svg>
