<svg width="197" height="197" viewBox="0 0 197 197" fill="none" xmlns="http://www.w3.org/2000/svg">
<rect y="0.427734" width="196.364" height="196.364" rx="15.0482" fill="#246EB9"/>
<path fill-rule="evenodd" clip-rule="evenodd" d="M95.4821 61.9244C94.7531 62.1207 94.1991 62.4566 93.5818 63.0764C92.4384 64.2248 92.1788 64.8557 91.1176 69.0657L90.261 72.4639L89.5123 72.7323C88.4639 73.108 87.4246 73.5482 86.5559 73.9845C86.1478 74.1895 85.7803 74.3572 85.7393 74.3572C85.6983 74.3572 84.3602 73.5275 82.7658 72.5134C81.1714 71.4993 79.6391 70.5664 79.3608 70.4402C77.8044 69.7345 76.0837 69.7131 74.6636 70.3818C74.1938 70.603 73.8424 70.915 71.986 72.7586C69.6861 75.0423 69.4596 75.3372 69.2182 76.3614C68.9612 77.4519 69.1592 78.89 69.7344 80.1084C69.9151 80.491 70.8602 82.133 71.8347 83.7573C72.8094 85.3815 73.6045 86.7478 73.602 86.7935C73.5994 86.8393 73.3328 87.4813 73.0097 88.2204C72.6867 88.9593 72.3302 89.839 72.2176 90.1752L72.013 90.7865L71.4458 90.9318C71.1338 91.0117 69.6807 91.3395 68.2166 91.6602C66.7526 91.9808 65.3301 92.3225 65.0556 92.4195C63.5017 92.9685 62.1609 94.2226 61.6119 95.6407C61.3987 96.1915 61.3978 96.2046 61.371 99.1308C61.3535 101.035 61.3759 102.222 61.4348 102.505C61.769 104.115 63.2577 105.553 65.2635 106.203C65.5609 106.3 67.0957 106.7 68.6742 107.093C72.3487 108.007 72.168 107.957 72.168 108.054C72.168 108.203 72.7569 109.716 73.2062 110.721L73.6434 111.699L71.7528 114.855C70.713 116.591 69.7476 118.287 69.6074 118.623C68.8828 120.366 68.9432 122.212 69.7641 123.409C69.9156 123.631 70.9396 124.703 72.0396 125.793C73.7788 127.515 74.1156 127.811 74.622 128.061C76.0788 128.778 77.8321 128.748 79.4468 127.979C79.767 127.827 81.2951 126.892 82.8425 125.902C84.3899 124.912 85.6862 124.103 85.7234 124.103C85.7606 124.103 86.2561 124.327 86.8245 124.602C87.3929 124.877 88.3904 125.302 89.0412 125.547C89.692 125.793 90.2454 126.014 90.271 126.04C90.2967 126.065 90.7023 127.619 91.1724 129.491C91.9089 132.425 92.0803 133.005 92.4107 133.678C93.0825 135.047 94.0014 135.961 95.1689 136.423C95.6553 136.615 95.7426 136.621 98.6002 136.647C101.845 136.676 102.078 136.651 103.113 136.15C103.761 135.837 104.918 134.716 105.344 133.988C105.776 133.251 105.964 132.599 106.694 129.302C107.069 127.609 107.405 126.147 107.441 126.052C107.482 125.945 107.642 125.841 107.868 125.775C108.36 125.631 110.345 124.809 111.05 124.457C111.5 124.233 111.662 124.188 111.798 124.251C111.894 124.296 113.189 125.11 114.676 126.061C116.163 127.012 117.606 127.893 117.884 128.019C119.488 128.75 121.193 128.759 122.662 128.043C123.23 127.767 123.472 127.553 125.372 125.651C127.576 123.443 127.859 123.075 128.071 122.144C128.215 121.511 128.18 120.323 127.997 119.61C127.747 118.641 127.389 117.953 125.544 114.884C124.599 113.314 123.827 111.993 123.827 111.949C123.827 111.906 123.952 111.618 124.106 111.311C124.427 110.669 125.175 108.839 125.327 108.325C125.417 108.018 125.468 107.969 125.772 107.888C125.96 107.839 127.387 107.479 128.943 107.089C130.498 106.699 132.014 106.3 132.312 106.204C134.319 105.551 135.806 104.115 136.14 102.505C136.199 102.222 136.222 101.033 136.205 99.1308L136.178 96.1936L135.95 95.6215C135.513 94.5274 134.661 93.5562 133.565 92.9053C132.794 92.447 132.39 92.325 129.591 91.7035C128.228 91.4007 126.768 91.0757 126.347 90.9811L125.581 90.8093L125.398 90.2572C125.177 89.5893 124.4 87.7263 124.067 87.0675C123.935 86.805 123.827 86.5545 123.827 86.5106C123.827 86.4668 124.599 85.1461 125.544 83.5759C127.843 79.7538 128.044 79.3023 128.126 77.7679C128.182 76.7368 128.082 76.16 127.719 75.4204C127.502 74.979 127.136 74.5742 125.361 72.8128C123.513 70.9789 123.186 70.6903 122.649 70.4185C121.764 69.9707 120.788 69.8055 119.78 69.9329C118.405 70.1065 117.9 70.351 114.669 72.4078C113.057 73.4343 111.706 74.274 111.666 74.274C111.627 74.274 111.268 74.1109 110.869 73.9116C110.469 73.7122 109.6 73.3362 108.936 73.076C108.273 72.8157 107.654 72.5717 107.561 72.5336C107.416 72.4737 107.294 72.0175 106.657 69.1475C106.252 67.3233 105.826 65.5933 105.711 65.3033C105.05 63.6384 103.633 62.3199 102.077 61.9227C101.385 61.7462 96.1388 61.7475 95.4821 61.9244ZM101.472 66.1085C101.771 66.3058 102.08 66.729 102.236 67.155C102.305 67.3416 102.76 69.3099 103.248 71.5289C103.736 73.7479 104.176 75.6071 104.227 75.6604C104.278 75.7138 104.825 75.9163 105.442 76.1105C107.092 76.629 108.612 77.259 110.272 78.1122L111.744 78.8689L113.148 77.9748C113.92 77.4831 114.795 76.9233 115.092 76.7308C117.591 75.1136 119.18 74.1459 119.491 74.0524C119.694 73.9913 120.03 73.9413 120.238 73.9413H120.615L122.394 75.709L124.172 77.4767L124.125 77.8366C124.038 78.4961 123.711 79.1152 121.515 82.7746C120.316 84.7734 119.335 86.449 119.335 86.4982C119.335 86.5473 119.629 87.1767 119.99 87.8968C120.898 89.712 121.275 90.6266 121.851 92.4086C122.124 93.255 122.372 93.9738 122.401 94.0059C122.43 94.0381 123.484 94.2925 124.742 94.5715C131.351 96.037 131.281 96.0166 131.807 96.6156L132.062 96.9065V99.3511V101.796L131.723 102.086C131.26 102.482 130.579 102.689 126.05 103.807L122.243 104.748L121.866 105.939C121.376 107.488 120.84 108.782 119.964 110.532L119.254 111.95L121.469 115.635C123.687 119.325 124.006 119.922 124.117 120.596L124.177 120.958L122.435 122.705C120.746 124.4 120.681 124.454 120.308 124.496C119.687 124.566 119.199 124.342 117.227 123.086C116.213 122.439 114.922 121.618 114.358 121.26C113.794 120.902 112.986 120.385 112.562 120.11C112.138 119.835 111.755 119.61 111.711 119.61C111.667 119.61 110.978 119.944 110.18 120.353C108.494 121.215 107.52 121.619 105.574 122.264L104.167 122.73L103.86 124.144C103.46 125.992 103.027 127.938 102.594 129.839C102.215 131.507 102.015 131.941 101.458 132.315C101.18 132.501 101.133 132.504 98.8128 132.504H96.4504L96.2347 132.276C95.8062 131.821 95.5567 131.04 94.5406 126.972C93.9805 124.731 93.481 122.853 93.4306 122.801C93.3801 122.748 92.7559 122.517 92.0433 122.286C90.1656 121.678 89.2194 121.284 87.3479 120.328L85.6826 119.478L82.0656 121.788C78.3015 124.191 77.9708 124.385 77.4652 124.48C76.7579 124.612 76.6638 124.55 74.8507 122.747C73.2103 121.115 73.1663 121.063 73.169 120.736C73.1705 120.552 73.2373 120.211 73.3177 119.978C73.398 119.746 74.5237 117.788 75.8194 115.626L78.1752 111.697L77.6144 110.558C76.6886 108.679 76.3342 107.83 75.8194 106.259L75.3288 104.762L71.0546 103.691C66.8106 102.627 66.2045 102.434 65.7419 101.995L65.5131 101.778V99.393C65.5131 97.052 65.5165 97.0033 65.7018 96.7284C65.8057 96.5743 66.0623 96.3421 66.2722 96.2124C66.6816 95.9592 66.7515 95.9404 69.5892 95.3135C70.6186 95.0861 72.3078 94.7088 73.3428 94.475L75.2248 94.0498L75.618 92.7924C76.1697 91.0288 76.4741 90.2724 77.3833 88.406L78.1781 86.7742L75.798 82.8044C74.414 80.496 73.3652 78.6572 73.292 78.4109C73.0221 77.5017 72.9774 77.5797 74.8091 75.7587C75.7128 74.8603 76.5338 74.084 76.6338 74.0333C76.924 73.8863 77.4965 73.9298 77.991 74.1364C78.2427 74.2414 80.0715 75.3635 82.0552 76.63C84.0388 77.8963 85.6875 78.9325 85.7188 78.9325C85.7501 78.9325 86.3892 78.6091 87.139 78.214C88.8749 77.2991 89.8754 76.8773 91.8368 76.2334C92.7035 75.9488 93.4414 75.663 93.4766 75.5981C93.5118 75.5333 94.0092 73.5992 94.5819 71.3C95.1546 69.0009 95.697 66.975 95.7873 66.7983C95.8774 66.6214 96.05 66.3595 96.1706 66.2161L96.39 65.9554L98.8157 65.956C101.025 65.9565 101.262 65.9701 101.472 66.1085ZM96.999 84.3475C93.176 84.8907 89.9988 86.5763 87.5313 89.3707C82.1031 95.5177 82.7147 105.012 88.8884 110.438C93.3601 114.368 99.7369 115.297 105.132 112.803C108.257 111.358 110.958 108.668 112.411 105.552C114.89 100.234 114.057 94.0718 110.244 89.5295C108.259 87.1645 105.352 85.3695 102.365 84.6638C100.762 84.2853 98.412 84.1468 96.999 84.3475ZM101.408 88.6983C105.158 89.6712 108.008 92.3048 109.221 95.9162C109.715 97.3876 109.861 99.6005 109.571 101.202C108.602 106.541 103.735 110.396 98.3372 110.101C96.6324 110.008 95.3102 109.65 93.7964 108.873C90.7128 107.289 88.4839 104.115 88.0533 100.694C87.9159 99.6028 87.9934 97.7457 88.2133 96.8552C89.0194 93.5918 91.1472 90.926 94.0875 89.4955C95.7562 88.6836 97.1019 88.4069 99.1619 88.4517C100.348 88.4775 100.71 88.5172 101.408 88.6983Z" fill="white"/>
</svg>
