<svg width="233" height="233" viewBox="0 0 233 233" fill="none" xmlns="http://www.w3.org/2000/svg">
<rect x="0.756836" y="0.234375" width="232.242" height="232.242" rx="17.9625" fill="#7D8491"/>
<path fill-rule="evenodd" clip-rule="evenodd" d="M115.084 74.3889C111.696 74.8345 108.801 75.9319 105.889 77.8754C104.103 79.067 101.482 81.716 100.309 83.5151C96.0727 90.0135 95.5618 97.9586 98.9422 104.782C101.459 109.862 105.79 113.659 111.073 115.416L112.345 115.839V117.924V120.008L111.66 120.09C110.13 120.272 108.285 121.607 107.696 122.959C107.571 123.246 107.407 123.484 107.331 123.489C107.255 123.494 106.671 123.49 106.034 123.481C105.396 123.471 104.05 123.506 103.043 123.558L101.212 123.652L100.746 124.084C100.282 124.515 100.28 124.522 100.235 125.782L100.19 127.047L89.6052 127.047L79.0205 127.047L78.6488 126.326C78.201 125.458 77.285 124.561 76.3315 124.055C75.6813 123.711 75.5184 123.683 74.1295 123.681C72.7301 123.679 72.5781 123.704 71.8624 124.065C70.8367 124.583 69.883 125.574 69.383 126.643L68.9775 127.51V141.184V154.859L69.3273 155.615C70.2808 157.675 72.3585 158.9 74.5787 158.712C76.2822 158.568 77.9588 157.413 78.6945 155.878L79.0205 155.198L89.5852 155.227L100.15 155.255L100.215 156.444C100.288 157.768 100.43 158.123 101.039 158.499C101.444 158.749 101.842 158.756 117.536 158.756C135.142 158.756 134.057 158.805 134.633 157.986C134.843 157.687 134.906 157.362 134.936 156.432L134.974 155.255L145.539 155.224L156.104 155.192L156.43 155.871C157.482 158.06 160.127 159.237 162.438 158.544C163.902 158.105 165.147 157.018 165.797 155.615L166.147 154.859V141.184V127.51L165.84 126.74C165.444 125.747 164.334 124.588 163.277 124.065C162.557 123.709 162.381 123.678 161.06 123.678C159.769 123.678 159.549 123.715 158.864 124.04C157.965 124.466 156.74 125.673 156.377 126.489L156.129 127.047H145.532H134.934L134.889 125.782L134.844 124.517L134.357 124.064L133.869 123.612H130.814H127.759L127.463 122.985C127.3 122.64 126.806 121.996 126.365 121.555C125.728 120.917 125.371 120.681 124.621 120.399C124.102 120.204 123.475 120.045 123.228 120.045H122.779V117.954V115.862L123.994 115.456C129.337 113.668 133.75 109.809 136.199 104.785C139.531 97.9472 139.08 90.1576 134.982 83.7778C131.858 78.9151 126.726 75.5149 121.02 74.5288C119.331 74.2369 116.709 74.1751 115.084 74.3889ZM121.345 78.1435C125.557 79.136 129.323 81.6855 131.814 85.2311C132.816 86.6567 133.938 89.0974 134.386 90.8249C134.912 92.8562 135.08 95.9402 134.776 97.9808C134.239 101.591 132.57 104.978 130.037 107.604C127.673 110.054 125.123 111.549 121.736 112.47C120.432 112.825 120.233 112.843 117.562 112.84C114.914 112.837 114.682 112.816 113.401 112.47C109.998 111.55 107.303 109.954 104.964 107.473C101.862 104.184 100.215 99.9761 100.215 95.3384C100.215 86.7933 106.165 79.5769 114.497 78.0151C116.236 77.6891 119.691 77.7539 121.345 78.1435ZM115.671 81.4078C115.527 81.4411 115.087 81.5345 114.693 81.6155C109.357 82.711 105.124 87.0038 103.999 92.4589C103.697 93.9242 103.629 95.549 103.847 96.082C104.232 97.0204 105.597 97.3627 106.42 96.7271C106.922 96.3392 107.079 95.8881 107.177 94.5417C107.488 90.2933 110.316 86.6851 114.432 85.2828C115.589 84.8887 115.792 84.8605 117.497 84.8583C119.109 84.8563 119.457 84.8975 120.472 85.2104C122.714 85.902 124.256 86.9704 125.842 88.9305C127.051 90.4249 127.988 93.0305 127.994 94.9132C127.995 95.297 128.078 95.8085 128.177 96.0496C128.755 97.4497 130.858 97.3771 131.345 95.9405C131.486 95.5252 131.494 95.1431 131.385 94.0567C130.959 89.818 128.692 85.9472 125.316 83.6943C123.817 82.6939 122.72 82.2045 120.758 81.6616C120 81.4521 116.281 81.2666 115.671 81.4078ZM121.909 88.5923C121.598 88.7846 120.854 89.9342 118.895 93.2492C117.465 95.6699 116.198 97.8408 116.08 98.0733C115.302 99.6132 116.98 101.264 118.419 100.375C118.827 100.123 119.178 99.5797 122.013 94.8099C124.253 91.0403 124.372 90.8169 124.44 90.2406C124.606 88.8392 123.099 87.8577 121.909 88.5923ZM119.388 118.261V120.045H117.627H115.867V118.261V116.478H117.627H119.388V118.261ZM123.521 123.737C124.137 124.02 124.399 124.439 124.53 125.354C124.579 125.694 124.738 126.126 124.884 126.314C125.416 126.999 125.669 127.047 128.708 127.047H131.519L131.486 141.151L131.453 155.255H117.562H103.671L103.638 141.151L103.605 127.047L106.442 127.047C109.025 127.046 109.317 127.023 109.697 126.789C110.259 126.442 110.51 126.019 110.637 125.206C110.758 124.428 111.245 123.809 111.884 123.621C112.101 123.557 114.686 123.5 117.627 123.495C122.613 123.487 123.012 123.503 123.521 123.737ZM74.8751 127.268C75.1275 127.389 75.4443 127.672 75.579 127.896C75.8143 128.286 75.8241 128.812 75.8241 141.118C75.8241 153.589 75.8172 153.945 75.5699 154.356C75.2054 154.962 74.731 155.232 74.0508 155.222C73.2934 155.21 72.6288 154.719 72.44 154.031C72.3512 153.707 72.3048 149.259 72.3044 141.052C72.3039 127.125 72.2467 127.994 73.2032 127.347C73.7294 126.991 74.248 126.967 74.8751 127.268ZM161.921 127.347C162.878 127.995 162.82 127.11 162.82 141.184C162.82 152.936 162.805 153.833 162.592 154.255C162.261 154.913 161.764 155.233 161.075 155.233C160.398 155.233 159.915 154.955 159.554 154.356C159.307 153.945 159.3 153.589 159.301 141.184C159.301 130.006 159.325 128.387 159.5 128.048C159.988 127.099 161.086 126.782 161.921 127.347ZM100.183 141.151L100.15 151.688L89.7483 151.722L79.3466 151.756V141.185V130.615H89.7816H100.217L100.183 141.151ZM116.845 130.802C115.867 131.243 111.86 135.96 110.425 138.36C108.784 141.103 108.508 143.536 109.536 146.192C110.326 148.235 112.282 150.246 114.192 150.982C114.972 151.282 115.245 151.286 115.824 151.008C116.628 150.621 116.701 150.379 116.713 148.069C116.722 146.131 116.745 145.949 117.092 145.049C117.296 144.522 117.507 144.091 117.562 144.091C117.617 144.091 117.828 144.522 118.03 145.049C118.374 145.944 118.4 146.145 118.42 148.101L118.441 150.196L118.894 150.654C119.585 151.354 120.191 151.387 121.381 150.788C123.068 149.941 124.532 148.458 125.385 146.734C126.286 144.913 126.472 142.518 125.845 140.788C124.907 138.198 123.214 135.787 119.779 132.152C118.36 130.649 117.777 130.381 116.845 130.802ZM155.778 141.185V151.756L145.376 151.722L134.974 151.688L134.941 141.151L134.908 130.615H145.343H155.778V141.185ZM119.852 137.485C121.084 139.036 121.535 139.712 122.145 140.92C122.676 141.972 122.712 142.11 122.709 143.1C122.707 143.919 122.633 144.333 122.384 144.94C121.996 145.882 121.795 145.994 121.704 145.318C121.475 143.617 119.73 140.584 118.465 139.686C118.058 139.397 117.062 139.4 116.651 139.692C115.49 140.515 113.99 143.021 113.566 144.843C113.442 145.374 113.301 145.809 113.252 145.809C113.203 145.809 112.996 145.437 112.792 144.983C112.481 144.293 112.42 143.983 112.422 143.1C112.423 142.136 112.467 141.956 112.923 141.052C113.76 139.395 115.338 137.226 116.876 135.619L117.587 134.876L118.326 135.685C118.732 136.13 119.419 136.94 119.852 137.485Z" fill="white"/>
</svg>
