<svg width="197" height="197" viewBox="0 0 197 197" fill="none" xmlns="http://www.w3.org/2000/svg">
<rect x="0.635742" y="0.427734" width="196.364" height="196.364" rx="15.1875" fill="#7D8491"/>
<path fill-rule="evenodd" clip-rule="evenodd" d="M97.301 63.127C94.4362 63.5038 91.989 64.4317 89.5263 66.075C88.0165 67.0825 85.8007 69.3223 84.8089 70.8434C81.2267 76.3379 80.7948 83.0556 83.6529 88.8251C85.7806 93.1201 89.4432 96.3307 93.9099 97.8161L94.9852 98.1736V99.9362V101.699L94.4062 101.768C93.112 101.922 91.5522 103.051 91.0544 104.194C90.9487 104.436 90.8099 104.638 90.7458 104.642C90.6816 104.646 90.188 104.643 89.6489 104.635C89.1097 104.627 87.972 104.656 87.1204 104.7L85.5723 104.78L85.1783 105.145C84.7861 105.509 84.7841 105.516 84.7461 106.581L84.7079 107.651L75.7583 107.65L66.8089 107.65L66.4946 107.041C66.116 106.307 65.3415 105.548 64.5352 105.121C63.9855 104.83 63.8478 104.806 62.6734 104.804C61.4902 104.802 61.3617 104.824 60.7565 105.129C59.8893 105.567 59.0829 106.405 58.6602 107.309L58.3174 108.042V119.604V131.166L58.6132 131.805C59.4193 133.546 61.176 134.583 63.0532 134.424C64.4936 134.301 65.9112 133.325 66.5332 132.028L66.8089 131.452L75.7415 131.477L84.6741 131.501L84.7292 132.506C84.7906 133.625 84.911 133.925 85.4255 134.243C85.7684 134.455 86.1049 134.46 99.3743 134.461C114.261 134.461 113.343 134.502 113.83 133.81C114.007 133.557 114.061 133.282 114.086 132.495L114.119 131.501L123.051 131.474L131.984 131.447L132.259 132.021C133.149 133.873 135.386 134.868 137.34 134.281C138.577 133.91 139.63 132.991 140.179 131.805L140.475 131.166V119.604V108.042L140.216 107.391C139.882 106.551 138.943 105.571 138.049 105.129C137.44 104.828 137.291 104.802 136.174 104.802C135.083 104.802 134.897 104.833 134.317 105.108C133.558 105.468 132.521 106.489 132.215 107.178L132.005 107.651H123.045H114.085L114.047 106.581L114.008 105.511L113.596 105.128L113.184 104.746H110.601H108.018L107.767 104.215C107.63 103.924 107.212 103.38 106.84 103.007C106.301 102.468 105.999 102.268 105.365 102.029C104.926 101.865 104.396 101.73 104.187 101.73H103.807V99.9617V98.1935L104.835 97.8498C109.352 96.3381 113.083 93.0755 115.154 88.8274C117.971 83.046 117.59 76.4598 114.125 71.0655C111.484 66.954 107.144 64.0791 102.32 63.2453C100.892 62.9986 98.675 62.9463 97.301 63.127ZM102.594 66.3016C106.156 67.1408 109.34 69.2965 111.447 72.2943C112.294 73.4997 113.242 75.5633 113.621 77.0239C114.066 78.7414 114.208 81.349 113.951 83.0743C113.496 86.1267 112.086 88.9907 109.944 91.2108C107.945 93.2823 105.789 94.5464 102.925 95.3254C101.823 95.6254 101.654 95.6403 99.3963 95.6377C97.1576 95.6353 96.9612 95.6177 95.8779 95.3248C93.0006 94.547 90.7223 93.1977 88.744 91.1C86.1214 88.3191 84.7292 84.7614 84.7292 80.8401C84.7292 73.6152 89.7596 67.5136 96.8048 66.193C98.2749 65.9174 101.197 65.9722 102.594 66.3016ZM97.7973 69.0616C97.676 69.0898 97.3038 69.1688 96.9702 69.2372C92.4588 70.1635 88.8793 73.7931 87.9285 78.4055C87.6731 79.6444 87.6157 81.0182 87.8004 81.4688C88.1256 82.2623 89.28 82.5518 89.9756 82.0143C90.4002 81.6863 90.5323 81.305 90.6157 80.1665C90.8789 76.5745 93.2693 73.5237 96.7496 72.338C97.7278 72.0048 97.8996 71.981 99.3412 71.9791C100.704 71.9774 100.999 72.0122 101.856 72.2768C103.752 72.8616 105.056 73.7649 106.397 75.4222C107.419 76.6858 108.212 78.8888 108.217 80.4807C108.218 80.8052 108.287 81.2376 108.372 81.4415C108.86 82.6253 110.638 82.5639 111.05 81.3492C111.169 80.9981 111.176 80.675 111.084 79.7564C110.724 76.1726 108.807 72.8998 105.953 70.9949C104.685 70.149 103.757 69.7353 102.098 69.2762C101.458 69.0991 98.3133 68.9422 97.7973 69.0616ZM103.072 75.1362C102.809 75.2989 102.18 76.2709 100.523 79.0737C99.3138 81.1204 98.2429 82.9559 98.1434 83.1525C97.4852 84.4545 98.9038 85.8503 100.121 85.0984C100.466 84.8854 100.762 84.4263 103.16 80.3933C105.054 77.2061 105.154 77.0172 105.212 76.5299C105.352 75.345 104.077 74.5151 103.072 75.1362ZM100.94 100.222V101.73H99.4515H97.9627V100.222V98.7138H99.4515H100.94V100.222ZM104.434 104.851C104.955 105.091 105.177 105.446 105.288 106.218C105.329 106.506 105.464 106.871 105.587 107.031C106.037 107.61 106.251 107.651 108.82 107.651H111.197L111.169 119.576L111.141 131.501H99.3963H87.6516L87.6235 119.576L87.5955 107.651L89.9945 107.65C92.178 107.65 92.4252 107.63 92.7461 107.432C93.2211 107.139 93.4333 106.781 93.5406 106.094C93.6433 105.435 94.0547 104.912 94.595 104.753C94.7793 104.699 96.9647 104.651 99.4515 104.647C103.667 104.64 104.004 104.654 104.434 104.851ZM63.3039 107.837C63.5173 107.94 63.7851 108.179 63.899 108.368C64.098 108.698 64.1063 109.143 64.1063 119.548C64.1063 130.092 64.1004 130.393 63.8913 130.741C63.5831 131.253 63.182 131.481 62.6069 131.472C61.9665 131.463 61.4045 131.047 61.245 130.465C61.1699 130.191 61.1306 126.431 61.1303 119.492C61.1298 107.716 61.0815 108.451 61.8902 107.904C62.3352 107.603 62.7736 107.582 63.3039 107.837ZM136.902 107.904C137.711 108.452 137.663 107.703 137.663 119.604C137.663 129.54 137.65 130.298 137.47 130.655C137.19 131.211 136.77 131.482 136.187 131.482C135.614 131.482 135.206 131.247 134.901 130.741C134.692 130.393 134.686 130.092 134.687 119.604C134.687 110.152 134.708 108.783 134.855 108.496C135.268 107.694 136.196 107.426 136.902 107.904ZM84.7023 119.576L84.6741 128.485L75.8793 128.513L67.0846 128.542V119.604V110.667H75.9075H84.7305L84.7023 119.576ZM98.7898 110.825C97.963 111.198 94.575 115.187 93.3616 117.216C91.9745 119.535 91.7411 121.592 92.6101 123.838C93.2781 125.565 94.9317 127.266 96.5468 127.887C97.2063 128.141 97.4369 128.145 97.9267 127.909C98.6065 127.582 98.6686 127.377 98.6782 125.425C98.6863 123.786 98.7056 123.632 98.9992 122.871C99.171 122.426 99.3497 122.061 99.3963 122.061C99.443 122.061 99.6211 122.426 99.7922 122.871C100.083 123.627 100.105 123.798 100.122 125.452L100.14 127.223L100.522 127.611C101.106 128.202 101.619 128.23 102.626 127.724C104.051 127.007 105.289 125.753 106.011 124.296C106.773 122.757 106.929 120.731 106.4 119.268C105.607 117.079 104.175 115.04 101.271 111.966C100.071 110.696 99.5781 110.469 98.7898 110.825ZM131.708 119.604V128.542L122.913 128.513L114.119 128.485L114.09 119.576L114.062 110.667H122.885H131.708V119.604ZM101.332 116.476C102.374 117.787 102.755 118.359 103.271 119.38C103.721 120.27 103.751 120.386 103.748 121.223C103.746 121.916 103.684 122.266 103.473 122.779C103.146 123.576 102.975 123.67 102.898 123.099C102.704 121.66 101.23 119.096 100.16 118.337C99.8158 118.093 98.9731 118.095 98.6259 118.342C97.6446 119.038 96.3757 121.156 96.0171 122.697C95.9126 123.146 95.7933 123.513 95.752 123.513C95.7107 123.513 95.5356 123.199 95.3628 122.815C95.1003 122.232 95.0487 121.97 95.0499 121.223C95.0511 120.409 95.0886 120.256 95.4742 119.492C96.1816 118.091 97.5159 116.257 98.8159 114.898L99.417 114.27L100.042 114.954C100.386 115.33 100.966 116.015 101.332 116.476Z" fill="white"/>
</svg>
