<?xml version="1.0" standalone="no"?>
<!DOCTYPE svg PUBLIC "-//W3C//DTD SVG 20010904//EN"
 "http://www.w3.org/TR/2001/REC-SVG-20010904/DTD/svg10.dtd">
<svg version="1.0" xmlns="http://www.w3.org/2000/svg"
 width="700.000000pt" height="700.000000pt" viewBox="0 0 700.000000 700.000000"
 preserveAspectRatio="xMidYMid meet">
<metadata>
Created by potrace 1.14, written by Peter Selinger 2001-2017
</metadata>
<g transform="translate(0.000000,700.000000) scale(0.100000,-0.100000)"
fill="#000000" stroke="none">
<path d="M173 6989 c-93 -17 -173 -88 -173 -154 0 -41 33 -108 151 -308 104
-176 606 -1002 664 -1092 28 -45 215 -350 240 -393 6 -9 17 -28 26 -42 9 -14
48 -77 86 -140 300 -492 648 -1060 664 -1082 10 -15 19 -30 19 -33 0 -2 27
-48 61 -100 l61 -95 4 -1038 c3 -570 6 -1342 8 -1715 l3 -678 43 -44 c53 -54
108 -74 189 -71 98 5 178 61 187 132 6 52 13 1128 15 2426 l2 1058 -103 167
c-57 93 -113 184 -125 203 -13 19 -85 136 -160 260 -76 124 -167 271 -202 328
-35 56 -112 182 -172 280 -59 97 -188 308 -286 467 -168 273 -355 581 -393
645 -9 16 -73 122 -142 236 -160 265 -199 335 -200 356 0 9 10 29 23 43 l22
27 550 2 c303 2 558 0 567 -3 9 -3 155 -231 324 -506 168 -275 442 -720 607
-990 165 -269 341 -555 390 -635 50 -80 97 -157 106 -172 9 -15 43 -71 76
-125 33 -54 64 -106 70 -115 5 -9 52 -86 104 -170 52 -84 129 -209 170 -277
l76 -124 1 -1381 c2 -1713 4 -2005 17 -2031 32 -63 141 -112 226 -102 54 6 86
22 136 64 33 28 36 36 41 99 4 38 7 803 9 1699 2 897 3 1633 4 1637 1 5 42 56
81 98 8 9 42 47 75 85 33 39 64 75 70 81 5 6 35 39 65 74 48 56 101 117 339
389 31 36 63 72 71 81 8 8 40 45 70 80 30 36 71 82 90 104 53 58 51 56 115
131 33 39 62 72 65 75 3 3 34 39 69 80 36 41 70 80 75 85 6 6 38 42 71 80 33
39 62 72 65 75 3 3 50 57 105 120 54 63 102 117 105 120 3 3 61 70 130 150 68
80 160 186 205 235 44 50 145 167 225 260 80 92 150 173 155 179 6 6 53 61
105 121 52 61 97 112 100 115 3 3 72 84 155 180 82 96 152 177 155 180 29 23
80 108 80 131 0 49 -29 102 -73 135 -55 41 -90 52 -157 49 -91 -3 -133 -31
-251 -166 -31 -35 -93 -107 -139 -159 -45 -52 -106 -121 -134 -154 -28 -32
-69 -79 -91 -104 -22 -25 -47 -53 -55 -62 -8 -9 -40 -45 -70 -80 -57 -67 -100
-116 -135 -155 -11 -13 -41 -47 -67 -76 -25 -30 -56 -65 -68 -79 -12 -14 -43
-49 -68 -79 -26 -30 -52 -59 -58 -65 -5 -6 -39 -45 -74 -86 -36 -41 -79 -91
-96 -110 -17 -19 -69 -78 -114 -130 -91 -105 -189 -217 -205 -234 -6 -6 -37
-42 -70 -81 -33 -38 -62 -72 -66 -75 -3 -3 -70 -79 -148 -170 -79 -91 -158
-181 -175 -200 -17 -19 -60 -69 -96 -110 -36 -41 -69 -80 -75 -86 -5 -6 -35
-39 -65 -74 -30 -35 -62 -71 -70 -80 -8 -9 -42 -47 -75 -85 -33 -39 -64 -75
-70 -81 -5 -6 -33 -37 -62 -70 -28 -32 -62 -71 -75 -85 -12 -14 -42 -46 -65
-72 -22 -26 -45 -47 -50 -47 -4 1 -22 20 -39 43 -38 53 -196 300 -269 422 -20
33 -73 120 -118 192 -80 130 -341 555 -602 983 -359 588 -509 834 -633 1035
-148 241 -152 247 -201 329 l-33 57 -937 -2 c-515 -1 -955 -6 -978 -10z"/>
</g>
</svg>
