<svg width="30" height="30" viewBox="0 0 30 30" fill="none" xmlns="http://www.w3.org/2000/svg">
<path d="M29.9156 8.81505C29.8435 7.21777 29.5855 6.1249 29.2194 5.17014C28.8353 4.18535 28.3252 3.34468 27.4911 2.51601C26.6569 1.68735 25.8227 1.16493 24.8385 0.786629C23.8844 0.414331 22.7921 0.16213 21.1958 0.0900721C19.5935 0.0180144 19.0834 0 15.0146 0C10.9398 0 10.4297 0.0180144 8.83334 0.0900721C7.23702 0.16213 6.1448 0.420336 5.19061 0.786629C4.20041 1.17094 3.36025 1.68134 2.53208 2.51601C1.70392 3.35068 1.18181 4.18535 0.803735 5.17014C0.437662 6.1249 0.179611 7.21777 0.107596 8.81505C0.0355817 10.4183 0.0175781 10.9287 0.0175781 15C0.0175781 19.0773 0.0355817 19.5877 0.107596 21.1849C0.179611 22.7822 0.437662 23.8751 0.803735 24.8299C1.18781 25.8147 1.69791 26.6553 2.53208 27.484C3.36025 28.3187 4.20041 28.8351 5.18461 29.2134C6.1388 29.5857 7.23102 29.8379 8.82734 29.9099C10.4297 29.982 10.9398 30 15.0086 30C19.0834 30 19.5935 29.982 21.1898 29.9099C22.7861 29.8379 23.8783 29.5797 24.8325 29.2134C25.8167 28.8291 26.6569 28.3187 27.4851 27.484C28.3132 26.6493 28.8353 25.8147 29.2134 24.8299C29.5855 23.8751 29.8375 22.7822 29.9096 21.1849C29.9816 19.5817 29.9996 19.0713 29.9996 15C29.9996 10.9287 29.9876 10.4123 29.9156 8.81505ZM27.221 21.0649C27.155 22.53 26.909 23.3287 26.7049 23.8511C26.4349 24.5476 26.1048 25.052 25.5767 25.5805C25.0486 26.1089 24.5505 26.4271 23.8483 26.7094C23.3202 26.9135 22.5221 27.1597 21.0638 27.2258C19.4855 27.2978 19.0114 27.3159 15.0026 27.3159C10.9938 27.3159 10.5197 27.2978 8.94136 27.2258C7.47707 27.1597 6.67891 26.9135 6.15681 26.7094C5.46067 26.4392 4.95657 26.1089 4.42846 25.5805C3.90035 25.052 3.58229 24.5536 3.30023 23.8511C3.09619 23.3227 2.85014 22.524 2.78413 21.0649C2.71212 19.4856 2.69411 19.0112 2.69411 15C2.69411 10.9888 2.71212 10.5144 2.78413 8.93515C2.85014 7.46998 3.09619 6.67134 3.30023 6.14892C3.57029 5.45236 3.90035 4.94796 4.42846 4.41954C4.95657 3.89111 5.45467 3.57286 6.15681 3.29063C6.68491 3.08647 7.48307 2.84027 8.94136 2.77422C10.5197 2.70216 10.9938 2.68415 15.0026 2.68415C19.0114 2.68415 19.4855 2.70216 21.0638 2.77422C22.5281 2.84027 23.3262 3.08647 23.8483 3.29063C24.5445 3.56085 25.0486 3.89111 25.5767 4.41954C26.1048 4.94796 26.4229 5.44636 26.7049 6.14892C26.909 6.67734 27.155 7.47598 27.221 8.93515C27.293 10.5144 27.311 10.9888 27.311 15C27.311 19.0112 27.287 19.4856 27.221 21.0649Z" fill="#181818"/>
<path d="M15.0024 7.28906C10.7416 7.28906 7.29688 10.7418 7.29688 14.9992C7.29688 19.2626 10.7476 22.7094 15.0024 22.7094C19.2573 22.7094 22.708 19.2506 22.708 14.9992C22.708 10.7358 19.2633 7.28906 15.0024 7.28906ZM15.0024 20.0012C12.2419 20.0012 10.0034 17.7614 10.0034 14.9992C10.0034 12.237 12.2419 9.99723 15.0024 9.99723C17.763 9.99723 20.0014 12.237 20.0014 14.9992C20.0014 17.7614 17.763 20.0012 15.0024 20.0012Z" fill="#181818"/>
<path d="M23.0084 8.79038C24.0027 8.79038 24.8087 7.98385 24.8087 6.98894C24.8087 5.99403 24.0027 5.1875 23.0084 5.1875C22.0141 5.1875 21.208 5.99403 21.208 6.98894C21.208 7.98385 22.0141 8.79038 23.0084 8.79038Z" fill="#181818"/>
<path d="M0 15C0 19.0773 0.0180036 19.5877 0.090018 21.1849C0.162032 22.7822 0.420084 23.8751 0.786157 24.8299C1.17023 25.8147 1.68034 26.6553 2.5145 27.484C3.34267 28.3127 4.18284 28.8351 5.16703 29.2134C6.12122 29.5857 7.21344 29.8379 8.80976 29.9099C10.4121 29.982 10.9222 30 14.991 30C19.0658 30 19.5759 29.982 21.1722 29.9099C22.7686 29.8379 23.8608 29.5797 24.815 29.2134C25.7992 28.8291 26.6393 28.3187 27.4675 27.484C28.2957 26.6553 28.8178 25.8147 29.1958 24.8299C29.5679 23.8751 29.82 22.7822 29.892 21.1849C29.964 19.5817 29.982 19.0713 29.982 15C29.982 10.9227 29.964 10.4123 29.892 8.81505C29.82 7.21777 29.5619 6.1249 29.1958 5.17014C28.8118 4.18535 28.3017 3.34468 27.4675 2.51601C26.6453 1.68134 25.8052 1.16493 24.821 0.786629C23.8668 0.414331 22.7746 0.16213 21.1782 0.0900721C19.5759 0.0180144 19.0658 0 14.997 0C10.9222 0 10.4121 0.0180144 8.81576 0.0900721C7.21944 0.16213 6.12722 0.420336 5.17303 0.786629C4.18884 1.17094 3.34867 1.68134 2.5205 2.51601C1.69234 3.35068 1.17023 4.18535 0.792158 5.17014C0.420084 6.1249 0.162032 7.21777 0.090018 8.81505C0.0180036 10.4123 0 10.9227 0 15ZM2.70654 15C2.70654 10.9948 2.72454 10.5144 2.79656 8.93515C2.86257 7.46998 3.10862 6.67134 3.31266 6.14892C3.58272 5.45236 3.91278 4.94796 4.44089 4.41954C4.96899 3.89111 5.46709 3.57286 6.16923 3.29063C6.69734 3.08647 7.4955 2.84027 8.95379 2.77422C10.5321 2.70216 11.0062 2.68415 15.015 2.68415C19.0238 2.68415 19.4979 2.70216 21.0762 2.77422C22.5405 2.84027 23.3387 3.08647 23.8608 3.29063C24.5569 3.56085 25.061 3.89111 25.5891 4.41954C26.1172 4.94796 26.4353 5.44636 26.7173 6.14892C26.9214 6.67734 27.1674 7.47598 27.2334 8.93515C27.3055 10.5144 27.3235 10.9888 27.3235 15C27.3235 19.0112 27.3055 19.4856 27.2334 21.0649C27.1674 22.53 26.9214 23.3287 26.7173 23.8511C26.4473 24.5476 26.1172 25.052 25.5891 25.5805C25.061 26.1089 24.5629 26.4271 23.8608 26.7094C23.3327 26.9135 22.5345 27.1597 21.0762 27.2258C19.4979 27.2978 19.0238 27.3159 15.015 27.3159C11.0062 27.3159 10.5321 27.2978 8.95379 27.2258C7.4895 27.1597 6.69134 26.9135 6.16923 26.7094C5.47309 26.4392 4.96899 26.1089 4.44089 25.5805C3.91278 25.052 3.59472 24.5536 3.31266 23.8511C3.10862 23.3227 2.86257 22.524 2.79656 21.0649C2.71854 19.4856 2.70654 19.0052 2.70654 15Z" fill="#181818"/>
</svg>
