<svg width="120" height="47" viewBox="0 0 120 47" fill="none" xmlns="http://www.w3.org/2000/svg">
<path fill-rule="evenodd" clip-rule="evenodd" d="M0.666017 0.127622C0.531287 0.197865 0.325721 0.369655 0.209266 0.509385C0.0335223 0.720184 -0.00203738 0.824414 8.77018e-05 1.12135C0.00249613 1.45578 0.342297 2.13723 5.20399 11.5582L10.4053 21.6372L10.4408 32.3404L10.4762 43.0437L10.6647 43.3203C11.123 43.9929 12.0784 43.9911 12.5969 43.3167C12.7428 43.1269 12.7429 43.1153 12.7613 32.1509L12.7796 21.1752L8.06838 12.0726C5.4772 7.06617 3.35715 2.8934 3.35715 2.79976C3.35715 2.7062 3.41807 2.55649 3.49252 2.46719L3.62788 2.30476L6.59159 2.28735L9.5553 2.27001L14.6015 12.0336L19.6477 21.7973L19.649 32.3949C19.6497 38.4815 19.6773 43.0598 19.7138 43.1506C19.7488 43.2376 19.8893 43.4129 20.0261 43.5401C20.288 43.7838 20.7235 43.8887 21.0961 43.7979C21.3291 43.741 21.7697 43.3644 21.8535 43.1504C21.8923 43.0511 21.918 38.7151 21.9169 32.4422L21.9149 21.901L29.3774 11.7532C33.4818 6.17186 36.8605 1.5305 36.8857 1.43906C37.0184 0.957333 36.7893 0.429097 36.336 0.171034C35.764 -0.154522 35.1982 0.00233918 34.7197 0.619188C34.5876 0.789465 31.489 4.99994 27.8342 9.97581C24.1793 14.9517 21.1318 19.0816 21.0619 19.1534C20.939 19.2799 20.7791 18.9811 15.9712 9.642L11.0074 0H5.95924C1.17767 0 0.898147 0.00674224 0.666017 0.127622Z" fill="#F37021"/>
<path d="M57.015 16.5381V11.5227L60.8304 4.93809H58.815L56.1535 9.56885L53.4919 4.93809H51.4919L55.2765 11.5227V16.5381H57.015ZM63.7475 8.41501L72.209 17.2458V4.93809H70.4552V12.9996L61.9936 4.15347V16.5381H63.7475V8.41501ZM79.2953 8.13809L81.0184 12.0765H77.4953L79.2953 8.13809ZM84.8645 16.5381L79.3261 4.21501L73.5876 16.5381H75.4645L76.7568 13.7227H81.7261L82.9415 16.5381H84.8645ZM87.9139 8.41501L96.3755 17.2458V4.93809H94.6216V12.9996L86.1601 4.15347V16.5381H87.9139V8.41501ZM107.661 5.56885C106.692 4.99962 105.677 4.70732 104.646 4.70732C102.908 4.70732 101.461 5.30732 100.277 6.49193C99.1076 7.67655 98.5229 9.10732 98.5229 10.7842C98.5229 12.4458 99.1076 13.8612 100.261 15.015C101.431 16.1689 102.846 16.7535 104.508 16.7535C105.615 16.7535 106.661 16.4612 107.661 15.8919V13.7842C107.092 14.2765 106.569 14.615 106.108 14.815C105.661 15.015 105.138 15.1073 104.538 15.1073C103.338 15.1073 102.323 14.6919 101.508 13.8458C100.692 12.9996 100.277 11.9689 100.277 10.7689C100.277 9.53809 100.692 8.49193 101.508 7.64578C102.323 6.79962 103.338 6.36885 104.523 6.36885C105.615 6.36885 106.661 6.78424 107.661 7.63039V5.56885ZM110.056 4.93809V16.5381H111.81V11.1227H116.81V16.5381H118.564V4.93809H116.81V9.47655H111.81V4.93809H110.056ZM52.9227 26.9381V38.5381H54.6765V33.1227H59.6765V38.5381H61.4304V26.9381H59.6765V31.4765H54.6765V26.9381H52.9227ZM69.2211 38.5381V33.5227L73.0365 26.9381H71.0211L68.3596 31.5689L65.6981 26.9381H63.6981L67.4827 33.5227V38.5381H69.2211ZM75.3382 26.9381V28.5842H80.1074L74.4151 38.5381H82.8613V36.8919H77.2921L82.9844 26.9381H75.3382ZM88.4767 31.5227L91.7997 39.0765L95.2459 31.5381L96.3536 38.5381H98.1536L95.969 26.0612L91.8305 35.0765L87.8613 26.0612L85.4151 38.5381H87.2305L88.4767 31.5227ZM105.906 30.1381L107.63 34.0765H104.106L105.906 30.1381ZM111.476 38.5381L105.937 26.215L100.199 38.5381H102.076L103.368 35.7227H108.337L109.553 38.5381H111.476ZM119.064 26.9381H111.987V28.5842H114.664V38.5381H116.402V28.5842H119.064V26.9381Z" fill="#181818"/>
</svg>
