<svg width="164" height="125" viewBox="0 0 164 125" fill="none" xmlns="http://www.w3.org/2000/svg">
<path d="M5.00391 119.034H40.014" stroke="white" stroke-width="0.500144"/>
<path d="M125.038 119.034H160.048" stroke="white" stroke-width="0.500144"/>
<path fill-rule="evenodd" clip-rule="evenodd" d="M52.0204 0.212556C51.796 0.329548 51.4536 0.615667 51.2597 0.84839C50.967 1.19948 50.9077 1.37308 50.9113 1.86763C50.9153 2.42463 51.4812 3.5596 59.5785 19.2503L68.2414 36.0371L68.3004 53.8635L68.3594 71.69L68.6733 72.1506C69.4366 73.2709 71.0279 73.268 71.8914 72.1447C72.1345 71.8285 72.1347 71.8093 72.1653 53.5479L72.1958 35.2677L64.3492 20.1071C60.0335 11.7688 56.5025 4.819 56.5025 4.66305C56.5025 4.50722 56.604 4.25788 56.728 4.10915L56.9534 3.83861L61.8895 3.80962L66.8257 3.78075L75.2302 20.0422L83.6347 36.3037L83.6369 53.9543C83.6381 64.0916 83.6841 71.7168 83.7449 71.8681C83.8031 72.0129 84.0371 72.3049 84.265 72.5169C84.7012 72.9227 85.4264 73.0974 86.047 72.9461C86.4351 72.8514 87.169 72.2242 87.3085 71.8677C87.3732 71.7024 87.416 64.4808 87.4141 54.0331L87.4108 36.4764L99.8397 19.5751C106.676 10.2793 112.303 2.54907 112.345 2.39678C112.566 1.59446 112.184 0.714669 111.429 0.284859C110.477 -0.257359 109.534 0.00389595 108.737 1.03127C108.517 1.31487 103.357 8.32749 97.2695 16.6149C91.1821 24.9023 86.1064 31.7807 85.9901 31.9003C85.7854 32.111 85.5191 31.6133 77.5115 16.0589L69.2441 0H60.8364C52.8726 0 52.407 0.0112293 52.0204 0.212556Z" fill="white"/>
<path d="M5.26892 101.51L0.345622 92.9429H2.96356L6.41182 98.97L9.86985 92.9429H12.4878L7.54496 101.51V108.025H5.26892V101.51ZM14.2363 108.025V91.9172L25.2356 103.424V92.9429H27.5117V108.944L16.5124 97.4657V108.025H14.2363ZM40.1129 104.362H33.656L31.9758 108.025H29.5239L36.987 91.9954L44.1864 108.025H41.6954L40.1129 104.362ZM39.1849 102.223L36.948 97.0945L34.6035 102.223H39.1849ZM46.0815 108.025V91.9172L57.0807 103.424V92.9429H59.3568V108.944L48.3575 97.4657V108.025H46.0815ZM74.2634 93.7537V96.4498C72.9479 95.3492 71.5868 94.7989 70.1802 94.7989C68.6303 94.7989 67.3245 95.3557 66.263 96.4693C65.195 97.5764 64.661 98.931 64.661 100.533C64.661 102.115 65.195 103.451 66.263 104.538C67.3311 105.626 68.64 106.169 70.19 106.169C70.991 106.169 71.6715 106.039 72.2316 105.779C72.5442 105.648 72.8665 105.473 73.1986 105.251C73.5373 105.03 73.8922 104.763 74.2634 104.45V107.195C72.9609 107.931 71.5934 108.299 70.1607 108.299C68.0051 108.299 66.1654 107.547 64.6415 106.042C63.1241 104.525 62.3654 102.695 62.3654 100.553C62.3654 98.6314 63.0004 96.9187 64.2703 95.4143C65.8332 93.5714 67.8553 92.6499 70.3365 92.6499C71.691 92.6499 73 93.0178 74.2634 93.7537ZM71.1766 110.087L68.6172 113.095L67.191 112.343L69.2424 109.227L71.1766 110.087ZM85.5948 98.8431H92.1006V92.9429H94.3766V108.025H92.1006V100.982H85.5948V108.025H83.3187V92.9429H85.5948V98.8431ZM101.039 101.51L96.1154 92.9429H98.7333L102.182 98.97L105.64 92.9429H108.258L103.315 101.51V108.025H101.039V101.51ZM112.614 105.886H119.853V108.025H108.873L116.277 95.0822H110.084V92.9429H120.019L112.614 105.886ZM121.982 108.025L125.157 91.8098L130.334 103.532L135.697 91.8098L138.549 108.025H136.215L134.759 98.9212L130.295 108.719L125.958 98.9114L124.336 108.025H121.982ZM150.614 104.362H144.157L142.476 108.025H140.025L147.488 91.9954L154.687 108.025H152.196L150.614 104.362ZM149.686 102.223L147.449 97.0945L145.104 102.223H149.686ZM159.903 95.0822V108.025H157.627V95.0822H154.159V92.9429H163.361V95.0822H159.903Z" fill="white"/>
<path d="M49.0745 116.872V119.251H50.489C50.9006 119.251 51.2197 119.147 51.4463 118.939C51.6729 118.73 51.7862 118.437 51.7862 118.059C51.7862 117.687 51.669 117.396 51.4346 117.188C51.2027 116.977 50.881 116.872 50.4695 116.872H49.0745ZM49.0745 119.724V122.033H48.5431V116.395H50.532C51.0816 116.395 51.5192 116.545 51.8449 116.844C52.1731 117.141 52.3372 117.541 52.3372 118.044C52.3372 118.442 52.2304 118.784 52.0168 119.068C51.8032 119.351 51.5075 119.542 51.1298 119.638L52.4974 122.033H51.8722L50.575 119.724H50.489H49.0745ZM56.6119 121.549V122.033H53.2085V116.395H56.6119V116.879H53.7399V118.907H56.4673V119.384H53.7399V121.549H56.6119ZM60.8787 121.549V122.033H57.5223V116.395H58.0537V121.549H60.8787ZM62.1642 122.033H61.6328V116.395H62.1642V122.033ZM66.9664 122.033L66.3412 120.306H63.9733L63.3482 122.033H62.7816L64.8916 116.395H65.423L67.5291 122.033H66.9664ZM65.1456 117.055L64.1335 119.845H66.181L65.169 117.055H65.1456ZM70.19 122.033H68.1503V116.395H70.1783C70.6628 116.395 71.0548 116.523 71.3544 116.778C71.6539 117.033 71.8037 117.369 71.8037 117.786C71.8037 118.098 71.706 118.375 71.5107 118.614C71.3179 118.854 71.0717 119.001 70.7722 119.056V119.083C71.1681 119.13 71.4872 119.28 71.7295 119.532C71.9743 119.783 72.0968 120.1 72.0968 120.486C72.0968 120.968 71.9275 121.347 71.5888 121.623C71.2502 121.896 70.7839 122.033 70.19 122.033ZM68.6817 116.868V118.899H69.9086C70.3359 118.899 70.668 118.807 70.905 118.622C71.1447 118.437 71.2645 118.178 71.2645 117.844C71.2645 117.537 71.1577 117.297 70.9441 117.126C70.7331 116.954 70.4401 116.868 70.0649 116.868H68.6817ZM68.6817 121.56H70.1157C70.5742 121.56 70.9272 121.465 71.1746 121.275C71.4247 121.082 71.5497 120.81 71.5497 120.459C71.5497 120.107 71.4195 119.836 71.159 119.646C70.9011 119.456 70.5299 119.361 70.0454 119.361H68.6817V121.56ZM76.2191 121.549V122.033H72.8626V116.395H73.394V121.549H76.2191ZM80.3765 121.549V122.033H76.9732V116.395H80.3765V116.879H77.5046V118.907H80.2319V119.384H77.5046V121.549H80.3765ZM82.6545 120.502H83.1898C83.2185 120.84 83.3787 121.115 83.6704 121.326C83.9622 121.534 84.3282 121.639 84.7684 121.639C85.1904 121.639 85.5368 121.536 85.8078 121.33C86.0813 121.124 86.218 120.862 86.218 120.544C86.218 120.281 86.123 120.068 85.9328 119.904C85.7426 119.737 85.4379 119.6 85.0185 119.493L84.319 119.314C83.7955 119.181 83.4125 118.998 83.1703 118.767C82.9306 118.535 82.8108 118.234 82.8108 117.864C82.8108 117.411 82.9931 117.038 83.3578 116.747C83.7225 116.452 84.1836 116.305 84.741 116.305C85.2881 116.305 85.7426 116.451 86.1047 116.743C86.4694 117.032 86.6596 117.4 86.6752 117.848H86.1399C86.1138 117.531 85.9719 117.275 85.714 117.083C85.4561 116.887 85.1266 116.79 84.7254 116.79C84.3321 116.79 84.0065 116.888 83.7486 117.086C83.4933 117.282 83.3656 117.535 83.3656 117.844C83.3656 118.087 83.4581 118.285 83.6431 118.438C83.828 118.59 84.1289 118.718 84.5457 118.825L85.1552 118.982C85.7231 119.125 86.1334 119.314 86.3861 119.548C86.6387 119.783 86.7651 120.095 86.7651 120.486C86.7651 120.981 86.5801 121.378 86.2102 121.678C85.8403 121.975 85.3441 122.123 84.7215 122.123C84.1328 122.123 83.6483 121.975 83.268 121.678C82.8876 121.378 82.6832 120.986 82.6545 120.502ZM90.9499 121.549V122.033H87.5465V116.395H90.9499V116.879H88.0779V118.907H90.8053V119.384H88.0779V121.549H90.9499ZM92.3917 116.872V119.251H93.8062C94.2177 119.251 94.5368 119.147 94.7635 118.939C94.9901 118.73 95.1034 118.437 95.1034 118.059C95.1034 117.687 94.9862 117.396 94.7517 117.188C94.5199 116.977 94.1982 116.872 93.7866 116.872H92.3917ZM92.3917 119.724V122.033H91.8603V116.395H93.8491C94.3988 116.395 94.8364 116.545 95.162 116.844C95.4902 117.141 95.6543 117.541 95.6543 118.044C95.6543 118.442 95.5475 118.784 95.3339 119.068C95.1203 119.351 94.8247 119.542 94.447 119.638L95.8146 122.033H95.1894L93.8921 119.724H93.8062H92.3917ZM98.7295 122.033H98.198L96.0881 116.395H96.6546L98.452 121.369H98.4755L100.277 116.395H100.839L98.7295 122.033ZM101.988 122.033H101.457V116.395H101.988V122.033ZM105.329 122.123C104.561 122.123 103.95 121.86 103.496 121.334C103.043 120.805 102.817 120.094 102.817 119.2C102.817 118.317 103.043 117.614 103.496 117.09C103.952 116.567 104.563 116.305 105.329 116.305C105.722 116.305 106.083 116.384 106.411 116.543C106.742 116.702 107.013 116.925 107.224 117.212C107.435 117.498 107.565 117.822 107.615 118.184H107.08C107.001 117.778 106.799 117.446 106.474 117.188C106.148 116.93 105.767 116.801 105.329 116.801C104.73 116.801 104.252 117.019 103.895 117.454C103.541 117.886 103.364 118.468 103.364 119.2C103.364 119.943 103.541 120.533 103.895 120.97C104.252 121.408 104.731 121.627 105.333 121.627C105.784 121.627 106.166 121.514 106.482 121.287C106.797 121.06 106.996 120.753 107.08 120.365H107.615C107.516 120.914 107.263 121.346 106.857 121.658C106.45 121.968 105.941 122.123 105.329 122.123ZM111.807 121.549V122.033H108.404V116.395H111.807V116.879H108.936V118.907H111.663V119.384H108.936V121.549H111.807ZM112.358 120.502H112.894C112.922 120.84 113.083 121.115 113.374 121.326C113.666 121.534 114.032 121.639 114.472 121.639C114.894 121.639 115.241 121.536 115.512 121.33C115.785 121.124 115.922 120.862 115.922 120.544C115.922 120.281 115.827 120.068 115.637 119.904C115.447 119.737 115.142 119.6 114.722 119.493L114.023 119.314C113.499 119.181 113.116 118.998 112.874 118.767C112.635 118.535 112.515 118.234 112.515 117.864C112.515 117.411 112.697 117.038 113.062 116.747C113.426 116.452 113.887 116.305 114.445 116.305C114.992 116.305 115.447 116.451 115.809 116.743C116.173 117.032 116.363 117.4 116.379 117.848H115.844C115.818 117.531 115.676 117.275 115.418 117.083C115.16 116.887 114.83 116.79 114.429 116.79C114.036 116.79 113.71 116.888 113.452 117.086C113.197 117.282 113.07 117.535 113.07 117.844C113.07 118.087 113.162 118.285 113.347 118.438C113.532 118.59 113.833 118.718 114.25 118.825L114.859 118.982C115.427 119.125 115.837 119.314 116.09 119.548C116.343 119.783 116.469 120.095 116.469 120.486C116.469 120.981 116.284 121.378 115.914 121.678C115.544 121.975 115.048 122.123 114.425 122.123C113.837 122.123 113.352 121.975 112.972 121.678C112.592 121.378 112.387 120.986 112.358 120.502Z" fill="white"/>
</svg>
