<svg width="164" height="125" viewBox="0 0 164 125" fill="none" xmlns="http://www.w3.org/2000/svg">
<path d="M5.00391 119.033H40.014" stroke="#181818" stroke-width="0.500144"/>
<path d="M125.038 119.033H160.048" stroke="#181818" stroke-width="0.500144"/>
<path fill-rule="evenodd" clip-rule="evenodd" d="M52.0204 0.212556C51.796 0.329548 51.4536 0.615667 51.2597 0.84839C50.967 1.19948 50.9077 1.37308 50.9113 1.86763C50.9153 2.42463 51.4812 3.5596 59.5785 19.2503L68.2414 36.0371L68.3004 53.8635L68.3594 71.69L68.6733 72.1506C69.4366 73.2709 71.0279 73.268 71.8914 72.1447C72.1345 71.8285 72.1347 71.8093 72.1653 53.5479L72.1958 35.2677L64.3492 20.1071C60.0335 11.7688 56.5025 4.819 56.5025 4.66305C56.5025 4.50722 56.604 4.25788 56.728 4.10915L56.9534 3.83861L61.8895 3.80962L66.8257 3.78075L75.2302 20.0422L83.6347 36.3037L83.6369 53.9543C83.6381 64.0916 83.6841 71.7168 83.7449 71.8681C83.8031 72.0129 84.0371 72.3049 84.265 72.5169C84.7012 72.9227 85.4264 73.0974 86.047 72.9461C86.4351 72.8514 87.169 72.2242 87.3085 71.8677C87.3732 71.7024 87.416 64.4808 87.4141 54.0331L87.4108 36.4764L99.8397 19.5751C106.676 10.2793 112.303 2.54907 112.345 2.39678C112.566 1.59446 112.184 0.714669 111.429 0.284859C110.477 -0.257359 109.534 0.00389595 108.737 1.03127C108.517 1.31487 103.357 8.32749 97.2695 16.6149C91.1821 24.9023 86.1064 31.7807 85.9901 31.9003C85.7854 32.111 85.5191 31.6133 77.5115 16.0589L69.2441 0H60.8364C52.8726 0 52.407 0.0112293 52.0204 0.212556Z" fill="#F37021"/>
<path d="M5.26892 101.51L0.345622 92.9429H2.96356L6.41182 98.97L9.86985 92.9429H12.4878L7.54496 101.51V108.025H5.26892V101.51ZM14.2363 108.025V91.9172L25.2356 103.424V92.9429H27.5117V108.944L16.5124 97.4657V108.025H14.2363ZM40.1129 104.362H33.656L31.9758 108.025H29.5239L36.987 91.9954L44.1864 108.025H41.6954L40.1129 104.362ZM39.1849 102.223L36.948 97.0945L34.6035 102.223H39.1849ZM46.0815 108.025V91.9172L57.0807 103.424V92.9429H59.3568V108.944L48.3575 97.4657V108.025H46.0815ZM74.2634 93.7537V96.4498C72.9479 95.3492 71.5868 94.7989 70.1802 94.7989C68.6303 94.7989 67.3245 95.3557 66.263 96.4693C65.195 97.5764 64.661 98.931 64.661 100.533C64.661 102.115 65.195 103.451 66.263 104.538C67.3311 105.626 68.64 106.169 70.19 106.169C70.991 106.169 71.6715 106.039 72.2316 105.779C72.5442 105.648 72.8665 105.473 73.1986 105.251C73.5373 105.03 73.8922 104.763 74.2634 104.45V107.195C72.9609 107.931 71.5934 108.299 70.1607 108.299C68.0051 108.299 66.1654 107.547 64.6415 106.042C63.1241 104.525 62.3654 102.695 62.3654 100.553C62.3654 98.6314 63.0004 96.9187 64.2703 95.4143C65.8332 93.5714 67.8553 92.6499 70.3365 92.6499C71.691 92.6499 73 93.0178 74.2634 93.7537ZM71.1766 110.087L68.6172 113.095L67.191 112.343L69.2424 109.227L71.1766 110.087ZM85.5948 98.8431H92.1006V92.9429H94.3766V108.025H92.1006V100.982H85.5948V108.025H83.3187V92.9429H85.5948V98.8431ZM101.039 101.51L96.1154 92.9429H98.7333L102.182 98.97L105.64 92.9429H108.258L103.315 101.51V108.025H101.039V101.51ZM112.614 105.886H119.853V108.025H108.873L116.277 95.0822H110.084V92.9429H120.019L112.614 105.886ZM121.982 108.025L125.157 91.8098L130.334 103.532L135.697 91.8098L138.549 108.025H136.215L134.759 98.9212L130.295 108.719L125.958 98.9114L124.336 108.025H121.982ZM150.614 104.362H144.157L142.476 108.025H140.025L147.488 91.9954L154.687 108.025H152.196L150.614 104.362ZM149.686 102.223L147.449 97.0945L145.104 102.223H149.686ZM159.903 95.0822V108.025H157.627V95.0822H154.159V92.9429H163.361V95.0822H159.903Z" fill="#181818"/>
<path d="M49.0589 116.872V119.251H50.4734C50.8849 119.251 51.204 119.147 51.4307 118.939C51.6573 118.73 51.7706 118.437 51.7706 118.059C51.7706 117.687 51.6534 117.396 51.419 117.188C51.1871 116.977 50.8654 116.872 50.4538 116.872H49.0589ZM49.0589 119.724V122.033H48.5275V116.395H50.5163C51.066 116.395 51.5036 116.545 51.8292 116.844C52.1574 117.141 52.3216 117.541 52.3216 118.044C52.3216 118.442 52.2148 118.784 52.0012 119.068C51.7875 119.351 51.4919 119.542 51.1142 119.638L52.4818 122.033H51.8566L50.5593 119.724H50.4734H49.0589ZM56.5962 121.549V122.033H53.1929V116.395H56.5962V116.879H53.7243V118.907H56.4517V119.384H53.7243V121.549H56.5962ZM60.8631 121.549V122.033H57.5066V116.395H58.038V121.549H60.8631ZM62.1486 122.033H61.6172V116.395H62.1486V122.033ZM66.9508 122.033L66.3256 120.306H63.9577L63.3325 122.033H62.766L64.876 116.395H65.4074L67.5134 122.033H66.9508ZM65.1299 117.055L64.1179 119.845H66.1654L65.1534 117.055H65.1299ZM70.1744 122.033H68.1347V116.395H70.1626C70.6471 116.395 71.0392 116.523 71.3388 116.778C71.6383 117.033 71.7881 117.369 71.7881 117.786C71.7881 118.098 71.6904 118.375 71.495 118.614C71.3023 118.854 71.0561 119.001 70.7566 119.056V119.083C71.1525 119.13 71.4716 119.28 71.7139 119.532C71.9587 119.783 72.0812 120.1 72.0812 120.486C72.0812 120.968 71.9118 121.347 71.5732 121.623C71.2346 121.896 70.7683 122.033 70.1744 122.033ZM68.6661 116.868V118.899H69.893C70.3202 118.899 70.6524 118.807 70.8894 118.622C71.1291 118.437 71.2489 118.178 71.2489 117.844C71.2489 117.537 71.1421 117.297 70.9285 117.126C70.7175 116.954 70.4244 116.868 70.0493 116.868H68.6661ZM68.6661 121.56H70.1001C70.5586 121.56 70.9115 121.465 71.159 121.275C71.4091 121.082 71.5341 120.81 71.5341 120.459C71.5341 120.107 71.4039 119.836 71.1434 119.646C70.8855 119.456 70.5143 119.361 70.0298 119.361H68.6661V121.56ZM76.2034 121.549V122.033H72.847V116.395H73.3784V121.549H76.2034ZM80.3609 121.549V122.033H76.9576V116.395H80.3609V116.879H77.489V118.907H80.2163V119.384H77.489V121.549H80.3609ZM82.6389 120.502H83.1742C83.2028 120.84 83.363 121.115 83.6548 121.326C83.9466 121.534 84.3125 121.639 84.7528 121.639C85.1748 121.639 85.5212 121.536 85.7921 121.33C86.0657 121.124 86.2024 120.862 86.2024 120.544C86.2024 120.281 86.1073 120.068 85.9172 119.904C85.727 119.737 85.4222 119.6 85.0028 119.493L84.3034 119.314C83.7798 119.181 83.3969 118.998 83.1547 118.767C82.915 118.535 82.7952 118.234 82.7952 117.864C82.7952 117.411 82.9775 117.038 83.3422 116.747C83.7069 116.452 84.168 116.305 84.7254 116.305C85.2725 116.305 85.727 116.451 86.0891 116.743C86.4538 117.032 86.6439 117.4 86.6596 117.848H86.1243C86.0982 117.531 85.9562 117.275 85.6984 117.083C85.4405 116.887 85.1109 116.79 84.7098 116.79C84.3164 116.79 83.9908 116.888 83.7329 117.086C83.4777 117.282 83.35 117.535 83.35 117.844C83.35 118.087 83.4425 118.285 83.6274 118.438C83.8124 118.59 84.1133 118.718 84.5301 118.825L85.1396 118.982C85.7075 119.125 86.1177 119.314 86.3704 119.548C86.6231 119.783 86.7494 120.095 86.7494 120.486C86.7494 120.981 86.5645 121.378 86.1946 121.678C85.8247 121.975 85.3285 122.123 84.7059 122.123C84.1172 122.123 83.6327 121.975 83.2523 121.678C82.872 121.378 82.6675 120.986 82.6389 120.502ZM90.9342 121.549V122.033H87.5309V116.395H90.9342V116.879H88.0623V118.907H90.7897V119.384H88.0623V121.549H90.9342ZM92.3761 116.872V119.251H93.7905C94.2021 119.251 94.5212 119.147 94.7478 118.939C94.9745 118.73 95.0878 118.437 95.0878 118.059C95.0878 117.687 94.9706 117.396 94.7361 117.188C94.5043 116.977 94.1826 116.872 93.771 116.872H92.3761ZM92.3761 119.724V122.033H91.8447V116.395H93.8335C94.3832 116.395 94.8208 116.545 95.1464 116.844C95.4746 117.141 95.6387 117.541 95.6387 118.044C95.6387 118.442 95.5319 118.784 95.3183 119.068C95.1047 119.351 94.8091 119.542 94.4313 119.638L95.7989 122.033H95.1737L93.8765 119.724H93.7905H92.3761ZM98.7138 122.033H98.1824L96.0724 116.395H96.639L98.4364 121.369H98.4598L100.261 116.395H100.824L98.7138 122.033ZM101.973 122.033H101.441V116.395H101.973V122.033ZM105.313 122.123C104.545 122.123 103.934 121.86 103.481 121.334C103.028 120.805 102.801 120.094 102.801 119.2C102.801 118.317 103.028 117.614 103.481 117.09C103.937 116.567 104.548 116.305 105.313 116.305C105.707 116.305 106.068 116.384 106.396 116.543C106.727 116.702 106.997 116.925 107.208 117.212C107.419 117.498 107.55 117.822 107.599 118.184H107.064C106.986 117.778 106.784 117.446 106.458 117.188C106.133 116.93 105.751 116.801 105.313 116.801C104.714 116.801 104.236 117.019 103.879 117.454C103.525 117.886 103.348 118.468 103.348 119.2C103.348 119.943 103.525 120.533 103.879 120.97C104.236 121.408 104.716 121.627 105.317 121.627C105.768 121.627 106.151 121.514 106.466 121.287C106.781 121.06 106.981 120.753 107.064 120.365H107.599C107.5 120.914 107.248 121.346 106.841 121.658C106.435 121.968 105.926 122.123 105.313 122.123ZM111.792 121.549V122.033H108.388V116.395H111.792V116.879H108.92V118.907H111.647V119.384H108.92V121.549H111.792ZM112.343 120.502H112.878C112.907 120.84 113.067 121.115 113.359 121.326C113.65 121.534 114.016 121.639 114.457 121.639C114.879 121.639 115.225 121.536 115.496 121.33C115.77 121.124 115.906 120.862 115.906 120.544C115.906 120.281 115.811 120.068 115.621 119.904C115.431 119.737 115.126 119.6 114.707 119.493L114.007 119.314C113.484 119.181 113.101 118.998 112.859 118.767C112.619 118.535 112.499 118.234 112.499 117.864C112.499 117.411 112.681 117.038 113.046 116.747C113.411 116.452 113.872 116.305 114.429 116.305C114.976 116.305 115.431 116.451 115.793 116.743C116.158 117.032 116.348 117.4 116.363 117.848H115.828C115.802 117.531 115.66 117.275 115.402 117.083C115.144 116.887 114.815 116.79 114.414 116.79C114.02 116.79 113.695 116.888 113.437 117.086C113.182 117.282 113.054 117.535 113.054 117.844C113.054 118.087 113.146 118.285 113.331 118.438C113.516 118.59 113.817 118.718 114.234 118.825L114.843 118.982C115.411 119.125 115.822 119.314 116.074 119.548C116.327 119.783 116.453 120.095 116.453 120.486C116.453 120.981 116.268 121.378 115.898 121.678C115.529 121.975 115.032 122.123 114.41 122.123C113.821 122.123 113.337 121.975 112.956 121.678C112.576 121.378 112.371 120.986 112.343 120.502Z" fill="#181818"/>
</svg>
