<svg width="90" height="90" viewBox="0 0 90 90" fill="none" xmlns="http://www.w3.org/2000/svg">
<path d="M19.2955 57V33.7273H34.4318V37.2614H23.5114V43.5795H33.6477V47.1136H23.5114V53.4659H34.5227V57H19.2955ZM50.4207 40.125C50.3146 39.1326 49.8677 38.3598 49.0798 37.8068C48.2995 37.2538 47.2843 36.9773 46.0343 36.9773C45.1555 36.9773 44.4017 37.1098 43.773 37.375C43.1442 37.6402 42.6631 38 42.3298 38.4545C41.9964 38.9091 41.826 39.428 41.8184 40.0114C41.8184 40.4962 41.9283 40.9167 42.148 41.2727C42.3752 41.6288 42.682 41.9318 43.0684 42.1818C43.4548 42.4242 43.8828 42.6288 44.3525 42.7955C44.8222 42.9621 45.2957 43.1023 45.773 43.2159L47.9548 43.7614C48.8336 43.9659 49.6783 44.2424 50.4889 44.5909C51.307 44.9394 52.0381 45.3788 52.682 45.9091C53.3336 46.4394 53.8487 47.0795 54.2275 47.8295C54.6063 48.5795 54.7957 49.4583 54.7957 50.4659C54.7957 51.8295 54.4472 53.0303 53.7502 54.0682C53.0533 55.0985 52.0457 55.9053 50.7275 56.4886C49.4169 57.0644 47.8298 57.3523 45.9661 57.3523C44.1555 57.3523 42.5836 57.072 41.2502 56.5114C39.9245 55.9508 38.8866 55.1326 38.1366 54.0568C37.3942 52.9811 36.9927 51.6705 36.932 50.125H41.0798C41.1404 50.9356 41.3904 51.6098 41.8298 52.1477C42.2692 52.6856 42.8411 53.0871 43.5457 53.3523C44.2578 53.6174 45.0533 53.75 45.932 53.75C46.8487 53.75 47.6517 53.6136 48.3411 53.3409C49.0381 53.0606 49.5836 52.6742 49.9775 52.1818C50.3714 51.6818 50.5722 51.0985 50.5798 50.4318C50.5722 49.8258 50.3942 49.3258 50.0457 48.9318C49.6972 48.5303 49.2086 48.197 48.5798 47.9318C47.9586 47.6591 47.2313 47.4167 46.398 47.2045L43.7502 46.5227C41.8336 46.0303 40.3184 45.2841 39.2048 44.2841C38.0987 43.2765 37.5457 41.9394 37.5457 40.2727C37.5457 38.9015 37.9169 37.7008 38.6593 36.6705C39.4093 35.6402 40.4283 34.8409 41.7161 34.2727C43.004 33.697 44.4623 33.4091 46.0911 33.4091C47.7427 33.4091 49.1896 33.697 50.432 34.2727C51.682 34.8409 52.6631 35.6326 53.3752 36.6477C54.0874 37.6553 54.4548 38.8144 54.4775 40.125H50.4207ZM56.5715 37.2614V33.7273H75.1397V37.2614H67.9465V57H63.7647V37.2614H56.5715Z" fill="white"/>
<circle cx="45" cy="45" r="43.5" stroke="white" stroke-width="3"/>
</svg>
